<?xml version="1.0" encoding="UTF-8" standalone="no"?>
<!-- Created with Inkscape (http://www.inkscape.org/) -->

<svg
   width="1000"
   height="1000"
   viewBox="0 0 264.58333 264.58334"
   version="1.1"
   id="svg890"
   xmlns="http://www.w3.org/2000/svg">
  <defs
     id="defs887" />
  <g
     id="layer3"
     style="display:inline">
    <g
       id="g35654"
       transform="translate(0.87285485,-3.4365145)">
      <path
         style="font-variation-settings:normal;vector-effect:none;fill:none;fill-opacity:1;stroke:currentColor;stroke-width:1.05833;stroke-linecap:round;stroke-linejoin:round;stroke-miterlimit:4;stroke-dasharray:none;stroke-dashoffset:0;stroke-opacity:1;-inkscape-stroke:none;stop-color:#000000"
         d="m 102.56561,125.6911 c -3.212795,0.49221 -6.680995,1.40756 -9.970098,3.82112 -6.302962,4.62514 -9.269988,13.14042 -9.914991,14.68186 -0.645006,1.54143 -2.367621,8.28974 -5.048701,11.18035 -2.681083,2.89061 -16.921716,20.05102 -17.565078,20.60071 -0.643361,0.54969 -9.608922,5.92952 -13.288735,9.98483 -3.679813,4.05531 -23.657697,21.55793 -25.546286,22.97613 -1.88859,1.41819 -7.228076,4.84182 -7.725181,5.50654 -0.283656,0.37931 -5.4901022,4.6422 -9.9089447,8.23313 m 3.1560333,13.02021 c 0,0 8.0588594,-5.78121 8.6582614,-6.1904 0.599403,-0.40918 19.680854,-12.12568 20.799547,-12.48762 0.412954,-0.1336 2.736109,-1.64582 6.345412,-3.75956 m 216.683181,6.78156 c -4.07702,-3.22174 -8.91762,-6.99226 -14.24268,-12.8125 -7.78442,-8.50832 -27.05321,-30.88874 -27.89377,-32.9659 -0.84056,-2.07716 -7.90192,-18.86946 -13.22301,-24.10756 -5.32108,-5.23809 -14.71267,-14.04794 -24.79364,-17.83252 -10.08096,-3.78458 -21.45769,-8.46065 -22.04272,-9.55757 -0.58502,-1.09692 -2.83268,-1.64579 -2.97319,-2.12153 -0.14049,-0.47575 -0.6606,-3.25131 -0.6606,-3.25131 m -37.86702,5.02479 c 2.21886,-1.02945 3.79784,-2.07446 4.0166,-2.42424 0.43835,-0.70088 -0.43795,-10.54767 -0.43795,-10.54767 l -0.13257,-2.19943 m -51.721879,89.7315 c 2.325782,-2.26789 3.724749,-4.12425 4.291317,-4.44481 1.124028,-0.63598 3.620241,-4.61733 4.21307,-5.01871 0.592829,-0.40138 7.952042,-8.44011 7.952042,-8.44011 l 3.515071,-3.51877 c 0,0 -0.716491,5.84407 -0.210757,8.94667 0.505731,3.1026 1.799029,6.81404 1.799029,8.00668 0,1.19264 0.641715,44.59529 0.641715,44.59529 l 0.104217,10.79065 M 212.69044,235.08094 c 0,0 -10.31103,-18.23761 -12.07597,-21.50453 -1.76492,-3.26693 -14.75787,-32.48768 -14.75787,-32.48768 0,0 -2.16589,0.79865 -3.32444,1.41079 -1.15855,0.61213 -7.2791,19.94749 -9.44171,25.15354 -2.16263,5.20605 -2.11003,27.32025 -2.11003,27.32025 l -0.10045,6.76597"
         id="path4727" />
      <path
         style="font-variation-settings:normal;vector-effect:none;fill:none;fill-opacity:1;stroke:currentColor;stroke-width:1.05833;stroke-linecap:round;stroke-linejoin:round;stroke-miterlimit:4;stroke-dasharray:none;stroke-dashoffset:0;stroke-opacity:1;-inkscape-stroke:none;stop-color:#000000"
         d="m 163.55588,235.05876 c 0,0 -0.0123,-24.98509 2.50771,-33.65116 2.52003,-8.66606 6.07537,-17.39294 8.59376,-19.4701"
         id="path4922" />
      <path
         style="font-variation-settings:normal;vector-effect:none;fill:none;fill-opacity:1;stroke:currentColor;stroke-width:1.05833;stroke-linecap:round;stroke-linejoin:round;stroke-miterlimit:4;stroke-dasharray:none;stroke-dashoffset:0;stroke-opacity:1;-inkscape-stroke:none;stop-color:#000000"
         d="m 200.28992,212.64219 c -1.41819,-20.08225 24.17985,-24.88732 30.46146,-21.01812 l 0.98845,0.63023"
         id="path4924" />
      <path
         style="font-variation-settings:normal;vector-effect:none;fill:none;fill-opacity:1;stroke:currentColor;stroke-width:1.05833;stroke-linecap:round;stroke-linejoin:round;stroke-miterlimit:4;stroke-dasharray:none;stroke-dashoffset:0;stroke-opacity:1;-inkscape-stroke:none;stop-color:#000000"
         d="m 66.435445,168.61343 c 0.198675,2.5497 0.97652,4.53031 2.10253,6.06262 m 10.382468,5.0044 c 2.502845,0.2376 3.990752,-0.25745 4.667977,-0.46886"
         id="path4928" />
      <path
         style="font-variation-settings:normal;vector-effect:none;fill:none;fill-opacity:1;stroke:currentColor;stroke-width:1.05833;stroke-linecap:round;stroke-linejoin:round;stroke-miterlimit:4;stroke-dasharray:none;stroke-dashoffset:0;stroke-opacity:1;-inkscape-stroke:none;stop-color:#000000"
         d="m 29.868231,232.67069 c 0,0 35.374927,-52.82592 41.004263,-61.28067 5.629334,-8.45474 40.392476,-57.58956 40.244906,-58.64118 -4.4e-4,-0.81151 -0.80978,-1.2814 -0.80978,-1.2814"
         id="path5398" />
      <path
         style="font-variation-settings:normal;vector-effect:none;fill:none;fill-opacity:1;stroke:currentColor;stroke-width:1.05833;stroke-linecap:round;stroke-linejoin:round;stroke-miterlimit:4;stroke-dasharray:none;stroke-dashoffset:0;stroke-opacity:1;-inkscape-stroke:none;stop-color:#000000"
         d="M 107.34378,106.59603 92.64789,90.432534"
         id="path5400" />
      <path
         style="font-variation-settings:normal;vector-effect:none;fill:none;fill-opacity:1;stroke:currentColor;stroke-width:1.05833;stroke-linecap:round;stroke-linejoin:round;stroke-miterlimit:4;stroke-dasharray:none;stroke-dashoffset:0;stroke-opacity:1;-inkscape-stroke:none;stop-color:#000000"
         d="M 98.871012,85.255799 112.12078,101.3763"
         id="path5402" />
      <path
         style="font-variation-settings:normal;vector-effect:none;fill:none;fill-opacity:1;stroke:currentColor;stroke-width:1.05833;stroke-linecap:round;stroke-linejoin:round;stroke-miterlimit:4;stroke-dasharray:none;stroke-dashoffset:0;stroke-opacity:1;-inkscape-stroke:none;stop-color:#000000"
         d="M 92.773387,50.618167 C 89.00849,66.749123 84.237296,75.170174 76.035284,86.648463 67.833269,98.126749 62.431686,107.61743 62.815149,110.82166 c 0.383461,3.20423 2.852723,4.12279 3.935712,3.68995 1.082988,-0.43285 7.725301,-13.0621 7.725301,-13.0621 0,0 2.59549,-4.753051 4.844584,-7.409897"
         id="path5517" />
      <path
         style="font-variation-settings:normal;vector-effect:none;fill:none;fill-opacity:1;stroke:currentColor;stroke-width:1.05833;stroke-linecap:round;stroke-linejoin:round;stroke-miterlimit:4;stroke-dasharray:none;stroke-dashoffset:0;stroke-opacity:1;-inkscape-stroke:none;stop-color:#000000"
         d="M 79.2215,94.159084 C 92.796628,78.788659 97.491712,78.48131 100.38568,77.359393 c 2.89398,-1.121915 8.87541,-3.483692 10.13444,-6.187098 1.25904,-2.703405 0.51709,-18.062209 -1.9481,-21.712649 -2.4652,-3.650439 -3.76025,-4.405162 -6.27542,-3.716675 -2.51516,0.688489 -3.864247,4.370159 -3.864247,4.370159 0,0 -0.750995,-0.670889 -1.019368,-1.145303 -0.520836,-0.920701 -4.203265,-0.291335 -4.654902,1.716188"
         id="path5554" />
      <path
         style="font-variation-settings:normal;vector-effect:none;fill:none;fill-opacity:1;stroke:currentColor;stroke-width:1.05833;stroke-linecap:round;stroke-linejoin:round;stroke-miterlimit:4;stroke-dasharray:none;stroke-dashoffset:0;stroke-opacity:1;-inkscape-stroke:none;stop-color:#000000"
         d="m 74.808606,100.9078 c 4.345754,-1.886224 10.4453,-5.53239 12.50815,-6.672747 2.062851,-1.140368 2.594467,-1.469795 3.144386,-2.035542 0.549918,-0.565758 2.948733,-3.414119 2.948733,-3.414119"
         id="path6302" />
      <path
         style="font-variation-settings:normal;vector-effect:none;fill:none;fill-opacity:1;stroke:currentColor;stroke-width:1.05833;stroke-linecap:round;stroke-linejoin:round;stroke-miterlimit:4;stroke-dasharray:none;stroke-dashoffset:0;stroke-opacity:1;-inkscape-stroke:none;stop-color:#000000"
         d="m 77.051601,97.202959 c 0,0 10.953933,-5.562231 11.61555,-6.15311 0.661618,-0.590879 2.259228,-2.435417 2.259228,-2.435417"
         id="path6304" />
      <path
         style="font-variation-settings:normal;vector-effect:none;fill:none;fill-opacity:1;stroke:currentColor;stroke-width:1.05833;stroke-linecap:round;stroke-linejoin:round;stroke-miterlimit:4;stroke-dasharray:none;stroke-dashoffset:0;stroke-opacity:1;-inkscape-stroke:none;stop-color:#000000"
         d="m 78.483482,95.216078 c 0,0 6.478617,-4.32281 7.024468,-4.833657 0.545851,-0.510845 3.491034,-4.351703 3.491034,-4.351703"
         id="path6306" />
      <path
         style="font-variation-settings:normal;vector-effect:none;fill:none;fill-opacity:1;stroke:currentColor;stroke-width:1.05833;stroke-linecap:round;stroke-linejoin:round;stroke-miterlimit:4;stroke-dasharray:none;stroke-dashoffset:0;stroke-opacity:1;-inkscape-stroke:none;stop-color:#000000"
         d="m 86.264414,92.344034 c 1.970763,-1.745335 3.896638,-4.826549 3.896638,-4.826549"
         id="path6308" />
      <path
         style="font-variation-settings:normal;vector-effect:none;fill:none;fill-opacity:1;stroke:currentColor;stroke-width:1.05833;stroke-linecap:round;stroke-linejoin:round;stroke-miterlimit:4;stroke-dasharray:none;stroke-dashoffset:0;stroke-opacity:1;-inkscape-stroke:none;stop-color:#000000"
         d="M 96.783466,80.200787 98.12384,78.351165"
         id="path6310" />
      <path
         style="font-variation-settings:normal;vector-effect:none;fill:none;fill-opacity:1;stroke:currentColor;stroke-width:1.05833;stroke-linecap:round;stroke-linejoin:round;stroke-miterlimit:4;stroke-dasharray:none;stroke-dashoffset:0;stroke-opacity:1;-inkscape-stroke:none;stop-color:#000000"
         d="m 98.320656,82.030944 c 1.863134,-2.090593 3.618054,-5.086096 3.618054,-5.086096"
         id="path6312" />
      <path
         style="font-variation-settings:normal;vector-effect:none;fill:none;fill-opacity:1;stroke:currentColor;stroke-width:1.05833;stroke-linecap:round;stroke-linejoin:round;stroke-miterlimit:4;stroke-dasharray:none;stroke-dashoffset:0;stroke-opacity:1;-inkscape-stroke:none;stop-color:#000000"
         d="m 95.94944,79.408734 c 0,0 2.51211,2.07912 2.61364,3.574619 0.10153,1.495502 -0.34991,2.744512 -0.34991,2.744512"
         id="path6314" />
      <path
         style="font-variation-settings:normal;vector-effect:none;fill:none;fill-opacity:1;stroke:currentColor;stroke-width:1.05833;stroke-linecap:round;stroke-linejoin:round;stroke-miterlimit:4;stroke-dasharray:none;stroke-dashoffset:0;stroke-opacity:1;-inkscape-stroke:none;stop-color:#000000"
         d="m 89.009797,84.537244 c 0.308368,4.141386 5.334912,4.149232 5.334912,4.149232"
         id="path6316" />
      <path
         style="font-variation-settings:normal;vector-effect:none;fill:none;fill-opacity:1;stroke:currentColor;stroke-width:1.05833;stroke-linecap:round;stroke-linejoin:round;stroke-miterlimit:4;stroke-dasharray:none;stroke-dashoffset:0;stroke-opacity:1;-inkscape-stroke:none;stop-color:#000000"
         d="m 107.13403,106.62028 c -1.13992,1.45033 -0.18984,2.23599 -0.18984,2.23599 l 2.04964,2.31138 c 0,0 2.31108,0.36342 4.44583,-1.55099 2.13475,-1.9144 3.31433,-3.46509 3.31433,-3.46509"
         id="path6513" />
      <path
         style="font-variation-settings:normal;vector-effect:none;fill:none;fill-opacity:1;stroke:currentColor;stroke-width:1.05833;stroke-linecap:round;stroke-linejoin:round;stroke-miterlimit:4;stroke-dasharray:none;stroke-dashoffset:0;stroke-opacity:1;-inkscape-stroke:none;stop-color:#000000"
         d="M 41.88453,235.54607 87.653882,165.97885"
         id="path6515" />
      <path
         style="font-variation-settings:normal;vector-effect:none;fill:none;fill-opacity:1;stroke:currentColor;stroke-width:1.05833;stroke-linecap:round;stroke-linejoin:round;stroke-miterlimit:4;stroke-dasharray:none;stroke-dashoffset:0;stroke-opacity:1;-inkscape-stroke:none;stop-color:#000000"
         d="m 87.253282,175.41085 c 0.164424,-8.26768 -0.15048,-11.91579 3.834617,-17.51055 3.985097,-5.59476 24.350321,-35.39049 24.350321,-35.39049 l 4.00193,-6.02198"
         id="path6550" />
      <path
         style="font-variation-settings:normal;vector-effect:none;fill:none;fill-opacity:1;stroke:currentColor;stroke-width:1.05833;stroke-linecap:round;stroke-linejoin:round;stroke-miterlimit:4;stroke-dasharray:none;stroke-dashoffset:0;stroke-opacity:1;-inkscape-stroke:none;stop-color:#000000"
         d="m 109.7395,235.19968 c 0,0 -0.33566,-41.51817 3.65105,-56.18318 3.9867,-14.66503 12.50117,-36.17408 13.92922,-38.39668 1.42805,-2.22259 2.26573,-8.75233 2.26573,-8.75233"
         id="path6695" />
      <path
         style="font-variation-settings:normal;vector-effect:none;fill:none;fill-opacity:1;stroke:currentColor;stroke-width:1.05833;stroke-linecap:round;stroke-linejoin:round;stroke-miterlimit:4;stroke-dasharray:none;stroke-dashoffset:0;stroke-opacity:1;-inkscape-stroke:none;stop-color:#000000"
         d="m 119.23955,121.02854 c -0.13475,8.61717 9.96882,8.52351 12.77972,8.30083 2.8109,-0.22267 11.71238,-2.8713 14.56436,-4.4345 2.85199,-1.56321 5.92501,-5.28494 5.92501,-5.28494"
         id="path6697" />
      <path
         style="font-variation-settings:normal;vector-effect:none;fill:none;fill-opacity:1;stroke:currentColor;stroke-width:1.05833;stroke-linecap:round;stroke-linejoin:round;stroke-miterlimit:4;stroke-dasharray:none;stroke-dashoffset:0;stroke-opacity:1;-inkscape-stroke:none;stop-color:#000000"
         d="m 188.19999,136.80588 c 0,0 11.69532,-24.54324 12.32123,-25.30267 0.6259,-0.75941 1.07184,-1.48884 1.07184,-1.48884 l 0.61564,-2.70019"
         id="path6699" />
      <path
         style="font-variation-settings:normal;vector-effect:none;fill:none;fill-opacity:1;stroke:currentColor;stroke-width:1.05833;stroke-linecap:round;stroke-linejoin:round;stroke-miterlimit:4;stroke-dasharray:none;stroke-dashoffset:0;stroke-opacity:1;-inkscape-stroke:none;stop-color:#000000"
         d="m 191.82454,139.31729 c 0,0 10.35376,-23.32205 10.88413,-24.11002 0.53039,-0.78798 1.65381,-3.31233 1.67518,-4.27306 0.0214,-0.96072 -0.30114,-1.07205 -0.12284,-1.66119 0.1783,-0.58914 1.1684,-3.75623 1.1684,-3.75623 0.17635,-0.47943 3.13823,0.30987 3.71802,0.15427 0.57979,-0.1556 1.60316,-1.94692 1.55109,-2.6175 -0.0521,-0.67058 -0.7134,-1.02934 -0.83193,-1.13452 -0.11852,-0.10513 -1.09887,-1.59823 -2.77393,-2.319644 -1.67506,-0.72143 -3.50294,-1.514127 -3.74606,-1.657907 -0.24311,-0.14379 -1.49788,-1.38266 -2.27046,-0.45798 -0.77256,0.924677 -0.0626,1.504977 0.23439,1.705977 0.29703,0.20099 2.81768,2.067304 2.68898,2.186954 -0.12868,0.11965 -0.41935,0.36226 -0.6109,0.33596"
         id="path6701" />
      <path
         style="font-variation-settings:normal;vector-effect:none;fill:none;fill-opacity:1;stroke:currentColor;stroke-width:1.05833;stroke-linecap:round;stroke-linejoin:round;stroke-miterlimit:4;stroke-dasharray:none;stroke-dashoffset:0;stroke-opacity:1;-inkscape-stroke:none;stop-color:#000000"
         d="m 155.89019,113.8277 c 0,0 21.17833,-2.63014 28.49235,-4.54194 7.31402,-1.91181 14.99348,-3.53582 15.08941,-3.60238 0.096,-0.0666 0.364,1.28632 1.56485,1.48064 1.20086,0.19432 1.22551,0.19432 1.22551,0.19432"
         id="path6703" />
      <path
         style="font-variation-settings:normal;vector-effect:none;fill:none;fill-opacity:1;stroke:currentColor;stroke-width:1.05833;stroke-linecap:round;stroke-linejoin:round;stroke-miterlimit:4;stroke-dasharray:none;stroke-dashoffset:0;stroke-opacity:1;-inkscape-stroke:none;stop-color:#000000"
         d="m 159.06591,109.89193 c 0,0 19.21888,-2.71168 23.32328,-3.46843 4.10441,-0.75675 16.97984,-3.71043 17.33336,-3.74658 0.35353,-0.0362 0.84118,-1.06118 1.53323,-1.30767 0.69205,-0.24649 1.81649,0.32641 2.14597,0.32641"
         id="path6705" />
      <path
         style="font-variation-settings:normal;vector-effect:none;fill:none;fill-opacity:1;stroke:currentColor;stroke-width:1.05833;stroke-linecap:round;stroke-linejoin:round;stroke-miterlimit:4;stroke-dasharray:none;stroke-dashoffset:0;stroke-opacity:1;-inkscape-stroke:none;stop-color:#000000"
         d="m 159.33644,109.59224 c 0,0 15.56967,-4.60891 17.06263,-5.11772 1.49296,-0.50882 2.26532,-0.96628 2.86411,-0.96628 0.59879,0 1.02975,0.93218 1.33746,0.96956 0.30771,0.0374 0.69348,0.36564 0.69348,0.36564 l 0.16824,1.57533"
         id="path6707" />
      <path
         style="font-variation-settings:normal;vector-effect:none;fill:none;fill-opacity:1;stroke:currentColor;stroke-width:1.05833;stroke-linecap:round;stroke-linejoin:round;stroke-miterlimit:4;stroke-dasharray:none;stroke-dashoffset:0;stroke-opacity:1;-inkscape-stroke:none;stop-color:#000000"
         d="m 161.01448,106.16139 c 0,0 15.35625,-4.72291 16.01275,-4.88067 0.6565,-0.15776 2.58885,-0.37777 2.8142,-0.40427 0.22534,-0.0264 0.2925,-0.70498 0.64335,-0.83767 0.35085,-0.132704 1.63388,-0.582154 1.99746,-0.344294 0.36359,0.23788 0.77689,0.406524 0.77689,0.406524"
         id="path6709" />
      <path
         style="font-variation-settings:normal;vector-effect:none;fill:none;fill-opacity:1;stroke:currentColor;stroke-width:1.05833;stroke-linecap:round;stroke-linejoin:round;stroke-miterlimit:4;stroke-dasharray:none;stroke-dashoffset:0;stroke-opacity:1;-inkscape-stroke:none;stop-color:#000000"
         d="m 193.57467,89.950819 c 0.98826,-5.225563 -1.82531,-7.580857 -3.95671,-7.484928 -2.13139,0.09593 -4.9957,0.710739 -7.64576,5.004537 -2.65007,4.293795 -1.23168,12.299038 -1.23168,12.299038"
         id="path6746" />
      <path
         style="font-variation-settings:normal;vector-effect:none;fill:none;fill-opacity:1;stroke:currentColor;stroke-width:1.05833;stroke-linecap:round;stroke-linejoin:round;stroke-miterlimit:4;stroke-dasharray:none;stroke-dashoffset:0;stroke-opacity:1;-inkscape-stroke:none;stop-color:#000000"
         d="m 178.8071,116.79015 -2.85357,13.89065"
         id="path6748" />
      <path
         style="font-variation-settings:normal;vector-effect:none;fill:none;fill-opacity:1;stroke:currentColor;stroke-width:1.05833;stroke-linecap:round;stroke-linejoin:round;stroke-miterlimit:4;stroke-dasharray:none;stroke-dashoffset:0;stroke-opacity:1;-inkscape-stroke:none;stop-color:#000000"
         d="m 183.5313,110.07332 -3.88379,22.10578"
         id="path6750" />
      <path
         id="circle6947"
         style="font-variation-settings:normal;vector-effect:none;fill:none;fill-opacity:1;stroke:currentColor;stroke-width:1.05833;stroke-linecap:round;stroke-linejoin:round;stroke-miterlimit:4;stroke-dasharray:none;stroke-dashoffset:0;stroke-opacity:1;-inkscape-stroke:none;stop-color:#000000"
         d="m 173.57308,129.87356 0.29714,-0.74539 c 0.26229,-0.15156 0.42393,-0.43141 0.42413,-0.73434 -7e-5,-0.0815 -0.0119,-0.16256 -0.035,-0.24069 l 0.45216,-1.13393 c 0.26162,-0.15201 0.42254,-0.43178 0.42238,-0.73435 -5e-5,-0.0808 -0.0117,-0.16133 -0.0345,-0.23893 l 0.45917,-1.15205 c 0.25297,-0.15382 0.4075,-0.42834 0.40778,-0.72441 -4e-5,-0.0752 -0.0102,-0.15004 -0.0298,-0.22258 l 0.37739,-0.94699 c 0.31475,-0.13227 0.51962,-0.44025 0.51994,-0.78166 -1e-5,-0.11767 -0.0245,-0.23406 -0.0719,-0.34176 l 0.42997,-1.07961 c 0.30124,-0.13821 0.49448,-0.43912 0.49483,-0.77055 -1.2e-4,-0.10831 -0.0209,-0.21559 -0.0614,-0.31606 l 0.35228,-0.88273 c 0.3191,-0.13048 0.52758,-0.441 0.52753,-0.78575 -5e-5,-0.12049 -0.0258,-0.23957 -0.0754,-0.34936 l 0.4358,-1.09244 c 0.29581,-0.14065 0.48429,-0.43894 0.48431,-0.76648 8e-5,-0.10446 -0.0191,-0.20805 -0.0566,-0.30554 l 0.40894,-1.02586 c 0.22153,-0.15949 0.35284,-0.4158 0.35286,-0.68877 -4e-5,-0.0534 -0.006,-0.10649 -0.0152,-0.1589 l 0.50943,-1.27707 c 0.23514,-0.1576 0.37625,-0.42205 0.37623,-0.70513 -10e-5,-0.0627 -0.007,-0.12521 -0.021,-0.18636 l 0.3283,-0.82305 m -1.31907,-0.0905 -0.11976,0.30021 c -0.33906,0.11977 -0.56586,0.44019 -0.56609,0.79978 1.7e-4,0.1343 0.0322,0.26665 0.0935,0.38615 l -0.37798,0.94874 c -0.34914,0.1137 -0.58558,0.43902 -0.58595,0.8062 3.1e-4,0.14127 0.0358,0.28022 0.10344,0.40427 l -0.34292,0.85936 c -0.28532,0.14434 -0.46531,0.43679 -0.46562,0.75654 3.1e-4,0.0972 0.0173,0.19364 0.0503,0.28509 l -0.47495,1.19118 c -0.25999,0.15218 -0.41986,0.43076 -0.42004,0.73201 1.5e-4,0.0799 0.0115,0.15934 0.0339,0.23602 l -0.39726,0.99723 c -0.27956,0.14637 -0.45485,0.43573 -0.4551,0.75129 1.6e-4,0.0935 0.0157,0.18621 0.0461,0.27457 l -0.47086,1.18009 c -0.26478,0.15103 -0.42823,0.43245 -0.42823,0.73726 2.1e-4,0.0831 0.0127,0.16582 0.0369,0.24537 l -0.36513,0.91602 h -5.9e-4 c -0.32484,0.12752 -0.53852,0.44087 -0.53863,0.78984 1.7e-4,0.12441 0.0277,0.24728 0.0806,0.35987 l -0.38733,0.97153 c -0.31782,0.13079 -0.5254,0.44032 -0.52577,0.78399 1.7e-4,0.11965 0.0257,0.2379 0.0747,0.34702 l -0.39025,0.97795 c -0.31712,0.13133 -0.52394,0.44075 -0.52402,0.784 2.4e-4,0.11902 0.0256,0.23665 0.0742,0.34527 l -0.28741,0.72069" />
      <path
         style="font-variation-settings:normal;vector-effect:none;fill:none;fill-opacity:1;stroke:currentColor;stroke-width:1.05833;stroke-linecap:round;stroke-linejoin:round;stroke-miterlimit:4;stroke-dasharray:none;stroke-dashoffset:0;stroke-opacity:1;-inkscape-stroke:none;stop-color:#000000"
         d="m 167.40043,67.772113 30.32339,32.024513"
         id="path9000" />
      <path
         style="font-variation-settings:normal;vector-effect:none;fill:none;fill-opacity:1;stroke:currentColor;stroke-width:1.05833;stroke-linecap:round;stroke-linejoin:round;stroke-miterlimit:4;stroke-dasharray:none;stroke-dashoffset:0;stroke-opacity:1;-inkscape-stroke:none;stop-color:#000000"
         d="m 165.1283,73.1031 35.63431,28.78436"
         id="path9002" />
      <path
         style="font-variation-settings:normal;vector-effect:none;fill:none;fill-opacity:1;stroke:currentColor;stroke-width:1.05833;stroke-linecap:round;stroke-linejoin:round;stroke-miterlimit:4;stroke-dasharray:none;stroke-dashoffset:0;stroke-opacity:1;-inkscape-stroke:none;stop-color:#000000"
         d="m 164.70115,82.675278 16.63179,16.133468"
         id="path9004" />
      <path
         style="font-variation-settings:normal;vector-effect:none;fill:none;fill-opacity:1;stroke:currentColor;stroke-width:1.05833;stroke-linecap:round;stroke-linejoin:round;stroke-miterlimit:4;stroke-dasharray:none;stroke-dashoffset:0;stroke-opacity:1;-inkscape-stroke:none;stop-color:#000000"
         d="m 154.3023,120.12867 25.6762,-16.11749 10.4655,-6.588211"
         id="path9006" />
      <path
         style="font-variation-settings:normal;vector-effect:none;fill:none;fill-opacity:1;stroke:currentColor;stroke-width:1.05833;stroke-linecap:round;stroke-linejoin:round;stroke-miterlimit:4;stroke-dasharray:none;stroke-dashoffset:0;stroke-opacity:1;-inkscape-stroke:none;stop-color:#000000"
         d="M 190.65769,97.215829 216.35916,62.580443"
         id="path9008" />
      <path
         style="font-variation-settings:normal;vector-effect:none;fill:none;fill-opacity:1;stroke:currentColor;stroke-width:1.05833;stroke-linecap:round;stroke-linejoin:round;stroke-miterlimit:4;stroke-dasharray:none;stroke-dashoffset:0;stroke-opacity:1;-inkscape-stroke:none;stop-color:#000000"
         d="m 198.07808,46.98418 -1.98933,50.041969"
         id="path9010" />
      <path
         style="font-variation-settings:normal;vector-effect:none;fill:none;fill-opacity:1;stroke:currentColor;stroke-width:1.05833;stroke-linecap:round;stroke-linejoin:round;stroke-miterlimit:4;stroke-dasharray:none;stroke-dashoffset:0;stroke-opacity:1;-inkscape-stroke:none;stop-color:#000000"
         d="m 194.42777,45.898654 6.85964,50.346505"
         id="path9012" />
      <path
         style="font-variation-settings:normal;vector-effect:none;fill:none;fill-opacity:1;stroke:currentColor;stroke-width:1.05833;stroke-linecap:round;stroke-linejoin:round;stroke-miterlimit:4;stroke-dasharray:none;stroke-dashoffset:0;stroke-opacity:1;-inkscape-stroke:none;stop-color:#000000"
         d="m 189.98668,46.364537 -1.64683,52.026499"
         id="path9014" />
      <path
         style="font-variation-settings:normal;vector-effect:none;fill:none;fill-opacity:1;stroke:currentColor;stroke-width:1.05833;stroke-linecap:round;stroke-linejoin:round;stroke-miterlimit:4;stroke-dasharray:none;stroke-dashoffset:0;stroke-opacity:1;-inkscape-stroke:none;stop-color:#000000"
         d="M 218.1553,67.300068 204.74167,97.406579"
         id="path9016" />
      <path
         style="font-variation-settings:normal;vector-effect:none;fill:none;fill-opacity:1;stroke:currentColor;stroke-width:1.05833;stroke-linecap:round;stroke-linejoin:round;stroke-miterlimit:4;stroke-dasharray:none;stroke-dashoffset:0;stroke-opacity:1;-inkscape-stroke:none;stop-color:#000000"
         d="M 219.62279,71.331964 198.80722,99.969336"
         id="path9018" />
      <path
         style="font-variation-settings:normal;vector-effect:none;fill:none;fill-opacity:1;stroke:currentColor;stroke-width:1.05833;stroke-linecap:round;stroke-linejoin:round;stroke-miterlimit:4;stroke-dasharray:none;stroke-dashoffset:0;stroke-opacity:1;-inkscape-stroke:none;stop-color:#000000"
         d="m 159.30805,124.1369 33.21758,-16.45338"
         id="path9020" />
      <path
         style="font-variation-settings:normal;vector-effect:none;fill:none;fill-opacity:1;stroke:currentColor;stroke-width:1.05833;stroke-linecap:round;stroke-linejoin:round;stroke-miterlimit:4;stroke-dasharray:none;stroke-dashoffset:0;stroke-opacity:1;-inkscape-stroke:none;stop-color:#000000"
         d="m 164.81118,126.41894 11.77209,-8.20857"
         id="path9022" />
      <path
         style="font-variation-settings:normal;vector-effect:none;fill:none;fill-opacity:1;stroke:currentColor;stroke-width:1.05833;stroke-linecap:round;stroke-linejoin:round;stroke-miterlimit:4;stroke-dasharray:none;stroke-dashoffset:0;stroke-opacity:1;-inkscape-stroke:none;stop-color:#000000"
         d="m 180.02363,115.91533 11.05915,-7.2072"
         id="path9024" />
      <path
         style="font-variation-settings:normal;vector-effect:none;fill:none;fill-opacity:1;stroke:currentColor;stroke-width:1.05833;stroke-linecap:round;stroke-linejoin:round;stroke-miterlimit:4;stroke-dasharray:none;stroke-dashoffset:0;stroke-opacity:1;-inkscape-stroke:none;stop-color:#000000"
         d="m 186.45477,109.53185 -5.39585,22.66553"
         id="path9026" />
      <path
         style="font-variation-settings:normal;vector-effect:none;fill:none;fill-opacity:1;stroke:currentColor;stroke-width:1.05833;stroke-linecap:round;stroke-linejoin:round;stroke-miterlimit:4;stroke-dasharray:none;stroke-dashoffset:0;stroke-opacity:1;-inkscape-stroke:none;stop-color:#000000"
         d="m 194.19976,107.54425 -6.67806,28.73392"
         id="path9028" />
      <path
         style="font-variation-settings:normal;vector-effect:none;fill:none;fill-opacity:1;stroke:currentColor;stroke-width:1.05833;stroke-linecap:round;stroke-linejoin:round;stroke-miterlimit:4;stroke-dasharray:none;stroke-dashoffset:0;stroke-opacity:1;-inkscape-stroke:none;stop-color:#000000"
         d="m 200.09518,107.74843 -13.0332,28.65134"
         id="path9030" />
      <path
         style="font-variation-settings:normal;vector-effect:none;fill:none;fill-opacity:1;stroke:currentColor;stroke-width:1.05833;stroke-linecap:round;stroke-linejoin:round;stroke-miterlimit:4;stroke-dasharray:none;stroke-dashoffset:0;stroke-opacity:1;-inkscape-stroke:none;stop-color:#000000"
         d="m 190.17813,108.8437 13.4607,32.32812"
         id="path9032" />
      <path
         style="font-variation-settings:normal;vector-effect:none;fill:none;fill-opacity:1;stroke:currentColor;stroke-width:1.05833;stroke-linecap:round;stroke-linejoin:round;stroke-miterlimit:4;stroke-dasharray:none;stroke-dashoffset:0;stroke-opacity:1;-inkscape-stroke:none;stop-color:#000000"
         d="M 209.15405,134.80611 198.05828,106.39104"
         id="path9034" />
      <path
         style="font-variation-settings:normal;vector-effect:none;fill:none;fill-opacity:1;stroke:currentColor;stroke-width:1.05833;stroke-linecap:round;stroke-linejoin:round;stroke-miterlimit:4;stroke-dasharray:none;stroke-dashoffset:0;stroke-opacity:1;-inkscape-stroke:none;stop-color:#000000"
         d="M 206.65317,138.03649 203.61792,113.421"
         id="path9036" />
      <path
         style="font-variation-settings:normal;vector-effect:none;fill:none;fill-opacity:1;stroke:currentColor;stroke-width:1.05833;stroke-linecap:round;stroke-linejoin:round;stroke-miterlimit:4;stroke-dasharray:none;stroke-dashoffset:0;stroke-opacity:1;-inkscape-stroke:none;stop-color:#000000"
         d="m 200.17119,108.38603 1.37956,0.31594"
         id="path9038" />
      <path
         style="font-variation-settings:normal;vector-effect:none;fill:none;fill-opacity:1;stroke:currentColor;stroke-width:1.05833;stroke-linecap:round;stroke-linejoin:round;stroke-miterlimit:4;stroke-dasharray:none;stroke-dashoffset:0;stroke-opacity:1;-inkscape-stroke:none;stop-color:#000000"
         d="m 204.9434,108.92423 15.10091,0.75222"
         id="path9040" />
      <path
         style="font-variation-settings:normal;vector-effect:none;fill:none;fill-opacity:1;stroke:currentColor;stroke-width:1.05833;stroke-linecap:round;stroke-linejoin:round;stroke-miterlimit:4;stroke-dasharray:none;stroke-dashoffset:0;stroke-opacity:1;-inkscape-stroke:none;stop-color:#000000"
         d="m 211.14489,103.97741 10.00045,0.90301"
         id="path9042" />
      <path
         style="font-variation-settings:normal;vector-effect:none;fill:none;fill-opacity:1;stroke:currentColor;stroke-width:1.05833;stroke-linecap:round;stroke-linejoin:round;stroke-miterlimit:4;stroke-dasharray:none;stroke-dashoffset:0;stroke-opacity:1;-inkscape-stroke:none;stop-color:#000000"
         d="m 196.20913,96.905779 4.29934,0.57844"
         id="path9044" />
      <path
         style="font-variation-settings:normal;vector-effect:none;fill:none;fill-opacity:1;stroke:currentColor;stroke-width:1.05833;stroke-linecap:round;stroke-linejoin:round;stroke-miterlimit:4;stroke-dasharray:none;stroke-dashoffset:0;stroke-opacity:1;-inkscape-stroke:none;stop-color:#000000"
         d="m 204.46806,97.977639 17.21259,2.253821"
         id="path9046" />
      <path
         style="font-variation-settings:normal;vector-effect:none;fill:none;fill-opacity:1;stroke:currentColor;stroke-width:1.05833;stroke-linecap:round;stroke-linejoin:round;stroke-miterlimit:4;stroke-dasharray:none;stroke-dashoffset:0;stroke-opacity:1;-inkscape-stroke:none;stop-color:#000000"
         d="m 218.51893,115.69511 c 0,0 -1.29026,-0.82502 -1.42114,-0.97754 -0.13087,-0.15251 -0.0887,-0.76111 0.32202,-0.74208 0.41077,0.019 1.47924,0.65377 1.47924,0.65377"
         id="path9048" />
      <path
         style="font-variation-settings:normal;vector-effect:none;fill:none;fill-opacity:1;stroke:currentColor;stroke-width:1.05833;stroke-linecap:round;stroke-linejoin:round;stroke-miterlimit:4;stroke-dasharray:none;stroke-dashoffset:0;stroke-opacity:1;-inkscape-stroke:none;stop-color:#000000"
         d="m 166.93983,63.292737 c 18.55479,-26.847908 39.72593,-18.817746 48.69645,-2.272302 8.07241,14.888963 8.99102,37.373641 3.08367,54.405665 -5.82454,16.79331 -10.63675,22.4441 -18.99443,29.84378"
         id="path9050" />
      <path
         style="font-variation-settings:normal;vector-effect:none;fill:none;fill-opacity:1;stroke:currentColor;stroke-width:1.05833;stroke-linecap:round;stroke-linejoin:round;stroke-miterlimit:4;stroke-dasharray:none;stroke-dashoffset:0;stroke-opacity:1;-inkscape-stroke:none;stop-color:#000000"
         d="M 204.24793,150.10532 C 231.14325,125.61429 230.8438,87.160844 227.90578,73.064729 225.66055,62.292504 215.66357,29.066333 185.659,35.095445 c -9.42362,1.893576 -17.86852,9.377284 -24.2742,17.904008"
         id="path10157" />
      <path
         style="font-variation-settings:normal;vector-effect:none;fill:none;fill-opacity:1;stroke:currentColor;stroke-width:1.05833;stroke-linecap:round;stroke-linejoin:round;stroke-miterlimit:4;stroke-dasharray:none;stroke-dashoffset:0;stroke-opacity:1;-inkscape-stroke:none;stop-color:#000000"
         d="m 163.66927,59.708737 c 16.79651,-27.485518 41.85108,-24.754616 53.16069,-8.059683 15.92659,23.510364 10.51039,54.510836 4.81822,69.379486 -4.45915,11.64788 -9.62456,19.88716 -18.43932,27.842"
         id="path10439" />
      <path
         style="font-variation-settings:normal;opacity:1;vector-effect:none;fill:none;fill-opacity:1;stroke:currentColor;stroke-width:1.05833;stroke-linecap:round;stroke-linejoin:round;stroke-miterlimit:4;stroke-dasharray:none;stroke-dashoffset:0;stroke-opacity:1;-inkscape-stroke:none;stop-color:#000000;stop-opacity:1"
         d="m 163.03371,64.88849 c 0,0 0.2995,0.992568 0.2995,2.930458 0,1.93789 -0.46751,18.018631 -0.54066,19.329594 -0.0731,1.310963 0.0131,9.534157 -0.6072,13.883628 -0.62036,4.34946 -6.43816,14.84473 -13.66837,18.8076 -7.23022,3.96288 -15.13099,3.5699 -20.05994,0.14295 -3.67992,-2.55853 -8.74998,-7.05096 -13.40839,-27.086777 -0.37591,-1.989447 -1.21275,-2.21035 -1.5332,-3.203945 -0.32046,-0.993594 -1.02309,-4.491292 -1.02309,-5.492487 0,-1.001195 -0.94703,-5.212658 -0.72848,-6.631874 0.21856,-1.419214 0.29334,-2.100149 0.75285,-2.305359 0.45951,-0.205211 1.27993,-0.188465 1.27993,-0.188465 0,0 0.006,-5.027544 -0.0678,-6.601025 -0.0729,-1.573483 -0.50943,-4.841027 0.21773,-6.48127 0.72717,-1.640242 5.97432,-12.19572 7.9615,-13.902517 1.98719,-1.706797 9.53025,-4.787208 19.36266,-5.692268 9.83243,-0.905061 19.07077,10.064947 19.65559,10.640726 2.53056,3.421811 2.70147,7.245824 2.70147,7.245824 0,0 3.59416,3.088422 3.67612,5.610307 0.082,2.521886 -3.51746,2.783049 -3.51746,2.783049 -0.35552,-1.491526 -0.38822,-3.128892 -0.75273,-3.788149 z"
         id="path11616" />
      <path
         style="font-variation-settings:normal;vector-effect:none;fill:none;fill-opacity:1;stroke:currentColor;stroke-width:1.05833;stroke-linecap:round;stroke-linejoin:round;stroke-miterlimit:4;stroke-dasharray:none;stroke-dashoffset:0;stroke-opacity:1;-inkscape-stroke:none;stop-color:#000000"
         d="M 66.423175,104.83501 C 72.218676,94.34123 89.020061,71.892402 92.97238,62.553414 96.446856,54.343529 98.063417,50.242257 98.063417,50.242257"
         id="path16637" />
      <path
         style="font-variation-settings:normal;vector-effect:none;fill:none;fill-opacity:1;stroke:currentColor;stroke-width:1.05833;stroke-linecap:round;stroke-linejoin:round;stroke-miterlimit:4;stroke-dasharray:none;stroke-dashoffset:0;stroke-opacity:1;-inkscape-stroke:none;stop-color:#000000"
         d="m 115.12875,75.708567 c 0,0 1.58851,-6.734155 3.75194,-9.529245 2.16344,-2.795089 2.42801,-4.018131 2.42801,-4.018131"
         id="path12261" />
      <path
         style="font-variation-settings:normal;vector-effect:none;fill:none;fill-opacity:1;stroke:currentColor;stroke-width:1.05833;stroke-linecap:round;stroke-linejoin:round;stroke-miterlimit:4;stroke-dasharray:none;stroke-dashoffset:0;stroke-opacity:1;-inkscape-stroke:none;stop-color:#000000"
         d="m 120.96307,62.164003 c 9.02468,-4.649322 22.03859,-7.860891 33.56101,-3.517855 3.79694,1.485295 8.27055,2.838963 8.77433,7.31688"
         id="path12263" />
      <path
         style="font-variation-settings:normal;vector-effect:none;fill:none;fill-opacity:1;stroke:currentColor;stroke-width:1.05833;stroke-linecap:round;stroke-linejoin:round;stroke-miterlimit:4;stroke-dasharray:none;stroke-dashoffset:0;stroke-opacity:1;-inkscape-stroke:none;stop-color:#000000"
         d="m 121.0659,60.230695 c 6.73957,-6.385593 12.21311,-9.197564 21.7068,-9.337404 8.66695,0.07178 15.55307,4.459353 20.77409,9.349331"
         id="path12308" />
      <path
         style="font-variation-settings:normal;opacity:1;vector-effect:none;fill:none;fill-opacity:1;stroke:currentColor;stroke-width:1.05833;stroke-linecap:round;stroke-linejoin:round;stroke-miterlimit:4;stroke-dasharray:none;stroke-dashoffset:0;stroke-opacity:1;-inkscape-stroke:none;stop-color:#000000;stop-opacity:1"
         d="M 122.34789,48.44391 C 122.19493,54.156616 120.434,63.851426 120.434,63.851426"
         id="path17746" />
      <path
         style="font-variation-settings:normal;opacity:1;vector-effect:none;fill:none;fill-opacity:1;stroke:currentColor;stroke-width:1.05833;stroke-linecap:round;stroke-linejoin:round;stroke-miterlimit:4;stroke-dasharray:none;stroke-dashoffset:0;stroke-opacity:1;-inkscape-stroke:none;stop-color:#000000;stop-opacity:1"
         d="m 112.47564,101.3015 c 0.90026,-0.95691 1.5488,-1.23565 2.00619,-1.384394 0.45739,-0.14874 1.77555,0.0592 1.77555,0.0592"
         id="path20113" />
      <path
         style="font-variation-settings:normal;opacity:1;vector-effect:none;fill:none;fill-opacity:1;stroke:currentColor;stroke-width:1.05833;stroke-linecap:round;stroke-linejoin:round;stroke-miterlimit:4;stroke-dasharray:none;stroke-dashoffset:0;stroke-opacity:1;-inkscape-stroke:none;stop-color:#000000;stop-opacity:1"
         d="m 200.76492,99.582206 c -1.23598,1.010644 -5.1523,0.31808 -5.47864,0.26521 -0.32635,-0.0529 -0.978,-1.577807 -2.16378,-1.666827 -1.18579,-0.089 -3.38014,1.234317 -3.92893,3.289251 -0.54879,2.05493 -0.14293,3.46812 -0.14293,3.46812"
         id="path21471" />
      <path
         style="font-variation-settings:normal;opacity:1;vector-effect:none;fill:none;fill-opacity:1;stroke:currentColor;stroke-width:1.05833;stroke-linecap:round;stroke-linejoin:round;stroke-miterlimit:4;stroke-dasharray:none;stroke-dashoffset:0;stroke-opacity:1;-inkscape-stroke:none;stop-color:#000000;stop-opacity:1"
         d="m 183.89916,99.604196 c -0.26854,-0.28534 -0.53709,-0.57069 -0.80563,-0.85602 0.0927,-0.751267 1.37861,0.012 1.29922,-0.966897 0.007,-0.50164 -0.67154,-1.40284 0.27628,-1.37353 0.97874,0.22712 0.67094,-0.964023 0.50436,-1.506798 -0.0982,-0.863317 1.23451,0.0251 1.18944,-0.875571 0.1663,-0.36687 -0.23608,-1.68545 0.51361,-1.140255 0.3449,0.39252 0.57562,-0.112259 0.62695,-0.414385"
         id="path21824" />
      <path
         style="font-variation-settings:normal;opacity:1;vector-effect:none;fill:none;fill-opacity:1;stroke:currentColor;stroke-width:1.05833;stroke-linecap:round;stroke-linejoin:round;stroke-miterlimit:4;stroke-dasharray:none;stroke-dashoffset:0;stroke-opacity:1;-inkscape-stroke:none;stop-color:#000000;stop-opacity:1"
         d="m 189.30995,90.568005 c 0.30365,-0.138874 0.45874,0.07077 0.46275,0.341989 0.71865,0.196531 0.52547,-0.731148 0.87825,-1.054885 0.47808,-0.319558 0.15634,0.787053 0.65919,0.660599 0.15533,-0.01829 0.39679,0.07909 0.3898,-0.157179 0.0659,-0.220303 0.1319,-0.440607 0.19784,-0.660911 0.67655,-0.296412 0.52459,0.538803 0.80817,0.867467 0.4576,0.199921 0.81098,-0.373955 1.23967,-0.465486 0.31344,0.167544 -0.20937,1.020241 0.4154,1.120696"
         id="path21981" />
      <path
         style="font-variation-settings:normal;opacity:1;vector-effect:none;fill:none;fill-opacity:1;stroke:currentColor;stroke-width:1.05833;stroke-linecap:round;stroke-linejoin:round;stroke-miterlimit:4;stroke-dasharray:none;stroke-dashoffset:0;stroke-opacity:1;-inkscape-stroke:none;stop-color:#000000;stop-opacity:1"
         d="m 195.03243,91.772894 0.79066,0.348443"
         id="path22352" />
      <path
         style="font-variation-settings:normal;opacity:1;vector-effect:none;fill:none;fill-opacity:1;stroke:currentColor;stroke-width:1.05833;stroke-linecap:round;stroke-linejoin:round;stroke-miterlimit:4;stroke-dasharray:none;stroke-dashoffset:0;stroke-opacity:1;-inkscape-stroke:none;stop-color:#000000;stop-opacity:1"
         d="m 196.76886,93.227914 c 0.54311,-0.314968 0.46296,0.465348 0.24922,0.734214 -0.0858,0.492581 0.41406,0.791203 0.82906,0.695178 0.41012,0.495746 -0.43887,0.943363 -0.13335,1.458713 0.17485,0.49166 1.12383,0.28145 0.85128,0.99929 -0.17385,0.36506 -0.89007,1.10826 -0.16607,1.279547 0.68853,0.13712 -0.0642,0.94327 -0.26079,1.21034"
         id="path22736" />
      <path
         style="font-variation-settings:normal;opacity:1;vector-effect:none;fill:none;fill-opacity:1;stroke:currentColor;stroke-width:1.05833;stroke-linecap:round;stroke-linejoin:round;stroke-miterlimit:4;stroke-dasharray:none;stroke-dashoffset:0;stroke-opacity:1;-inkscape-stroke:none;stop-color:#000000;stop-opacity:1"
         d="m 183.57788,105.77231 -0.32283,-0.26935 0.32655,-1.15428 -0.67272,-0.82071 0.66414,-0.68625 -0.0546,-0.44273 -0.10084,-1.78456 0.34349,-0.48363"
         id="path22894" />
      <path
         style="font-variation-settings:normal;opacity:1;vector-effect:none;fill:none;fill-opacity:1;stroke:currentColor;stroke-width:1.05833;stroke-linecap:round;stroke-linejoin:round;stroke-miterlimit:4;stroke-dasharray:none;stroke-dashoffset:0;stroke-opacity:1;-inkscape-stroke:none;stop-color:#000000;stop-opacity:1"
         d="m 184.64913,109.76991 0.56718,1.0631"
         id="path22939" />
      <path
         style="font-variation-settings:normal;opacity:1;vector-effect:none;fill:none;fill-opacity:1;stroke:currentColor;stroke-width:1.05833;stroke-linecap:round;stroke-linejoin:round;stroke-miterlimit:4;stroke-dasharray:none;stroke-dashoffset:0;stroke-opacity:1;-inkscape-stroke:none;stop-color:#000000;stop-opacity:1"
         d="m 186.74909,112.21851 c 0.19302,0.1688 0.50665,0.28279 0.6289,0.48375 -0.0303,0.27046 -0.0607,0.54094 -0.091,0.8114 0.42344,-0.42549 1.421,-0.87361 1.38796,0.0869 -0.038,0.99883 1.03955,-1.23612 1.2678,-0.0793 0.0797,0.338 0.13092,0.83654 0.37257,0.26521 0.16179,-0.52359 0.92286,-0.94118 1.1603,-0.28468 0.35277,0.4131 0.50725,-0.92057 1.08878,-0.8401 0.48215,-0.5247 1.66524,0.80636 1.30455,-0.29976 -0.19171,-0.80231 0.78049,-0.67041 1.2635,-0.45216 -0.1963,-0.56119 -0.37681,-1.52022 0.53594,-1.16688 1.06242,0.41491 -0.51862,-1.51122 0.73489,-1.30648 0.51137,0.18332 0.71781,0.0971 0.39398,-0.41651 -0.35206,-0.6999 0.40213,-0.93508 0.96071,-0.82115 -0.26567,-0.42371 -0.66869,-0.83648 -0.46752,-1.36505 0.006,-0.0439 0.0122,-0.0876 0.0183,-0.13148"
         id="path24575" />
      <path
         style="font-variation-settings:normal;opacity:1;vector-effect:none;fill:none;fill-opacity:1;stroke:currentColor;stroke-width:1.05833;stroke-linecap:round;stroke-linejoin:round;stroke-miterlimit:4;stroke-dasharray:none;stroke-dashoffset:0;stroke-opacity:1;-inkscape-stroke:none;stop-color:#000000;stop-opacity:1"
         d="m 113.51929,75.032514 c 1.74739,0.808216 1.84177,1.640185 1.84177,1.640185"
         id="path25320" />
      <path
         style="font-variation-settings:normal;opacity:1;vector-effect:none;fill:none;fill-opacity:1;stroke:currentColor;stroke-width:1.05833;stroke-linecap:round;stroke-linejoin:round;stroke-miterlimit:4;stroke-dasharray:none;stroke-dashoffset:0;stroke-opacity:1;-inkscape-stroke:none;stop-color:#000000;stop-opacity:1"
         d="M 60.186306,234.8284 88.431119,217.74061"
         id="path26806" />
      <path
         style="font-variation-settings:normal;opacity:1;vector-effect:none;fill:none;fill-opacity:1;stroke:currentColor;stroke-width:1.05833;stroke-linecap:round;stroke-linejoin:round;stroke-miterlimit:4;stroke-dasharray:none;stroke-dashoffset:0;stroke-opacity:1;-inkscape-stroke:none;stop-color:#000000;stop-opacity:1"
         d="m 82.715981,234.7716 6.12059,-3.8116"
         id="path26808" />
    </g>
  </g>
</svg>
