<?xml version="1.0" encoding="UTF-8" standalone="no"?>
<!-- Created with Inkscape (http://www.inkscape.org/) -->

<svg
   width="1000"
   height="1000"
   viewBox="0 0 264.58333 264.58334"
   version="1.1"
   id="svg890"
   xmlns="http://www.w3.org/2000/svg">
  <defs
     id="defs887" />
  <g
     id="layer1">
    <path
       style="fill:none;stroke:currentColor;stroke-width:1.05833;stroke-linecap:round;stroke-linejoin:round;stroke-miterlimit:4;stroke-dasharray:none;stroke-opacity:1"
       d="m 30.859797,207.40139 c 0,0 1.450401,0.33451 3.37094,5.74755 1.920539,5.41305 1.471205,8.00606 1.471205,8.00606 L 161.13609,179.78425"
       id="path3327" />
    <path
       style="fill:none;stroke:currentColor;stroke-width:1.05833;stroke-linecap:round;stroke-linejoin:round;stroke-miterlimit:4;stroke-dasharray:none;stroke-opacity:1"
       d="M 30.859797,207.40139 155.26843,165.13664"
       id="path3329" />
    <path
       style="fill:none;stroke:currentColor;stroke-width:1.05833;stroke-linecap:round;stroke-linejoin:round;stroke-miterlimit:4;stroke-dasharray:none;stroke-opacity:1"
       d="m 154.8565,165.01745 c 2.72018,-0.15981 4.42166,3.84781 5.54205,7.15939 1.12038,3.31159 0.74248,7.65877 0.74248,7.65877"
       id="path3806" />
    <path
       style="fill:none;stroke:currentColor;stroke-width:1.05833;stroke-linecap:round;stroke-linejoin:round;stroke-miterlimit:4;stroke-dasharray:none;stroke-opacity:1"
       d="m 155.60409,164.6338 c 0.4987,-0.92315 2.63656,-1.33944 5.2719,3.93939 2.63534,5.27884 1.64172,11.24727 1.64172,11.24727"
       id="path3808" />
    <path
       style="fill:none;stroke:currentColor;stroke-width:1.05833;stroke-linecap:round;stroke-linejoin:round;stroke-miterlimit:4;stroke-dasharray:none;stroke-opacity:1"
       d="m 227.87181,141.27901 c 0.56681,-0.11319 1.28773,0.2007 1.6473,0.45886 3.38016,2.42685 4.46025,6.07204 4.6754,9.18593"
       id="path5821" />
    <path
       style="fill:none;stroke:currentColor;stroke-width:1.05833;stroke-linecap:round;stroke-linejoin:round;stroke-miterlimit:4;stroke-dasharray:none;stroke-opacity:1"
       d="m 161.088,180.43165 c 0.0733,-0.0104 5.92205,-1.84475 14.2778,-4.47181"
       id="path6140" />
    <path
       style="fill:none;stroke:currentColor;stroke-width:1.05833;stroke-linecap:round;stroke-linejoin:round;stroke-miterlimit:4;stroke-dasharray:none;stroke-opacity:1"
       d="m 227.73356,141.30329 -71.50105,22.75705"
       id="path6142" />
    <path
       style="fill:none;stroke:currentColor;stroke-width:1.05833;stroke-linecap:round;stroke-linejoin:round;stroke-miterlimit:4;stroke-dasharray:none;stroke-opacity:1"
       d="m 30.721101,207.28635 c -3.603664,1.57013 -2.193649,3.57409 -1.858941,4.95821 0.334706,1.38411 2.066782,6.99112 2.924458,7.9212 0.857673,0.93008 1.668643,1.48528 2.099826,1.51832 0.431181,0.033 1.861185,-0.52827 1.861185,-0.52827"
       id="path7591" />
    <path
       style="fill:none;stroke:currentColor;stroke-width:1.05833;stroke-linecap:round;stroke-linejoin:round;stroke-miterlimit:4;stroke-dasharray:none;stroke-opacity:1"
       d="m 29.383495,208.07897 c 3.78764,3.97957 4.304287,11.31274 4.304287,11.31274"
       id="path7593" />
    <path
       style="font-variation-settings:normal;opacity:1;vector-effect:none;fill:none;fill-opacity:1;stroke:currentColor;stroke-width:1.05833;stroke-linecap:round;stroke-linejoin:round;stroke-miterlimit:4;stroke-dasharray:none;stroke-dashoffset:0;stroke-opacity:1;-inkscape-stroke:none;stop-color:#000000;stop-opacity:1"
       d="m 174.09511,174.3178 2.51418,-0.84213 m 4.80193,-1.6084 52.3116,-17.52181"
       id="path20733" />
    <path
       style="font-variation-settings:normal;opacity:1;fill:none;fill-opacity:1;stroke:currentColor;stroke-width:1.05833;stroke-linecap:round;stroke-linejoin:round;stroke-miterlimit:4;stroke-dasharray:none;stroke-dashoffset:0;stroke-opacity:1;stop-color:#000000;stop-opacity:1"
       d="m 168.18216,160.67695 c 6.07651,5.58095 5.75316,15.4477 5.75316,15.4477"
       id="path7808" />
    <path
       style="font-variation-settings:normal;opacity:1;fill:none;fill-opacity:1;stroke:currentColor;stroke-width:1.05833;stroke-linecap:round;stroke-linejoin:round;stroke-miterlimit:4;stroke-dasharray:none;stroke-dashoffset:0;stroke-opacity:1;stop-color:#000000;stop-opacity:1"
       d="m 43.644927,44.411631 10.944981,2.965275 5.761519,5.236538 -0.03375,1.88993 -10.544323,3.198055 -5.837092,-4.785399 z"
       id="path7993" />
    <path
       style="font-variation-settings:normal;opacity:1;fill:none;fill-opacity:1;stroke:currentColor;stroke-width:1.05833;stroke-linecap:round;stroke-linejoin:round;stroke-miterlimit:4;stroke-dasharray:none;stroke-dashoffset:0;stroke-opacity:1;stop-color:#000000;stop-opacity:1"
       d="m 44.211733,45.232273 5.135004,4.690502 10.055686,2.433081"
       id="path7995" />
    <path
       style="font-variation-settings:normal;opacity:1;fill:none;fill-opacity:1;stroke:currentColor;stroke-width:1.05833;stroke-linecap:round;stroke-linejoin:round;stroke-miterlimit:4;stroke-dasharray:none;stroke-dashoffset:0;stroke-opacity:1;stop-color:#000000;stop-opacity:1"
       d="m 49.228183,50.677649 0.57142,6.482358"
       id="path7997" />
    <path
       style="font-variation-settings:normal;opacity:1;fill:none;fill-opacity:1;stroke:currentColor;stroke-width:1.05833;stroke-linecap:round;stroke-linejoin:round;stroke-miterlimit:4;stroke-dasharray:none;stroke-dashoffset:0;stroke-opacity:1;stop-color:#000000;stop-opacity:1"
       d="m 75.463946,42.735731 -0.276336,-2.717207 9.620702,-8.481322 5.490953,4.82463 0.9216,8.013741 -9.971461,3.645154 z"
       id="path7999" />
    <path
       style="font-variation-settings:normal;opacity:1;fill:none;fill-opacity:1;stroke:currentColor;stroke-width:1.05833;stroke-linecap:round;stroke-linejoin:round;stroke-miterlimit:4;stroke-dasharray:none;stroke-dashoffset:0;stroke-opacity:1;stop-color:#000000;stop-opacity:1"
       d="m 75.756435,40.560234 4.796649,4.692809 9.295331,-8.668527"
       id="path8001" />
    <path
       style="font-variation-settings:normal;opacity:1;fill:none;fill-opacity:1;stroke:currentColor;stroke-width:1.05833;stroke-linecap:round;stroke-linejoin:round;stroke-miterlimit:4;stroke-dasharray:none;stroke-dashoffset:0;stroke-opacity:1;stop-color:#000000;stop-opacity:1"
       d="m 80.931534,45.850713 0.266528,1.720609"
       id="path8003" />
    <path
       style="font-variation-settings:normal;opacity:1;fill:none;fill-opacity:1;stroke:currentColor;stroke-width:1.05833;stroke-linecap:round;stroke-linejoin:round;stroke-miterlimit:4;stroke-dasharray:none;stroke-dashoffset:0;stroke-opacity:1;stop-color:#000000;stop-opacity:1"
       d="m 44.03347,53.399183 1.593403,13.819105 5.837669,4.14533 41.172323,-14.261301 -1.51465,-12.584247 -9.874541,3.561215 -5.928241,-5.30865 -9.162934,13.702281 -5.753441,-3.388431"
       id="path8005" />
    <path
       style="font-variation-settings:normal;opacity:1;fill:none;fill-opacity:1;stroke:currentColor;stroke-width:1.05833;stroke-linecap:round;stroke-linejoin:round;stroke-miterlimit:4;stroke-dasharray:none;stroke-dashoffset:0;stroke-opacity:1;stop-color:#000000;stop-opacity:1"
       d="M 60.245277,55.036144 72.06686,62.019826 81.117007,48.488884"
       id="path8007" />
    <path
       style="font-variation-settings:normal;opacity:1;fill:none;fill-opacity:1;stroke:currentColor;stroke-width:1.05833;stroke-linecap:round;stroke-linejoin:round;stroke-miterlimit:4;stroke-dasharray:none;stroke-dashoffset:0;stroke-opacity:1;stop-color:#000000;stop-opacity:1"
       d="m 49.811142,58.365443 1.449755,12.246758"
       id="path8009" />
    <path
       style="font-variation-settings:normal;opacity:1;fill:none;fill-opacity:1;stroke:currentColor;stroke-width:1.05833;stroke-linecap:round;stroke-linejoin:round;stroke-miterlimit:4;stroke-dasharray:none;stroke-dashoffset:0;stroke-opacity:1;stop-color:#000000;stop-opacity:1"
       d="m 102.46966,90.45086 -0.28991,-3.98655 -9.439275,-28.920086 m -47.099756,10.145972 1.17688,12.246758 5.647293,3.85803 29.458814,12.854179 18.594084,-7.161887"
       id="path8011" />
    <path
       style="font-variation-settings:normal;opacity:1;fill:none;fill-opacity:1;stroke:currentColor;stroke-width:1.05833;stroke-linecap:round;stroke-linejoin:round;stroke-miterlimit:4;stroke-dasharray:none;stroke-dashoffset:0;stroke-opacity:1;stop-color:#000000;stop-opacity:1"
       d="m 51.499734,71.878791 0.73728,11.375636"
       id="path8013" />
    <path
       style="font-variation-settings:normal;opacity:1;fill:none;fill-opacity:1;stroke:currentColor;stroke-width:1.05833;stroke-linecap:round;stroke-linejoin:round;stroke-miterlimit:4;stroke-dasharray:none;stroke-dashoffset:0;stroke-opacity:1;stop-color:#000000;stop-opacity:1"
       d="m 52.238456,71.980325 29.551217,22.69445 19.927637,-7.794808"
       id="path8015" />
    <path
       style="font-variation-settings:normal;opacity:1;fill:none;fill-opacity:1;stroke:currentColor;stroke-width:1.05833;stroke-linecap:round;stroke-linejoin:round;stroke-miterlimit:4;stroke-dasharray:none;stroke-dashoffset:0;stroke-opacity:1;stop-color:#000000;stop-opacity:1"
       d="m 46.885385,80.328093 11.41804,8.556321 23.881427,9.542242 20.261948,-7.693273"
       id="path8017" />
    <path
       style="font-variation-settings:normal;opacity:1;fill:none;fill-opacity:1;stroke:currentColor;stroke-width:1.05833;stroke-linecap:round;stroke-linejoin:round;stroke-miterlimit:4;stroke-dasharray:none;stroke-dashoffset:0;stroke-opacity:1;stop-color:#000000;stop-opacity:1"
       d="m 59.443671,91.539603 -9.687623,3.58631 5.833343,4.8079 8.873037,-3.377761"
       id="path8019" />
    <path
       style="font-variation-settings:normal;opacity:1;fill:none;fill-opacity:1;stroke:currentColor;stroke-width:1.05833;stroke-linecap:round;stroke-linejoin:round;stroke-miterlimit:4;stroke-dasharray:none;stroke-dashoffset:0;stroke-opacity:1;stop-color:#000000;stop-opacity:1"
       d="m 61.489366,90.725017 -1.802818,0.713052 5.417685,5.147116"
       id="path8021" />
    <path
       style="font-variation-settings:normal;opacity:1;fill:none;fill-opacity:1;stroke:currentColor;stroke-width:1.05833;stroke-linecap:round;stroke-linejoin:round;stroke-miterlimit:4;stroke-dasharray:none;stroke-dashoffset:0;stroke-opacity:1;stop-color:#000000;stop-opacity:1"
       d="m 86.899581,97.11132 c 0,0 2.751534,5.51028 4.118214,9.17014 1.36668,3.65987 2.61596,13.54162 2.61596,13.54162 l -10.116837,4.16321 c 0,0 -0.500751,-4.84252 -1.290529,-9.57397 -0.789779,-4.73146 -3.99995,-13.44181 -16.634386,-16.914187 l -0.52325,-4.856358"
       id="path8025" />
    <path
       style="font-variation-settings:normal;opacity:1;fill:none;fill-opacity:1;stroke:currentColor;stroke-width:1.05833;stroke-linecap:round;stroke-linejoin:round;stroke-miterlimit:4;stroke-dasharray:none;stroke-dashoffset:0;stroke-opacity:1;stop-color:#000000;stop-opacity:1"
       d="m 73.82468,95.977419 4.834148,9.644931"
       id="path8027" />
    <path
       style="font-variation-settings:normal;opacity:1;fill:none;fill-opacity:1;stroke:currentColor;stroke-width:1.05833;stroke-linecap:round;stroke-linejoin:round;stroke-miterlimit:4;stroke-dasharray:none;stroke-dashoffset:0;stroke-opacity:1;stop-color:#000000;stop-opacity:1"
       d="m 94.717755,94.351711 c 9.629075,8.388149 8.612285,21.053159 8.612285,21.053159"
       id="path8029" />
    <path
       style="font-variation-settings:normal;opacity:1;fill:none;fill-opacity:1;stroke:currentColor;stroke-width:1.05833;stroke-linecap:round;stroke-linejoin:round;stroke-miterlimit:4;stroke-dasharray:none;stroke-dashoffset:0;stroke-opacity:1;stop-color:#000000;stop-opacity:1"
       d="m 55.256229,102.754 c 10.048187,0.57459 15.756631,11.83946 16.642176,15.058 0.885544,3.21853 1.989444,9.92473 1.989444,9.92473 l 9.253507,-3.65929"
       id="path8031" />
    <path
       style="font-variation-settings:normal;opacity:1;fill:none;fill-opacity:1;stroke:currentColor;stroke-width:1.05833;stroke-linecap:round;stroke-linejoin:round;stroke-miterlimit:4;stroke-dasharray:none;stroke-dashoffset:0;stroke-opacity:1;stop-color:#000000;stop-opacity:1"
       d="m 49.707301,95.808676 3.159403,20.834224 16.405354,15.97009 -0.891889,-9.54657 5.306631,4.87107"
       id="path8033" />
    <path
       style="font-variation-settings:normal;opacity:1;fill:none;fill-opacity:1;stroke:currentColor;stroke-width:1.05833;stroke-linecap:round;stroke-linejoin:round;stroke-miterlimit:4;stroke-dasharray:none;stroke-dashoffset:0;stroke-opacity:1;stop-color:#000000;stop-opacity:1"
       d="m 50.57669,98.863949 4.490315,3.817931"
       id="path8035" />
    <path
       style="font-variation-settings:normal;opacity:1;fill:none;fill-opacity:1;stroke:currentColor;stroke-width:1.05833;stroke-linecap:round;stroke-linejoin:round;stroke-miterlimit:4;stroke-dasharray:none;stroke-dashoffset:0;stroke-opacity:1;stop-color:#000000;stop-opacity:1"
       d="m 69.607238,132.83712 11.124686,11.66033 9.850021,-4.05504 -0.29537,-2.85162 -6.458417,-13.20356"
       id="path8037" />
    <path
       style="font-variation-settings:normal;opacity:1;fill:none;fill-opacity:1;stroke:currentColor;stroke-width:1.05833;stroke-linecap:round;stroke-linejoin:round;stroke-miterlimit:4;stroke-dasharray:none;stroke-dashoffset:0;stroke-opacity:1;stop-color:#000000;stop-opacity:1"
       d="m 73.830736,128.2245 7.040221,14.11159 8.993318,-3.70861"
       id="path8039" />
    <path
       style="font-variation-settings:normal;opacity:1;fill:none;fill-opacity:1;stroke:currentColor;stroke-width:1.05833;stroke-linecap:round;stroke-linejoin:round;stroke-miterlimit:4;stroke-dasharray:none;stroke-dashoffset:0;stroke-opacity:1;stop-color:#000000;stop-opacity:1"
       d="m 93.885285,119.72789 9.552635,-4.32792 6.87811,13.91429 0.0159,2.28598 -9.06198,4.15196 -12.135135,-10.7223 -0.40902,-2.80201"
       id="path8131" />
    <path
       style="font-variation-settings:normal;opacity:1;fill:none;fill-opacity:1;stroke:currentColor;stroke-width:1.05833;stroke-linecap:round;stroke-linejoin:round;stroke-miterlimit:4;stroke-dasharray:none;stroke-dashoffset:0;stroke-opacity:1;stop-color:#000000;stop-opacity:1"
       d="m 93.885285,119.72789 9.552635,-4.32792 6.87811,13.91429 0.0159,2.28598 -9.06198,4.15196 -12.135135,-10.7223 -0.40902,-2.80201"
       id="path21443" />
    <path
       style="font-variation-settings:normal;opacity:1;fill:none;fill-opacity:1;stroke:currentColor;stroke-width:1.05833;stroke-linecap:round;stroke-linejoin:round;stroke-miterlimit:4;stroke-dasharray:none;stroke-dashoffset:0;stroke-opacity:1;stop-color:#000000;stop-opacity:1"
       d="m 94.176045,120.22777 7.208965,13.35932 8.51594,-3.85371"
       id="path8133" />
    <path
       style="font-variation-settings:normal;opacity:1;fill:none;fill-opacity:1;stroke:currentColor;stroke-width:1.05833;stroke-linecap:round;stroke-linejoin:round;stroke-miterlimit:4;stroke-dasharray:none;stroke-dashoffset:0;stroke-opacity:1;stop-color:#000000;stop-opacity:1"
       d="m 85.090131,126.26073 3.538714,-1.43101"
       id="path8135" />
    <path
       style="font-variation-settings:normal;opacity:1;fill:none;fill-opacity:1;stroke:currentColor;stroke-width:1.05833;stroke-linecap:round;stroke-linejoin:round;stroke-miterlimit:4;stroke-dasharray:none;stroke-dashoffset:0;stroke-opacity:1;stop-color:#000000;stop-opacity:1"
       d="m 101.89326,103.87059 12.46627,-5.053948 -0.1898,-1.730706 -5.33028,-5.488355 -7.20666,-0.226433"
       id="path8137" />
    <path
       style="font-variation-settings:normal;opacity:1;fill:none;fill-opacity:1;stroke:currentColor;stroke-width:1.05833;stroke-linecap:round;stroke-linejoin:round;stroke-miterlimit:4;stroke-dasharray:none;stroke-dashoffset:0;stroke-opacity:1;stop-color:#000000;stop-opacity:1"
       d="m 96.319065,95.885661 17.099925,1.137166"
       id="path8139" />
    <path
       style="font-variation-settings:normal;opacity:1;fill:none;fill-opacity:1;stroke:currentColor;stroke-width:1.05833;stroke-linecap:round;stroke-linejoin:round;stroke-miterlimit:4;stroke-dasharray:none;stroke-dashoffset:0;stroke-opacity:1;stop-color:#000000;stop-opacity:1"
       d="m 69.31677,78.970931 c 0,0 -0.190378,-4.049561 0.64411,-4.364548 0.834488,-0.314989 5.701519,1.918486 5.701519,1.918486"
       id="path8334" />
    <path
       style="font-variation-settings:normal;opacity:1;fill:none;fill-opacity:1;stroke:currentColor;stroke-width:1.05833;stroke-linecap:round;stroke-linejoin:round;stroke-miterlimit:4;stroke-dasharray:none;stroke-dashoffset:0;stroke-opacity:1;stop-color:#000000;stop-opacity:1"
       d="m 82.428305,73.886121 c 0,0 0.387099,-4.500988 0.929101,-4.669732 0.541999,-0.168745 6.444569,2.834606 6.444569,2.834606"
       id="path8336" />
    <path
       style="font-variation-settings:normal;opacity:1;fill:none;fill-opacity:1;stroke:currentColor;stroke-width:1.05833;stroke-linecap:round;stroke-linejoin:round;stroke-miterlimit:4;stroke-dasharray:none;stroke-dashoffset:0;stroke-opacity:1;stop-color:#000000;stop-opacity:1"
       d="m 175.31613,96.169528 c 0,0 -1.6133,-5.41105 -0.64728,-8.961591 0.96602,-3.550542 1.8657,-5.263941 1.8657,-5.263941 0,10e-7 -2.66363,-2.387737 -2.03416,-4.654444 0.42143,-1.517549 2.70569,-2.714632 4.88578,-2.542117 2.07597,0.164276 4.38965,0.672955 4.38965,0.672955 0,0 6.25073,-4.382434 15.76442,-1.932043 9.51369,2.450391 12.06099,8.130563 12.06099,8.130563 0,0 3.50122,1.032367 3.85111,3.213344 0.34989,2.180979 -1.66724,3.61977 -1.66724,3.61977 0,0 0.63257,2.635578 0.28152,4.387627 -0.35104,1.75205 -1.10217,3.950047 -1.10217,3.950047 0,0 2.72846,0.992126 2.62505,3.512172 -0.10341,2.52006 -3.66058,3.37575 -3.66058,3.37575 0,0 4.87135,3.39997 4.18801,5.74089 -0.68334,2.34092 -3.735,3.18781 -5.17884,3.14339 -1.44384,-0.0444 -4.00976,-0.54272 -4.35331,-0.36388 -0.34354,0.17884 1.05819,5.66965 -2.10497,6.36856 -3.16315,0.69892 -4.76722,-1.53441 -5.78041,-2.17679 -1.01318,-0.64238 -1.83339,-1.13823 -3.27521,-1.13304 -1.44182,0.005 -2.86302,1.18871 -4.83588,2.33574 -1.97286,1.14702 -3.90141,1.5608 -5.55048,0.36424 -1.64906,-1.19656 -1.40654,-2.86123 -1.28233,-3.49118 0.12422,-0.62994 0.71266,-2.50592 -0.12493,-2.56497 -0.83758,-0.059 -6.25868,0.47433 -7.68664,0.21499 -1.42797,-0.25935 -2.78995,-0.83738 -3.16759,-2.63483 -0.37764,-1.79745 0.73734,-2.86755 1.2238,-3.30292 0.48645,-0.43536 2.07453,-1.56237 1.94787,-1.74829 -0.12667,-0.18591 -2.64615,-0.0131 -3.6517,-1.98754 -1.00555,-1.97439 -0.21304,-3.801511 0.47534,-4.54517 0.68838,-0.743659 2.54448,-1.727292 2.54448,-1.727292 z"
       id="path8338" />
    <path
       style="font-variation-settings:normal;opacity:1;fill:none;fill-opacity:1;stroke:currentColor;stroke-width:1.05833;stroke-linecap:round;stroke-linejoin:round;stroke-miterlimit:4;stroke-dasharray:none;stroke-dashoffset:0;stroke-opacity:1;stop-color:#000000;stop-opacity:1"
       d="m 179.80913,92.887068 c -0.78326,0.46776 -0.34398,2.603521 0.34444,2.71514 0.88788,0.143959 1.34506,-0.844243 1.18127,-1.625301 -0.21442,-1.022474 -0.98912,-1.410289 -1.52571,-1.089839 z"
       id="path8340" />
    <path
       style="font-variation-settings:normal;opacity:1;fill:none;fill-opacity:1;stroke:currentColor;stroke-width:1.05833;stroke-linecap:round;stroke-linejoin:round;stroke-miterlimit:4;stroke-dasharray:none;stroke-dashoffset:0;stroke-opacity:1;stop-color:#000000;stop-opacity:1"
       d="m 195.91425,98.196241 c -1.50947,0.982276 -0.97333,2.278249 -0.44898,2.616779 0.52434,0.33853 1.55779,0.35332 2.39629,-0.49493 0.8385,-0.848235 -0.43784,-3.104125 -1.94731,-2.121849 z"
       id="path9550" />
    <path
       style="font-variation-settings:normal;opacity:1;fill:none;fill-opacity:1;stroke:currentColor;stroke-width:1.05833;stroke-linecap:round;stroke-linejoin:round;stroke-miterlimit:4;stroke-dasharray:none;stroke-dashoffset:0;stroke-opacity:1;stop-color:#000000;stop-opacity:1"
       d="m 175.32825,96.732296 c 2.64942,8.311134 7.87528,11.363814 7.87528,11.363814"
       id="path10017" />
    <path
       style="font-variation-settings:normal;opacity:1;fill:none;fill-opacity:1;stroke:currentColor;stroke-width:1.05833;stroke-linecap:round;stroke-linejoin:round;stroke-miterlimit:4;stroke-dasharray:none;stroke-dashoffset:0;stroke-opacity:1;stop-color:#000000;stop-opacity:1"
       d="m 212.68863,97.464618 c -1.79306,8.383192 -8.36381,11.770242 -8.36381,11.770242"
       id="path10654" />
    <path
       id="path4005"
       style="fill:none;fill-opacity:1;stroke:currentColor;stroke-width:1.05833;stroke-linecap:round;stroke-linejoin:round;stroke-miterlimit:4;stroke-dasharray:none;stroke-opacity:1"
       d="m 267.10156,149.99023 a 0.52444647,0.52444647 0 0 0 -0.65039,0.49415 l -0.0293,1.1914 a 0.52444647,0.52444647 0 0 0 0.0547,0.25 c 0,0 0.3816,0.75877 0.71875,1.55469 0.16858,0.39796 0.32649,0.80513 0.41407,1.10937 0.0269,0.0933 0.0323,0.14519 0.0449,0.21094 -0.10266,0.0417 -0.21,0.0856 -0.375,0.14844 -0.42408,0.16145 -1.04087,0.38809 -1.82032,0.66797 -1.55889,0.55976 -3.76959,1.33504 -6.4121,2.2539 -5.28504,1.83772 -12.30287,4.24888 -19.33204,6.65039 -7.02916,2.40152 -14.06902,4.79413 -19.39843,6.59961 -1.06545,0.36095 -1.68272,0.56764 -2.59766,0.87696 a 0.52444647,0.52444647 0 0 0 -0.12109,-0.16602 l -0.94141,-0.59961 a 0.52444647,0.52444647 0 0 0 -0.23047,-0.0801 c 0,0 -1.23376,-0.12156 -2.81055,-0.19922 -1.77384,-0.0874 -3.90468,0.81656 -4.81054,2.65626 -0.24139,0.49022 -0.28694,0.986 -0.14258,1.39453 0.14436,0.40852 0.44347,0.69221 0.74805,0.88281 0.30457,0.1906 0.62567,0.30051 0.9082,0.36719 0.28253,0.0667 0.47727,0.10476 0.73828,0.0645 0.14293,-0.0221 0.0922,-0.0207 0.12695,-0.0312 0.0348,-0.0106 0.0787,-0.0251 0.13477,-0.043 0.1122,-0.0357 0.26996,-0.0861 0.47266,-0.15234 0.40539,-0.13245 0.9893,-0.32389 1.72656,-0.56836 1.47452,-0.48894 3.56512,-1.18792 6.08008,-2.0293 5.0299,-1.68276 11.75377,-3.94094 18.62304,-6.25976 13.73855,-4.63766 27.99418,-9.48837 30.58203,-10.50977 0.32051,-0.12651 0.47303,-0.31158 0.66602,-0.53125 0.19299,-0.21967 0.38159,-0.41402 0.44531,-0.79492 0.0763,-0.45589 -0.0581,-0.85924 -0.23242,-1.3711 -0.17429,-0.51186 -0.42262,-1.08371 -0.69922,-1.63476 -0.27659,-0.55106 -0.57999,-1.07883 -0.875,-1.49805 -0.1475,-0.20961 -0.29236,-0.39235 -0.44336,-0.54492 -0.15099,-0.15258 -0.29281,-0.2916 -0.5625,-0.35938 z m -52.96679,22.78907 c 0.59262,0.002 0.81252,0.0271 1.1289,0.0488 -0.41534,0.14005 -1.08917,0.36913 -1.44336,0.48829 -0.79695,0.26811 -1.43289,0.48174 -1.88086,0.63086 -0.22398,0.0745 -0.40162,0.13272 -0.52734,0.17382 -0.12572,0.0411 -0.22801,0.0722 -0.19922,0.0645 -0.33915,0.0908 -0.46467,0.0522 -0.4043,0.0781 0.0604,0.0259 0.0625,0.0803 0.002,-0.10742 0.0241,0.0747 -0.008,0.0976 0.0273,0.0312 0.0355,-0.0664 0.12514,-0.18428 0.25195,-0.31445 0.25364,-0.26035 0.64619,-0.57149 1.01758,-0.85157 0.0205,-0.0154 0.32306,-0.13223 0.70899,-0.17968 0.38592,-0.0475 0.86311,-0.0643 1.31836,-0.0625 z"
       transform="translate(-33.048906,0.96619483)" />
    <path
       style="font-variation-settings:normal;opacity:1;vector-effect:none;fill:none;fill-opacity:1;stroke:currentColor;stroke-width:1.05833;stroke-linecap:round;stroke-linejoin:round;stroke-miterlimit:4;stroke-dasharray:none;stroke-dashoffset:0;stroke-opacity:1;-inkscape-stroke:none;stop-color:#000000;stop-opacity:1"
       d="M 35.817173,219.10881 160.65308,177.73071"
       id="path20890" />
  </g>
</svg>
