<?xml version="1.0" encoding="UTF-8" standalone="no"?>
<!-- Created with Inkscape (http://www.inkscape.org/) -->

<svg
   width="1920"
   height="1080"
   viewBox="0 0 507.99997 285.75001"
   version="1.1"
   id="svg32033"
   xmlns="http://www.w3.org/2000/svg">
  <defs
     id="defs32030" />
  <g
     id="layer1">
    <rect
       style="font-variation-settings:normal;opacity:1;fill:#fff5f8;fill-opacity:1;stroke:none;stroke-width:3.96875;stroke-linecap:round;stroke-linejoin:round;stroke-miterlimit:4;stroke-dasharray:none;stroke-dashoffset:0;stroke-opacity:1;stop-color:#000000;stop-opacity:1"
       id="rect45254"
       width="520.22742"
       height="295.31192"
       x="-3.6367779"
       y="-11.018885" />
    <g
       id="g57930">
      <path
         d="m 309.40161,256.25577 -2.52266,-3.08158 c -8.96509,-10.90824 -14.88175,-18.12364 -13.7655,-25.69868 0.91492,-6.2088 6.49099,-10.33458 12.67955,-9.42266 3.49621,0.51523 6.61188,2.63717 8.42599,5.51173 2.56614,-2.22906 6.16152,-3.36209 9.65764,-2.84691 6.18864,0.91204 10.33758,6.47085 9.42264,12.67963 -1.11629,7.57504 -8.86275,12.77704 -20.59338,20.63552 z"
         id="path45623-5"
         style="font-variation-settings:normal;opacity:1;vector-effect:none;fill:none;fill-opacity:1;stroke:#ffe8ef;stroke-width:13.2292;stroke-linecap:round;stroke-linejoin:round;stroke-miterlimit:4;stroke-dasharray:none;stroke-dashoffset:0;stroke-opacity:1;-inkscape-stroke:none;stop-color:#000000;stop-opacity:1" />
      <path
         id="path45623-5-3"
         style="opacity:1;vector-effect:none;fill:none;stroke:#ffe8ef;stroke-width:13.2292;stroke-linecap:round;stop-color:#000000;stop-opacity:1"
         d="m 301.78139,195.04879 c -17.00929,0.92455 -32.16537,16.17574 -31.83424,33.42849 -0.10205,14.30848 8.74564,26.3996 17.55502,36.85344 4.33708,5.14559 8.29405,11.25472 15.36795,12.96588 8.66634,3.17752 16.81835,-1.42453 23.61679,-6.30468 11.55735,-7.54547 23.83081,-16.32391 28.27949,-30.06832 5.8041,-16.31818 -3.87684,-35.59392 -19.78693,-41.79467 -5.38424,-2.23904 -11.37114,-2.73976 -17.10619,-1.84457 -4.9935,-2.38584 -10.54646,-3.65439 -16.09189,-3.23557 z" />
      <path
         id="path45623-5-3-0"
         style="opacity:1;vector-effect:none;fill:none;stroke:#ffe8ef;stroke-width:13.2292;stroke-linecap:round;stop-color:#000000;stop-opacity:1"
         d="m 306.14255,172.47448 c -30.24046,-1.34356 -59.2621,25.06111 -58.75431,55.74316 -0.22312,20.30391 11.03233,38.3727 24.04292,53.07035 13.52261,19.71767 42.40213,27.70275 62.63876,12.77085 15.07762,-9.69237 30.6862,-20.44579 38.7541,-37.07362 10.02188,-18.47727 7.33888,-42.21711 -5.38263,-58.70846 -10.53082,-14.45265 -28.13621,-23.84881 -46.17756,-22.98145 -4.88739,-1.59854 -9.97195,-2.65261 -15.12128,-2.82083 z" />
      <path
         style="fill:none;stroke:#ffe8ef;stroke-width:13.22916651;stroke-linecap:round;stroke-linejoin:miter;stroke-opacity:1;stroke-miterlimit:4;stroke-dasharray:none"
         d="M 279.40746,116.39002 C 317.55008,57.535431 387.24398,85.597007 433.8625,73.303301 480.48105,61.009595 583.03871,7.8240736 544.15557,-20.372744 505.27243,-48.569562 415.70685,-31.597817 415.70685,-31.597817"
         id="path50452" />
      <path
         style="font-variation-settings:normal;vector-effect:none;fill:none;fill-opacity:1;stroke:#ffe8ef;stroke-width:13.2292;stroke-linecap:round;stroke-linejoin:miter;stroke-miterlimit:4;stroke-dasharray:none;stroke-dashoffset:0;stroke-opacity:1;-inkscape-stroke:none;stop-color:#000000"
         d="M 195.12074,27.972893 221.94075,12.178418"
         id="path59932" />
      <path
         style="font-variation-settings:normal;vector-effect:none;fill:none;fill-opacity:1;stroke:#ffe8ef;stroke-width:13.2292;stroke-linecap:round;stroke-linejoin:miter;stroke-miterlimit:4;stroke-dasharray:none;stroke-dashoffset:0;stroke-opacity:1;-inkscape-stroke:none;stop-color:#000000"
         d="M 205.6829,50.059439 235.05034,31.240867"
         id="path60108" />
      <path
         style="font-variation-settings:normal;vector-effect:none;fill:none;fill-opacity:1;stroke:#ffe8ef;stroke-width:13.2292;stroke-linecap:round;stroke-linejoin:miter;stroke-miterlimit:4;stroke-dasharray:none;stroke-dashoffset:0;stroke-opacity:1;-inkscape-stroke:none;stop-color:#000000"
         d="m 184.28587,3.7136083 c 7.02814,-2.1195282 40.77431,-24.2504163 52.46941,-18.4194973 11.69509,5.8309195 33.3493,61.688022 31.33397,72.321134 -2.01531,10.633114 -20.16211,19.583465 -32.12326,34.683993 -11.96114,15.100522 -27.72457,44.323852 -27.72457,44.323852 l -50.41639,-20.07344 c 0.16184,-37.912056 -30.51367,-51.759935 -37.90541,-65.694279 -7.39174,-13.934345 -4.44968,-59.2647534 32.61767,-69.944425"
         id="path60545" />
      <path
         style="font-variation-settings:normal;vector-effect:none;fill:none;fill-opacity:1;stroke:#ffe8ef;stroke-width:13.2292;stroke-linecap:round;stroke-linejoin:miter;stroke-miterlimit:4;stroke-dasharray:none;stroke-dashoffset:0;stroke-opacity:1;-inkscape-stroke:none;stop-color:#000000"
         d="m 45.917934,-32.393749 c 1.135145,59.16055 -1.359069,62.271113 -20.055702,63.406258 -18.6966311,1.135144 -78.930247,-4.12155 -78.930247,-4.12155"
         id="path61547" />
      <path
         style="font-variation-settings:normal;vector-effect:none;fill:none;fill-opacity:1;stroke:#ffe8ef;stroke-width:13.2292;stroke-linecap:round;stroke-linejoin:miter;stroke-miterlimit:4;stroke-dasharray:none;stroke-dashoffset:0;stroke-opacity:1;-inkscape-stroke:none;stop-color:#000000"
         d="M -34.415724,4.3698638 C 10.460181,17.497192 21.237405,10.717362 23.973281,6.2166909 26.709158,1.7160196 26.188143,-26.871004 26.188143,-26.871004"
         id="path61690" />
      <path
         style="font-variation-settings:normal;vector-effect:none;fill:none;fill-opacity:1;stroke:#ffe8ef;stroke-width:13.2292;stroke-linecap:round;stroke-linejoin:miter;stroke-miterlimit:4;stroke-dasharray:none;stroke-dashoffset:0;stroke-opacity:1;-inkscape-stroke:none;stop-color:#000000"
         d="m -35.50431,61.987326 c 54.298493,-2.92876 74.81313,-5.51166 79.030016,-0.545401 4.216885,4.966258 4.247923,65.022515 4.247923,65.022515"
         id="path61833" />
      <path
         style="font-variation-settings:normal;vector-effect:none;fill:none;fill-opacity:1;stroke:#ffe8ef;stroke-width:13.2292;stroke-linecap:round;stroke-linejoin:miter;stroke-miterlimit:4;stroke-dasharray:none;stroke-dashoffset:0;stroke-opacity:1;-inkscape-stroke:none;stop-color:#000000"
         d="m -28.613629,82.657158 c 37.6748332,1.59408 51.793195,-2.412182 53.276423,7.03036 1.483225,9.442543 -22.3060384,48.589512 -22.3060384,48.589512"
         id="path61976" />
      <path
         style="font-variation-settings:normal;vector-effect:none;fill:none;fill-opacity:1;stroke:#ffe8ef;stroke-width:13.2292;stroke-linecap:round;stroke-linejoin:miter;stroke-miterlimit:4;stroke-dasharray:none;stroke-dashoffset:0;stroke-opacity:1;-inkscape-stroke:none;stop-color:#000000"
         d="M 218.0409,71.536289 240.9123,59.224846"
         id="path60322" />
      <path
         style="font-variation-settings:normal;opacity:1;vector-effect:none;fill:none;fill-opacity:1;stroke:#ffe8ef;stroke-width:13.2292;stroke-linecap:round;stroke-linejoin:miter;stroke-miterlimit:4;stroke-dasharray:none;stroke-dashoffset:0;stroke-opacity:1;-inkscape-stroke:none;stop-color:#000000;stop-opacity:1"
         d="m 389.39385,2.0823801 c -21.12024,7.9579529 -18.89321,20.6654229 -13.82898,26.6959109 5.06423,6.030485 -2.48395,13.592738 -0.76382,18.875568 1.72015,5.282826 9.96956,8.153636 14.65646,3.839139 4.68689,-4.314506 0.78333,-12.101763 5.84745,-15.143147 5.06409,-3.041386 25.17797,-28.9531979 -5.91111,-34.2674709 z"
         id="path50669" />
      <path
         style="font-variation-settings:normal;opacity:1;vector-effect:none;fill:none;fill-opacity:1;stroke:#ffe8ef;stroke-width:13.2292;stroke-linecap:round;stroke-linejoin:miter;stroke-miterlimit:4;stroke-dasharray:none;stroke-dashoffset:0;stroke-opacity:1;-inkscape-stroke:none;stop-color:#000000;stop-opacity:1"
         d="m 126.58733,239.03536 c 3.35705,36.48622 7.80993,37.36179 31.28801,33.02949 23.47809,-4.33229 35.03349,-6.08242 33.20333,-19.80046 -1.83012,-13.71803 -0.20721,-23.94509 -7.40224,-30.48244 -7.195,-6.53735 -51.95505,-0.82856 -57.0891,17.25341 z"
         id="path50826" />
      <path
         style="font-variation-settings:normal;vector-effect:none;fill:none;fill-opacity:1;stroke:#ffe8ef;stroke-width:13.2292;stroke-linecap:round;stroke-linejoin:miter;stroke-miterlimit:4;stroke-dasharray:none;stroke-dashoffset:0;stroke-opacity:1;-inkscape-stroke:none;stop-color:#000000"
         d="m 462.03495,-9.2806949 c 0.16626,37.8965399 -8.73752,55.5866189 -8.73752,55.5866189"
         id="path64025" />
      <path
         style="font-variation-settings:normal;vector-effect:none;fill:none;fill-opacity:1;stroke:#ffe8ef;stroke-width:13.2292;stroke-linecap:round;stroke-linejoin:miter;stroke-miterlimit:4;stroke-dasharray:none;stroke-dashoffset:0;stroke-opacity:1;-inkscape-stroke:none;stop-color:#000000"
         d="m 482.74247,-20.350573 c 14.03189,16.477335 -5.1259,54.258588 -5.1259,54.258588"
         id="path64168" />
      <path
         style="font-variation-settings:normal;vector-effect:none;fill:none;fill-opacity:1;stroke:#ffe8ef;stroke-width:13.2292;stroke-linecap:round;stroke-linejoin:miter;stroke-miterlimit:4;stroke-dasharray:none;stroke-dashoffset:0;stroke-opacity:1;-inkscape-stroke:none;stop-color:#000000"
         d="m 516.59062,-11.018885 c -4.3366,7.063615 -15.7302,33.293883 -15.7302,33.293883"
         id="path64311" />
      <path
         style="font-variation-settings:normal;vector-effect:none;fill:none;fill-opacity:1;stroke:#ffe8ef;stroke-width:13.2292;stroke-linecap:round;stroke-linejoin:miter;stroke-miterlimit:4;stroke-dasharray:none;stroke-dashoffset:0;stroke-opacity:1;-inkscape-stroke:none;stop-color:#000000"
         d="M 56.81488,181.01567 C 12.311443,223.31312 34.074295,295.32386 49.385446,303.4539"
         id="path64753" />
      <path
         style="font-variation-settings:normal;vector-effect:none;fill:none;fill-opacity:1;stroke:#ffe8ef;stroke-width:13.2292;stroke-linecap:round;stroke-linejoin:miter;stroke-miterlimit:4;stroke-dasharray:none;stroke-dashoffset:0;stroke-opacity:1;-inkscape-stroke:none;stop-color:#000000"
         d="m 32.548946,168.92594 c -69.002166,61.75453 0.638519,165.36975 0.638519,165.36975"
         id="path64896" />
      <path
         style="font-variation-settings:normal;opacity:1;vector-effect:none;fill:none;fill-opacity:1;stroke:#ffe8ef;stroke-width:13.2292;stroke-linecap:round;stroke-linejoin:miter;stroke-miterlimit:4;stroke-dasharray:none;stroke-dashoffset:0;stroke-opacity:1;-inkscape-stroke:none;stop-color:#000000;stop-opacity:1"
         d="m 145.20804,243.26485 c -0.87511,10.51229 1.28775,15.09169 12.14459,16.01889 10.85683,0.9272 16.29872,-6.19946 15.33919,-14.74899 -0.95951,-8.54956 -13.89785,-19.88008 -27.48378,-1.2699 z"
         id="path50828" />
      <path
         style="fill:none;stroke:#ffe8ef;stroke-width:13.2292;stroke-linecap:round;stroke-linejoin:miter;stroke-opacity:1;font-variation-settings:normal;opacity:1;vector-effect:none;fill-opacity:1;stroke-miterlimit:4;stroke-dasharray:none;stroke-dashoffset:0;-inkscape-stroke:none;stop-color:#000000;stop-opacity:1"
         d="M 140.87767,33.63088 159.47896,19.049147 190.62228,56.462366 190.456,75.94606 168.54017,68.425726 Z"
         id="path50971" />
      <path
         style="font-variation-settings:normal;opacity:1;vector-effect:none;fill:none;fill-opacity:1;stroke:#ffe8ef;stroke-width:13.2292;stroke-linecap:round;stroke-linejoin:miter;stroke-miterlimit:4;stroke-dasharray:none;stroke-dashoffset:0;stroke-opacity:1;-inkscape-stroke:none;stop-color:#000000;stop-opacity:1"
         d="m 202.43266,208.52963 11.01223,-10.83708"
         id="path57365" />
      <path
         style="font-variation-settings:normal;opacity:1;vector-effect:none;fill:none;fill-opacity:1;stroke:#ffe8ef;stroke-width:13.2292;stroke-linecap:round;stroke-linejoin:miter;stroke-miterlimit:4;stroke-dasharray:none;stroke-dashoffset:0;stroke-opacity:1;-inkscape-stroke:none;stop-color:#000000;stop-opacity:1"
         d="m 206.89785,233.73118 22.29717,-5.22123"
         id="path57508" />
      <path
         style="font-variation-settings:normal;opacity:1;vector-effect:none;fill:none;fill-opacity:1;stroke:#ffe8ef;stroke-width:13.2292;stroke-linecap:round;stroke-linejoin:miter;stroke-miterlimit:4;stroke-dasharray:none;stroke-dashoffset:0;stroke-opacity:1;-inkscape-stroke:none;stop-color:#000000;stop-opacity:1"
         d="m 212.42282,258.13235 13.28252,3.7912"
         id="path57651" />
      <path
         style="fill:none;stroke:#ffe8ef;stroke-width:13.2292;stroke-linecap:round;stroke-linejoin:miter;stroke-opacity:1;font-variation-settings:normal;opacity:1;vector-effect:none;fill-opacity:1;stroke-miterlimit:4;stroke-dasharray:none;stroke-dashoffset:0;-inkscape-stroke:none;stop-color:#000000;stop-opacity:1"
         d="M 112.73849,226.71855 91.28825,221.25123"
         id="path58011" />
      <path
         style="fill:none;stroke:#ffe8ef;stroke-width:13.2292;stroke-linecap:round;stroke-linejoin:miter;stroke-opacity:1;font-variation-settings:normal;opacity:1;vector-effect:none;fill-opacity:1;stroke-miterlimit:4;stroke-dasharray:none;stroke-dashoffset:0;-inkscape-stroke:none;stop-color:#000000;stop-opacity:1"
         d="m 108.25556,253.70928 -25.764682,5.43406"
         id="path58154" />
      <path
         style="font-variation-settings:normal;vector-effect:none;fill:none;fill-opacity:1;stroke:#ffe8ef;stroke-width:13.2292;stroke-linecap:round;stroke-linejoin:miter;stroke-miterlimit:4;stroke-dasharray:none;stroke-dashoffset:0;stroke-opacity:1;-inkscape-stroke:none;stop-color:#000000"
         d="M 96.839238,187.68414 C 64.185081,204.8879 63.553022,230.74092 63.553022,230.74092"
         id="path64454" />
      <path
         style="font-variation-settings:normal;vector-effect:none;fill:none;fill-opacity:1;stroke:#ffe8ef;stroke-width:13.2292;stroke-linecap:round;stroke-linejoin:miter;stroke-miterlimit:4;stroke-dasharray:none;stroke-dashoffset:0;stroke-opacity:1;-inkscape-stroke:none;stop-color:#000000"
         d="m 60.683683,252.45663 c -9.199294,32.13955 32.094444,83.48856 47.990907,80.96552"
         id="path64597" />
      <path
         style="font-variation-settings:normal;opacity:1;vector-effect:none;fill:none;fill-opacity:1;stroke:#ffe8ef;stroke-width:13.2292;stroke-linecap:round;stroke-linejoin:miter;stroke-miterlimit:4;stroke-dasharray:none;stroke-dashoffset:0;stroke-opacity:1;-inkscape-stroke:none;stop-color:#000000;stop-opacity:1"
         d="m 115.34799,277.40322 -14.90321,12.03431"
         id="path59709" />
      <path
         style="font-variation-settings:normal;opacity:1;vector-effect:none;fill:none;fill-opacity:1;stroke:#ffe8ef;stroke-width:13.2292;stroke-linecap:round;stroke-linejoin:miter;stroke-miterlimit:4;stroke-dasharray:none;stroke-dashoffset:0;stroke-opacity:1;-inkscape-stroke:none;stop-color:#000000;stop-opacity:1"
         d="M 132.98709,111.73194 C 106.95636,85.847536 96.691271,65.30186 93.285837,42.938179 c -3.405433,-22.363681 7.103533,-61.87869 7.103533,-61.87869"
         id="path60997" />
      <path
         style="fill:none;stroke:#ffe8ef;stroke-width:13.2292;stroke-linecap:round;stroke-linejoin:miter;stroke-opacity:1;font-variation-settings:normal;opacity:1;vector-effect:none;fill-opacity:1;stroke-miterlimit:4;stroke-dasharray:none;stroke-dashoffset:0;-inkscape-stroke:none;stop-color:#000000;stop-opacity:1"
         d="M 78.065587,-19.982538 C 62.514993,24.272587 60.544008,82.991938 95.035115,106.00966"
         id="path61404" />
      <path
         style="font-variation-settings:normal;opacity:1;vector-effect:none;fill:none;fill-opacity:1;stroke:#ffe8ef;stroke-width:13.2292;stroke-linecap:round;stroke-linejoin:miter;stroke-miterlimit:4;stroke-dasharray:none;stroke-dashoffset:0;stroke-opacity:1;-inkscape-stroke:none;stop-color:#000000;stop-opacity:1"
         d="m 272.71851,-24.20164 c 22.5588,30.4826264 26.12384,67.521158 23.23944,78.704105 -2.88444,11.182951 -33.98783,53.608985 -33.98783,53.608985"
         id="path62335" />
      <path
         style="font-variation-settings:normal;opacity:1;vector-effect:none;fill:none;fill-opacity:1;stroke:#ffe8ef;stroke-width:13.2292;stroke-linecap:round;stroke-linejoin:miter;stroke-miterlimit:4;stroke-dasharray:none;stroke-dashoffset:0;stroke-opacity:1;-inkscape-stroke:none;stop-color:#000000;stop-opacity:1"
         d="m 315.91611,58.420046 c 12.44002,-25.489764 -0.23946,-78.890341 -12.17844,-91.75827"
         id="path62526" />
      <path
         style="font-variation-settings:normal;vector-effect:none;fill:none;fill-opacity:1;stroke:#ffe8ef;stroke-width:13.2292;stroke-linecap:round;stroke-linejoin:miter;stroke-miterlimit:4;stroke-dasharray:none;stroke-dashoffset:0;stroke-opacity:1;-inkscape-stroke:none;stop-color:#000000"
         d="m 427.32655,7.6954831 4.73348,-2.3323677"
         id="path63652" />
      <path
         style="font-variation-settings:normal;vector-effect:none;fill:none;fill-opacity:1;stroke:#ffe8ef;stroke-width:13.2292;stroke-linecap:round;stroke-linejoin:miter;stroke-miterlimit:4;stroke-dasharray:none;stroke-dashoffset:0;stroke-opacity:1;-inkscape-stroke:none;stop-color:#000000"
         d="m 427.34431,28.298803 6.69999,0.305957"
         id="path63767" />
      <path
         style="font-variation-settings:normal;vector-effect:none;fill:none;fill-opacity:1;stroke:#ffe8ef;stroke-width:13.2292;stroke-linecap:round;stroke-linejoin:miter;stroke-miterlimit:4;stroke-dasharray:none;stroke-dashoffset:0;stroke-opacity:1;-inkscape-stroke:none;stop-color:#000000"
         d="m 418.45603,51.901832 5.41631,2.52082"
         id="path63882" />
      <path
         style="font-variation-settings:normal;vector-effect:none;fill:none;fill-opacity:1;stroke:#ffe8ef;stroke-width:13.2292;stroke-linecap:round;stroke-linejoin:miter;stroke-miterlimit:4;stroke-dasharray:none;stroke-dashoffset:0;stroke-opacity:1;-inkscape-stroke:none;stop-color:#000000"
         d="m 85.397469,181.41475 c 34.812581,24.49873 84.413081,26.18814 113.372581,-3.04184"
         id="path65222" />
      <path
         style="font-variation-settings:normal;vector-effect:none;fill:none;fill-opacity:1;stroke:#ffe8ef;stroke-width:13.2292;stroke-linecap:round;stroke-linejoin:miter;stroke-miterlimit:4;stroke-dasharray:none;stroke-dashoffset:0;stroke-opacity:1;-inkscape-stroke:none;stop-color:#000000"
         d="m 104.6129,311.40877 c 79.46013,-26.69363 90.00456,-29.01492 133.78523,-20.57006"
         id="path65456" />
      <path
         style="fill:none;stroke:#ffe8ef;stroke-width:13.2292;stroke-linecap:round;stroke-linejoin:miter;stroke-opacity:1;font-variation-settings:normal;opacity:1;vector-effect:none;fill-opacity:1;stroke-miterlimit:4;stroke-dasharray:none;stroke-dashoffset:0;-inkscape-stroke:none;stop-color:#000000;stop-opacity:1"
         d="m 351.86604,50.576019 -5.97281,2.813473"
         id="path63223" />
      <path
         style="fill:none;stroke:#ffe8ef;stroke-width:13.2292;stroke-linecap:round;stroke-linejoin:miter;stroke-opacity:1;font-variation-settings:normal;opacity:1;vector-effect:none;fill-opacity:1;stroke-miterlimit:4;stroke-dasharray:none;stroke-dashoffset:0;-inkscape-stroke:none;stop-color:#000000;stop-opacity:1"
         d="m 353.59316,25.292443 -7.26094,0.567573"
         id="path63338" />
      <path
         style="font-variation-settings:normal;opacity:1;vector-effect:none;fill:none;fill-opacity:1;stroke:#ffe8ef;stroke-width:13.2292;stroke-linecap:round;stroke-linejoin:miter;stroke-miterlimit:4;stroke-dasharray:none;stroke-dashoffset:0;stroke-opacity:1;-inkscape-stroke:none;stop-color:#000000;stop-opacity:1"
         d="m 358.32662,3.035182 -11.3847,-4.6115256"
         id="path63453" />
      <path
         style="font-variation-settings:normal;opacity:1;vector-effect:none;fill:none;fill-opacity:1;stroke:#ffe8ef;stroke-width:13.2292;stroke-linecap:round;stroke-linejoin:miter;stroke-miterlimit:4;stroke-dasharray:none;stroke-dashoffset:0;stroke-opacity:1;-inkscape-stroke:none;stop-color:#000000;stop-opacity:1"
         d="m 357.58388,128.07846 c 150.20743,70.7056 185.05221,43.15933 203.24855,-4.76672 21.20086,-55.839445 -12.39568,-82.344545 -40.1247,-65.038022 -27.72902,17.306523 -87.1648,34.243404 -74.70893,61.758972 11.72328,25.89724 32.38731,29.0821 40.01163,31.87273 10.18131,3.72654 46.42122,-10.91247 44.20193,-29.40735 -2.2193,-18.49487 11.84142,-42.554617 -12.10527,-34.555393 -23.94667,7.999222 -58.62844,21.288393 -46.84467,32.783953 11.78378,11.49556 33.93239,13.59291 33.33157,-5.29217"
         id="path67144" />
      <path
         style="font-variation-settings:normal;opacity:1;vector-effect:none;fill:none;fill-opacity:1;stroke:#ffe8ef;stroke-width:13.2292;stroke-linecap:round;stroke-linejoin:miter;stroke-miterlimit:4;stroke-dasharray:none;stroke-dashoffset:0;stroke-opacity:1;-inkscape-stroke:none;stop-color:#000000;stop-opacity:1"
         d="m 398.82499,202.73792 c 6.20688,83.20067 -8.89227,79.69649 31.06907,82.98337 39.96848,3.28747 84.20208,3.52263 84.74359,-8.60774 0.54147,-12.13038 9.8614,-48.86502 0.22404,-54.70165 -9.63735,-5.83663 -12.06274,-6.3819 -17.89901,-2.49512 -5.8363,3.88677 -4.84601,31.54399 -8.86042,40.40224 -4.01447,8.85825 -61.52937,0.76442 -61.52937,0.76442 -3.8067,1.04459 4.76209,-62.26419 3.42191,-69.98804 -0.16261,-0.93719 20.35067,-7.69716 25.35811,3.46505 5.57434,12.42591 -4.09804,35.35343 -4.87678,39.12946 -1.71045,8.29377 12.08516,6.83577 16.91762,7.213 3.50068,0.27328 8.82678,-45.60232 12.60931,-45.27733 35.62215,3.06062 72.51848,3.36939 72.77318,3.12472"
         id="path68647" />
    </g>
    <g
       id="g47370"
       transform="translate(0,-2.6458334)">
      <path
         id="rect33059"
         style="opacity:1;fill:#f0c3cf;fill-opacity:1;stroke:#892953;stroke-width:8.46666656;stroke-linejoin:round;stroke-miterlimit:4;stroke-dasharray:none;stroke-opacity:1;stop-color:#000000;stop-opacity:1"
         d="m 344.28712,97.097239 -29.80076,6.939111 -320.2398877,1.02216 v 101.79895 l 314.1732577,-17.22894 49.37205,32.93376 18.86597,4.2118 40.68588,1.01854 2.85152,-3.74654 13.18472,-2.13682 3.23752,-5.04776 -2.36315,-20.35999 -2.77709,-3.8468 6.47504,-1.83399 2.98847,-9.36429 -4.02199,-16.81913 -7.0249,-3.91501 4.05765,-3.87469 1.35959,-11.90057 -3.57547,-9.86813 -9.37617,-4.95474 5.72883,-4.90409 2.3027,-9.72292 -11.89228,-11.15178 -19.52906,-5.386229 z" />
      <rect
         style="font-variation-settings:normal;opacity:1;fill:#f0c3cf;fill-opacity:1;stroke:#892953;stroke-width:5.29167;stroke-linecap:round;stroke-linejoin:round;stroke-miterlimit:4;stroke-dasharray:none;stroke-dashoffset:0;stroke-opacity:1;stop-color:#000000;stop-opacity:1"
         id="rect41221"
         width="31.521381"
         height="97.687759"
         x="240.04851"
         y="104.70966"
         transform="rotate(-1.1191922)" />
      <circle
         style="font-variation-settings:normal;opacity:1;fill:#f0c3cf;fill-opacity:1;stroke:#892953;stroke-width:6.61458325;stroke-linecap:round;stroke-linejoin:round;stroke-miterlimit:4;stroke-dasharray:none;stroke-dashoffset:0;stroke-opacity:1;stop-color:#000000;stop-opacity:1"
         id="path41438"
         cx="260.17886"
         cy="147.94193"
         r="35.025475" />
      <path
         style="font-variation-settings:normal;opacity:1;vector-effect:none;fill:#f0c3cf;fill-opacity:1;stroke:#892953;stroke-width:5.29167;stroke-linecap:round;stroke-linejoin:round;stroke-miterlimit:4;stroke-dasharray:none;stroke-dashoffset:0;stroke-opacity:1;-inkscape-stroke:none;stop-color:#000000;stop-opacity:1"
         d="m 259.50512,147.53805 1.6986,-17.71448"
         id="path41553" />
      <path
         style="font-variation-settings:normal;fill:#f0c3cf;fill-opacity:1;stroke:#892953;stroke-width:3.96875;stroke-linecap:round;stroke-linejoin:round;stroke-miterlimit:4;stroke-dasharray:none;stroke-dashoffset:0;stroke-opacity:1;stop-color:#000000"
         d="m 259.91682,148.18881 23.28012,-1.09686"
         id="path41553-5" />
    </g>
  </g>
</svg>
