<?xml version="1.0" encoding="UTF-8" standalone="no"?>
<!-- Created with Inkscape (http://www.inkscape.org/) -->

<svg
   width="1000"
   height="1000"
   viewBox="0 0 264.58333 264.58334"
   version="1.1"
   id="svg890"
   xmlns="http://www.w3.org/2000/svg">
  <g
     id="layer3"
     style="display:inline">
    <text
       xml:space="preserve"
       transform="matrix(0.25311984,0,0,0.25311984,6.8175498,-1.593231)"
       id="text55056"
       style="font-size:40px;line-height:1.25;font-family:'Roboto Flex';-inkscape-font-specification:'Roboto Flex, @opsz=8';font-variation-settings:'opsz' 8;white-space:pre;shape-inside:url(#rect55058);stroke-width:1.04528" />
    <path
       style="font-variation-settings:normal;opacity:1;vector-effect:none;fill:none;fill-opacity:1;stroke:currentColor;stroke-width:1.00013;stroke-linecap:round;stroke-linejoin:round;stroke-miterlimit:4;stroke-dasharray:none;stroke-dashoffset:0;stroke-opacity:1;-inkscape-stroke:none;stop-color:#000000;stop-opacity:1"
       d="m 137.9761,105.83053 c -43.429414,-1.743 -45.901883,5.92119 -39.672414,23.50753 6.229464,17.58633 35.031204,40.08578 42.156954,43.33961 7.12576,3.25382 12.22254,2.65547 12.22254,2.65547"
       id="path105155" />
    <path
       style="font-variation-settings:normal;opacity:1;vector-effect:none;fill:none;fill-opacity:1;stroke:currentColor;stroke-width:1.00013;stroke-linecap:round;stroke-linejoin:round;stroke-miterlimit:4;stroke-dasharray:none;stroke-dashoffset:0;stroke-opacity:1;-inkscape-stroke:none;stop-color:#000000;stop-opacity:1"
       d="m 169.1869,119.66133 c 0,0 6.54811,1.2022 6.54811,3.48965 0,2.28745 -33.52761,12.74614 -42.76584,11.50595 -8.49773,-1.14078 -19.05171,-7.37128 -20.96824,-17.94126 -1.69592,-9.35326 20.02418,-6.72769 25.35971,-2.21243"
       id="path105157" />
    <path
       style="font-variation-settings:normal;opacity:1;vector-effect:none;fill:none;fill-opacity:1;stroke:currentColor;stroke-width:1.00013;stroke-linecap:round;stroke-linejoin:round;stroke-miterlimit:4;stroke-dasharray:none;stroke-dashoffset:0;stroke-opacity:1;-inkscape-stroke:none;stop-color:#000000;stop-opacity:1"
       d="m 115.86005,124.98678 c 0,0 10.49816,6.17758 27.81336,-7.45285 17.31521,-13.63043 15.43117,-18.230179 14.2012,-23.548319 -1.22996,-5.31814 -9.3347,-11.90352 -9.3347,-11.90352"
       id="path105159" />
    <path
       style="font-variation-settings:normal;opacity:1;vector-effect:none;fill:none;fill-opacity:1;stroke:currentColor;stroke-width:1.00013;stroke-linecap:round;stroke-linejoin:round;stroke-miterlimit:4;stroke-dasharray:none;stroke-dashoffset:0;stroke-opacity:1;-inkscape-stroke:none;stop-color:#000000;stop-opacity:1"
       d="m 143.10338,117.26499 c 0,0 -9.0453,-29.529309 -26.68498,-32.723705 -5.62508,-1.712298 -23.101064,4.974656 -26.121523,10.770756 -3.020459,5.796089 -9.795846,32.359759 -8.443107,40.427229 1.352739,8.06747 2.136231,11.3502 2.136231,11.3502"
       id="path105161" />
    <path
       style="font-variation-settings:normal;opacity:1;vector-effect:none;fill:none;fill-opacity:1;stroke:currentColor;stroke-width:1.00013;stroke-linecap:round;stroke-linejoin:round;stroke-miterlimit:4;stroke-dasharray:none;stroke-dashoffset:0;stroke-opacity:1;-inkscape-stroke:none;stop-color:#000000;stop-opacity:1"
       d="m 175.65754,123.39325 c -4.14232,13.59722 5.32719,34.54861 -3.88648,44.06485"
       id="path105167" />
    <path
       style="font-variation-settings:normal;opacity:1;vector-effect:none;fill:none;fill-opacity:1;stroke:currentColor;stroke-width:1.00013;stroke-linecap:round;stroke-linejoin:round;stroke-miterlimit:4;stroke-dasharray:none;stroke-dashoffset:0;stroke-opacity:1;-inkscape-stroke:none;stop-color:#000000;stop-opacity:1"
       d="m 175.81566,140.03917 c 0,0 13.63601,-5.38956 15.48351,-5.49479 0.80162,-0.0457 0.37132,1.81103 0.0122,2.62602 -3.47049,8.81145 -0.0303,22.77426 -7.42782,29.80244 -6.47209,5.40877 -10.36935,9.22782 -18.96812,8.82003 -8.59877,-0.4078 -12.01264,-0.60806 -15.91989,-0.20462 -12.19218,0.0445 -21.4095,4.78303 -35.09912,3.1121 -16.15173,-1.97144 -31.108707,-12.6371 -31.108707,-12.6371"
       id="path105169" />
    <path
       style="font-variation-settings:normal;opacity:1;vector-effect:none;fill:none;fill-opacity:1;stroke:currentColor;stroke-width:1.00013;stroke-linecap:round;stroke-linejoin:round;stroke-miterlimit:4;stroke-dasharray:none;stroke-dashoffset:0;stroke-opacity:1;-inkscape-stroke:none;stop-color:#000000;stop-opacity:1"
       d="m 102.01411,136.70977 c 1.34439,3.02413 -4.72845,5.09672 -12.63587,8.35908 -7.907419,3.26236 -16.828478,7.57198 -16.251864,9.32009 0.576612,1.74811 26.779987,31.322 27.950754,32.27937 1.17076,0.95737 13.75467,0.13812 18.53127,-1.18904 4.77661,-1.32716 10.12405,-3.44205 10.70448,-6.95232"
       id="path105171" />
    <path
       style="font-variation-settings:normal;opacity:1;vector-effect:none;fill:none;fill-opacity:1;stroke:currentColor;stroke-width:1.00013;stroke-linecap:round;stroke-linejoin:round;stroke-miterlimit:4;stroke-dasharray:none;stroke-dashoffset:0;stroke-opacity:1;-inkscape-stroke:none;stop-color:#000000;stop-opacity:1"
       d="m 90.531601,144.48267 c 0.194397,-11.03531 3.983524,-24.24911 3.983524,-24.24911 l 1.492193,-4.87393"
       id="path105175" />
    <path
       style="font-variation-settings:normal;opacity:1;vector-effect:none;fill:none;fill-opacity:1;stroke:currentColor;stroke-width:1.00013;stroke-linecap:round;stroke-linejoin:round;stroke-miterlimit:4;stroke-dasharray:none;stroke-dashoffset:0;stroke-opacity:1;-inkscape-stroke:none;stop-color:#000000;stop-opacity:1"
       d="m 87.665211,102.35125 c 0,0 -8.469418,7.72983 -11.796818,18.85357 -3.327402,11.12373 -4.707044,13.4712 -5.266985,14.48457 -0.320828,0.58063 -1.526277,1.05167 -1.387451,1.96169 0.116775,0.76547 2.247993,1.31956 4.347633,2.45487 4.113377,2.22418 9.81948,5.42245 9.990388,5.66458"
       id="path105177" />
    <path
       style="font-variation-settings:normal;opacity:1;vector-effect:none;fill:none;fill-opacity:1;stroke:currentColor;stroke-width:1.00013;stroke-linecap:round;stroke-linejoin:round;stroke-miterlimit:4;stroke-dasharray:none;stroke-dashoffset:0;stroke-opacity:1;-inkscape-stroke:none;stop-color:#000000;stop-opacity:1"
       d="m 128.61729,91.014371 c 0,0 19.34835,-9.117046 20.46818,-9.198694 1.11983,-0.08165 31.54433,16.335954 31.6084,17.345194 0.0641,1.009239 -1.29759,6.646109 -4.36769,10.350269 -3.0701,3.70417 -8.74623,11.83959 -8.74623,11.83959"
       id="path106183" />
    <path
       style="font-variation-settings:normal;opacity:1;vector-effect:none;fill:none;fill-opacity:1;stroke:currentColor;stroke-width:1.00013;stroke-linecap:round;stroke-linejoin:round;stroke-miterlimit:4;stroke-dasharray:none;stroke-dashoffset:0;stroke-opacity:1;-inkscape-stroke:none;stop-color:#000000;stop-opacity:1"
       d="m 157.31132,92.413221 c 9.65316,17.086029 10.48205,34.236409 10.48205,34.236409"
       id="path106185" />
    <path
       style="font-variation-settings:normal;opacity:1;vector-effect:none;fill:none;fill-opacity:1;stroke:currentColor;stroke-width:1.00013;stroke-linecap:round;stroke-linejoin:round;stroke-miterlimit:4;stroke-dasharray:none;stroke-dashoffset:0;stroke-opacity:1;-inkscape-stroke:none;stop-color:#000000;stop-opacity:1"
       d="m 130.28042,89.876161 c 0,0 0.0413,-1.55545 0.0413,-2.20399 0,-0.64854 -0.87127,-1.592154 -0.12713,-2.177132 0.74414,-0.584978 9.2894,0.248069 9.2894,0.248069"
       id="path108349" />
  </g>
</svg>
