<?xml version="1.0" encoding="UTF-8" standalone="no"?>
<!-- Created with Inkscape (http://www.inkscape.org/) -->

<svg
   width="1920"
   height="1080"
   viewBox="0 0 507.99997 285.75001"
   version="1.1"
   id="svg32033"
   xmlns="http://www.w3.org/2000/svg">
  <defs
     id="defs32030" />
  <rect
     style="font-variation-settings:normal;fill:#fff5f8;fill-opacity:1;stroke:none;stroke-width:3.96875;stroke-linecap:round;stroke-linejoin:round;stroke-miterlimit:4;stroke-dasharray:none;stroke-dashoffset:0;stroke-opacity:1;stop-color:#000000"
     id="rect45254"
     width="520.22748"
     height="295.31192"
     x="-2.006511"
     y="-15.147328" />
  <g
     id="g54452"
     style="fill:none"
     transform="translate(4.4834469,-250.69271)">
    <path
       style="font-variation-settings:normal;vector-effect:none;fill:none;fill-opacity:1;stroke:#ffe8ef;stroke-width:13.2291;stroke-linecap:round;stroke-linejoin:miter;stroke-miterlimit:4;stroke-dasharray:none;stroke-dashoffset:0;stroke-opacity:1;-inkscape-stroke:none;stop-color:#000000"
       d="m 7.056286,261.59023 c 5.315424,2.78374 10.228545,6.45278 16.808946,6.45278 10.602499,0 16.876686,-9.525 27.479184,-9.525 10.602498,0 16.876668,9.525 27.479166,9.525 10.602498,0 16.876668,-9.525 27.479168,-9.525 10.6025,0 16.87667,9.525 27.47917,9.525 10.6025,0 16.87668,-9.525 27.47918,-9.525 10.6025,0 16.87667,9.525 27.47917,9.525 10.6025,0 16.87667,-9.525 27.47916,-9.525 10.6025,0 16.87669,9.525 27.47919,9.525 10.6025,0 16.87667,-9.525 27.47916,-9.525 10.6025,0 16.87667,9.525 27.47917,9.525 10.6025,0 16.87668,-9.525 27.47918,-9.525 10.6025,0 16.87667,9.525 27.47917,9.525 10.6025,0 16.87667,-9.525 27.47916,-9.525 10.6025,0 16.87669,9.525 27.47919,9.525 10.6025,0 16.87667,-9.525 27.47916,-9.525 10.6025,0 16.87667,9.525 27.47917,9.525 10.6025,0 16.87668,-9.525 27.47918,-9.525"
       id="use54317" />
    <path
       style="font-variation-settings:normal;vector-effect:none;fill:none;fill-opacity:1;stroke:#ffe8ef;stroke-width:13.2291;stroke-linecap:round;stroke-linejoin:miter;stroke-miterlimit:4;stroke-dasharray:none;stroke-dashoffset:0;stroke-opacity:1;-inkscape-stroke:none;stop-color:#000000"
       d="m -31.093121,293.07252 c 10.602503,0 16.876668,-9.525 27.4791709,-9.525 10.6025101,0 16.8766791,9.525 27.4791821,9.525 10.602499,0 16.876686,-9.525 27.479184,-9.525 m 147.644094,6.67138 c 5.47908,-2.80599 10.47675,-6.67138 17.23092,-6.67138 10.6025,0 16.87669,9.525 27.47919,9.525 10.6025,0 16.87667,-9.525 27.47916,-9.525 10.6025,0 16.87667,9.525 27.47917,9.525 10.6025,0 16.87668,-9.525 27.47918,-9.525 10.6025,0 16.87667,9.525 27.47917,9.525 10.6025,0 16.87667,-9.525 27.47916,-9.525 10.6025,0 27.47919,9.525 27.47919,9.525 m 66.17094,-3.35987 c 0,0 9.91053,-6.16513 16.26657,-6.16513 10.6025,0 16.87667,9.525 27.47917,9.525"
       id="use54319" />
    <path
       style="font-variation-settings:normal;vector-effect:none;fill:none;fill-opacity:1;stroke:#ffe8ef;stroke-width:13.2291;stroke-linecap:round;stroke-linejoin:miter;stroke-miterlimit:4;stroke-dasharray:none;stroke-dashoffset:0;stroke-opacity:1;-inkscape-stroke:none;stop-color:#000000"
       d="m -31.093121,318.10202 c 10.602503,0 16.876668,-9.525 27.4791709,-9.525 10.6025101,0 16.8766791,9.525 27.4791821,9.525 6.160037,0 10.859012,-3.21525 15.794675,-5.90964 m 135.511913,1.24372 c 4.16232,2.34863 8.33887,4.66592 13.56845,4.66592 10.6025,0 16.87667,-9.525 27.47916,-9.525 10.6025,0 16.87669,9.525 27.47919,9.525 10.6025,0 16.87667,-9.525 27.47916,-9.525 10.6025,0 16.87667,9.525 27.47917,9.525 10.6025,0 16.87668,-9.525 27.47918,-9.525 10.6025,0 16.87667,9.525 27.47917,9.525 10.6025,0 16.87667,-9.525 27.47916,-9.525 10.6025,0 16.87669,9.525 27.47919,9.525 10.6025,0 16.87667,-9.525 27.47916,-9.525 10.6025,0 16.87667,9.525 27.47917,9.525 10.6025,0 16.87668,-9.525 27.47918,-9.525 10.6025,0 16.87667,9.525 27.47917,9.525"
       id="use54321" />
    <path
       style="font-variation-settings:normal;vector-effect:none;fill:none;fill-opacity:1;stroke:#ffe8ef;stroke-width:13.2291;stroke-linecap:round;stroke-linejoin:miter;stroke-miterlimit:4;stroke-dasharray:none;stroke-dashoffset:0;stroke-opacity:1;-inkscape-stroke:none;stop-color:#000000"
       d="m 12.348335,339.60742 c 3.507589,1.90393 7.144125,3.52411 11.516897,3.52411 10.602499,0 16.876686,-9.525 27.479184,-9.525 10.602498,0 16.876668,9.525 27.479166,9.525 10.602498,0 16.876668,-9.525 27.479168,-9.525 10.6025,0 16.87667,9.525 27.47917,9.525 10.6025,0 16.87668,-9.525 27.47918,-9.525 10.6025,0 16.87667,9.525 27.47917,9.525 10.6025,0 16.87667,-9.525 27.47916,-9.525 10.6025,0 16.87669,9.525 27.47919,9.525 10.6025,0 16.87667,-9.525 27.47916,-9.525 10.6025,0 16.87667,9.525 27.47917,9.525 m 68.84069,-4.84306 c 4.17172,-2.3541 8.35536,-4.68194 13.59682,-4.68194 10.6025,0 16.87669,9.525 27.47919,9.525 10.6025,0 16.87667,-9.525 27.47916,-9.525 10.6025,0 16.87667,9.525 27.47917,9.525"
       id="use54323" />
    <path
       style="font-variation-settings:normal;vector-effect:none;fill:none;fill-opacity:1;stroke:#ffe8ef;stroke-width:13.2291;stroke-linecap:round;stroke-linejoin:miter;stroke-miterlimit:4;stroke-dasharray:none;stroke-dashoffset:0;stroke-opacity:1;-inkscape-stroke:none;stop-color:#000000"
       d="m 23.865232,368.16104 c 10.602499,0 16.876686,-9.525 27.479184,-9.525 10.602498,0 16.876668,9.525 27.479166,9.525 10.602498,0 16.876668,-9.525 27.479168,-9.525 10.6025,0 16.87667,9.525 27.47917,9.525 10.6025,0 16.87668,-9.525 27.47918,-9.525 10.6025,0 16.87667,9.525 27.47917,9.525 10.6025,0 16.87667,-9.525 27.47916,-9.525 10.6025,0 16.87669,9.525 27.47919,9.525 10.6025,0 16.87667,-9.525 27.47916,-9.525 10.6025,0 16.87667,9.525 27.47917,9.525 10.6025,0 16.87668,-9.525 27.47918,-9.525 10.6025,0 16.87667,9.525 27.47917,9.525 10.6025,0 16.87667,-9.525 27.47916,-9.525 10.6025,0 16.87669,9.525 27.47919,9.525 10.6025,0 16.87667,-9.525 27.47916,-9.525 10.6025,0 16.87667,9.525 27.47917,9.525 8.36908,0 14.0413,-5.93476 21.27418,-8.43509"
       id="use54325" />
    <path
       style="color:#000000;fill:#ffe8ef;stroke-linecap:round;-inkscape-stroke:none"
       d="m -3.5703125,376.86523 c -7.2820215,0 -12.7710715,3.23399 -16.9902345,5.61524 -4.219163,2.38125 -7.16781,3.9082 -10.488281,3.9082 -3.653652,-3.8e-4 -6.615615,2.96159 -6.615234,6.61524 -3.76e-4,3.65365 2.961586,52.12394 6.615234,52.12356 7.282021,0 12.771071,-3.23594 16.990234,-5.61719 4.2191631,-2.38124 7.1678101,-3.9082 10.4882815,-3.9082 3.32047582,0 6.2691171,1.52696 10.4882812,3.9082 4.2191643,2.38125 9.7101663,5.61719 16.9921873,5.61719 7.28202,0 12.771067,-3.23594 16.990235,-5.61719 4.219167,-2.38124 7.167813,-3.9082 10.488281,-3.9082 3.320467,0 6.269118,1.52696 10.488281,3.9082 4.219163,2.38125 9.708215,5.61719 16.990234,5.61719 7.28202,0 12.771072,-3.23594 16.990235,-5.61719 4.219168,-2.38124 7.169768,-3.9082 10.490238,-3.9082 3.32047,0 6.26911,1.52696 10.48828,3.9082 4.21916,2.38125 9.70821,5.61719 16.99023,5.61719 7.28202,0 12.77107,-3.23594 16.99024,-5.61719 4.21916,-2.38124 7.16781,-3.9082 10.48828,-3.9082 3.32047,0 6.26912,1.52696 10.48828,3.9082 4.21916,2.38125 9.71017,5.61719 16.99219,5.61719 7.28202,0 12.77107,-3.23594 16.99023,-5.61719 4.21916,-2.38124 7.16782,-3.9082 10.48828,-3.9082 3.32047,0 6.26911,1.52696 10.48828,3.9082 4.21917,2.38125 9.70822,5.61719 16.99024,5.61719 7.28202,0 12.77107,-3.23594 16.99023,-5.61719 4.21916,-2.38124 7.16977,-3.9082 10.49024,-3.9082 3.32047,0 6.26911,1.52696 10.48828,3.9082 4.21916,2.38125 9.70821,5.61719 16.99023,5.61719 7.28202,0 12.77107,-3.23594 16.99024,-5.61719 4.21916,-2.38124 7.16781,-3.9082 10.48828,-3.9082 3.32047,0 6.26912,1.52696 10.48828,3.9082 4.21916,2.38125 9.71017,5.61719 16.99219,5.61719 7.28202,0 12.77107,-3.23594 16.99023,-5.61719 4.21916,-2.38124 7.16782,-3.9082 10.48828,-3.9082 3.32047,0 6.26911,1.52696 10.48828,3.9082 4.21917,2.38125 9.70822,5.61719 16.99024,5.61719 7.28202,0 12.77107,-3.23594 16.99023,-5.61719 4.21916,-2.38124 7.16977,-3.9082 10.49024,-3.9082 3.32047,0 6.26911,1.52696 10.48828,3.9082 4.21916,2.38125 9.70821,5.61719 16.99023,5.61719 7.28202,0 12.77107,-3.23594 16.99024,-5.61719 4.21916,-2.38124 7.16781,-3.9082 10.48828,-3.9082 3.32047,0 6.26912,1.52696 10.48828,3.9082 4.21916,2.38125 9.71017,5.61719 16.99219,5.61719 3.65288,-7e-4 6.61366,-48.47068 6.61328,-52.12356 3.8e-4,-3.65289 -2.96039,-6.61454 -6.61328,-6.61524 -3.32047,0 -6.27107,-1.52695 -10.49024,-3.9082 -4.21916,-2.38125 -9.70821,-5.61524 -16.99023,-5.61524 -7.28202,0 -12.77107,3.23399 -16.99024,5.61524 -4.21916,2.38125 -7.16781,3.9082 -10.48828,3.9082 -3.32047,0 -6.26912,-1.52695 -10.48828,-3.9082 -4.21916,-2.38125 -9.70821,-5.61524 -16.99023,-5.61524 -7.28202,0 -12.77303,3.23399 -16.99219,5.61524 -4.21916,2.38125 -7.16781,3.9082 -10.48828,3.9082 -3.32047,0 -6.26912,-1.52695 -10.48828,-3.9082 -4.21917,-2.38125 -9.70822,-5.61524 -16.99024,-5.61524 -7.28202,0 -12.77107,3.23399 -16.99023,5.61524 -4.21916,2.38125 -7.16781,3.9082 -10.48828,3.9082 -3.32047,0 -6.27107,-1.52695 -10.49024,-3.9082 -4.21916,-2.38125 -9.70821,-5.61524 -16.99023,-5.61524 -7.28202,0 -12.77107,3.23399 -16.99024,5.61524 -4.21916,2.38125 -7.16781,3.9082 -10.48828,3.9082 -3.32047,0 -6.26912,-1.52695 -10.48828,-3.9082 -4.21916,-2.38125 -9.70821,-5.61524 -16.99023,-5.61524 -7.28202,0 -12.77303,3.23399 -16.99219,5.61524 -4.21916,2.38125 -7.16781,3.9082 -10.48828,3.9082 -3.32047,0 -6.26912,-1.52695 -10.48828,-3.9082 -4.21917,-2.38125 -9.70822,-5.61524 -16.99024,-5.61524 -7.28202,0 -12.77107,3.23399 -16.99023,5.61524 -4.21916,2.38125 -7.16781,3.9082 -10.48828,3.9082 -3.32047,0 -6.27107,-1.52695 -10.49024,-3.9082 -4.21916,-2.38125 -9.70821,-5.61524 -16.99023,-5.61524 -7.28202,0 -12.77107,3.23399 -16.99024,5.61524 -4.21916,2.38125 -7.16781,3.9082 -10.48828,3.9082 -3.32047,0 -6.26912,-1.52695 -10.48828,-3.9082 -4.21916,-2.38125 -9.70821,-5.61524 -16.99023,-5.61524 -7.282025,0 -12.773028,3.23399 -16.992191,5.61524 -4.219164,2.38125 -7.167814,3.9082 -10.488282,3.9082 -3.320467,0 -6.269118,-1.52695 -10.488281,-3.9082 -4.219163,-2.38125 -9.708214,-5.61524 -16.990234,-5.61524 -7.28202,0 -12.771067,3.23399 -16.990235,5.61524 -4.219167,2.38125 -7.167813,3.9082 -10.488281,3.9082 -3.320471,0 -6.271069,-1.52695 -10.490234,-3.9082 -4.219165,-2.38125 -9.7082108,-5.61524 -16.9902345,-5.61524 z"
       id="use54329-5" />
    <path
       style="font-variation-settings:normal;vector-effect:none;fill:none;fill-opacity:1;stroke:#ffe8ef;stroke-width:13.2291;stroke-linecap:round;stroke-linejoin:miter;stroke-miterlimit:4;stroke-dasharray:none;stroke-dashoffset:0;stroke-opacity:1;-inkscape-stroke:none;stop-color:#000000"
       d="m -31.093121,443.24957 c 10.602503,0 16.876668,-9.525 27.4791709,-9.525 10.6025101,0 16.8766791,9.525 27.4791821,9.525 10.602499,0 16.876686,-9.525 27.479184,-9.525 10.602498,0 16.876668,9.525 27.479166,9.525 10.602498,0 16.876668,-9.525 27.479168,-9.525 10.6025,0 16.87667,9.525 27.47917,9.525 10.6025,0 16.87668,-9.525 27.47918,-9.525 10.6025,0 16.87667,9.525 27.47917,9.525 10.6025,0 16.87667,-9.525 27.47916,-9.525 10.6025,0 16.87669,9.525 27.47919,9.525 10.6025,0 16.87667,-9.525 27.47916,-9.525 10.6025,0 16.87667,9.525 27.47917,9.525 10.6025,0 16.87668,-9.525 27.47918,-9.525 10.6025,0 16.87667,9.525 27.47917,9.525 10.6025,0 16.87667,-9.525 27.47916,-9.525 10.6025,0 16.87669,9.525 27.47919,9.525 10.6025,0 16.87667,-9.525 27.47916,-9.525 10.6025,0 16.87667,9.525 27.47917,9.525 10.6025,0 16.87668,-9.525 27.47918,-9.525 10.6025,0 16.87667,9.525 27.47917,9.525"
       id="use54331" />
    <path
       style="font-variation-settings:normal;vector-effect:none;fill:none;fill-opacity:1;stroke:#ffe8ef;stroke-width:13.2291;stroke-linecap:round;stroke-linejoin:miter;stroke-miterlimit:4;stroke-dasharray:none;stroke-dashoffset:0;stroke-opacity:1;-inkscape-stroke:none;stop-color:#000000"
       d="m -31.093121,468.27908 c 10.602503,0 16.876668,-9.525 27.4791709,-9.525 10.6025101,0 16.8766791,9.525 27.4791821,9.525 10.602499,0 16.876686,-9.525 27.479184,-9.525 10.602498,0 16.876668,9.525 27.479166,9.525 10.602498,0 16.876668,-9.525 27.479168,-9.525 10.6025,0 16.87667,9.525 27.47917,9.525 10.6025,0 16.87668,-9.525 27.47918,-9.525 10.6025,0 16.87667,9.525 27.47917,9.525 10.6025,0 16.87667,-9.525 27.47916,-9.525 10.6025,0 16.87669,9.525 27.47919,9.525 10.6025,0 16.87667,-9.525 27.47916,-9.525 10.6025,0 16.87667,9.525 27.47917,9.525 10.6025,0 16.87668,-9.525 27.47918,-9.525 10.6025,0 16.87667,9.525 27.47917,9.525 10.6025,0 16.87667,-9.525 27.47916,-9.525 10.6025,0 16.87669,9.525 27.47919,9.525 10.6025,0 16.87667,-9.525 27.47916,-9.525 10.6025,0 16.87667,9.525 27.47917,9.525 10.6025,0 16.87668,-9.525 27.47918,-9.525 10.6025,0 16.87667,9.525 27.47917,9.525"
       id="use54333" />
    <path
       style="font-variation-settings:normal;vector-effect:none;fill:none;fill-opacity:1;stroke:#ffe8ef;stroke-width:13.2291;stroke-linecap:round;stroke-linejoin:miter;stroke-miterlimit:4;stroke-dasharray:none;stroke-dashoffset:0;stroke-opacity:1;-inkscape-stroke:none;stop-color:#000000"
       d="m -31.093121,493.30859 c 10.602503,0 16.876668,-9.525 27.4791709,-9.525 10.6025101,0 16.8766791,9.525 27.4791821,9.525 10.602499,0 16.876686,-9.525 27.479184,-9.525 10.602498,0 16.876668,9.525 27.479166,9.525 10.602498,0 16.876668,-9.525 27.479168,-9.525 10.6025,0 16.87667,9.525 27.47917,9.525 10.6025,0 16.87668,-9.525 27.47918,-9.525 10.6025,0 16.87667,9.525 27.47917,9.525 10.6025,0 16.87667,-9.525 27.47916,-9.525 10.6025,0 16.87669,9.525 27.47919,9.525 10.6025,0 16.87667,-9.525 27.47916,-9.525 10.6025,0 16.87667,9.525 27.47917,9.525 10.6025,0 16.87668,-9.525 27.47918,-9.525 10.6025,0 16.87667,9.525 27.47917,9.525 10.6025,0 16.87667,-9.525 27.47916,-9.525 10.6025,0 16.87669,9.525 27.47919,9.525 10.6025,0 16.87667,-9.525 27.47916,-9.525 10.6025,0 16.87667,9.525 27.47917,9.525 10.6025,0 16.87668,-9.525 27.47918,-9.525 10.6025,0 16.87667,9.525 27.47917,9.525"
       id="use54335" />
    <path
       style="font-variation-settings:normal;vector-effect:none;fill:none;fill-opacity:1;stroke:#ffe8ef;stroke-width:13.2291;stroke-linecap:round;stroke-linejoin:miter;stroke-miterlimit:4;stroke-dasharray:none;stroke-dashoffset:0;stroke-opacity:1;-inkscape-stroke:none;stop-color:#000000"
       d="m -31.093121,518.3381 c 10.602503,0 16.876668,-9.525 27.4791709,-9.525 10.6025101,0 16.8766791,9.525 27.4791821,9.525 10.602499,0 16.876686,-9.525 27.479184,-9.525 10.602498,0 16.876668,9.525 27.479166,9.525 10.602498,0 16.876668,-9.525 27.479168,-9.525 10.6025,0 16.87667,9.525 27.47917,9.525 10.6025,0 16.87668,-9.525 27.47918,-9.525 10.6025,0 16.87667,9.525 27.47917,9.525 10.6025,0 16.87667,-9.525 27.47916,-9.525 10.6025,0 16.87669,9.525 27.47919,9.525 10.6025,0 16.87667,-9.525 27.47916,-9.525 10.6025,0 16.87667,9.525 27.47917,9.525 10.6025,0 16.87668,-9.525 27.47918,-9.525 10.6025,0 16.87667,9.525 27.47917,9.525 10.6025,0 16.87667,-9.525 27.47916,-9.525 10.6025,0 16.87669,9.525 27.47919,9.525 10.6025,0 16.87667,-9.525 27.47916,-9.525 10.6025,0 16.87667,9.525 27.47917,9.525 10.6025,0 16.87668,-9.525 27.47918,-9.525 10.6025,0 16.87667,9.525 27.47917,9.525"
       id="use54337" />
  </g>
  <path
     style="font-variation-settings:normal;opacity:1;vector-effect:none;fill:#f0c3cf;fill-opacity:1;stroke:#892953;stroke-width:6.61458;stroke-linecap:round;stroke-linejoin:round;stroke-miterlimit:4;stroke-dasharray:none;stroke-dashoffset:0;stroke-opacity:1;-inkscape-stroke:none;stop-color:#000000;stop-opacity:1"
     d="m -33.74063,175.80778 c 104.273812,-18.2478 139.81917,-4.20727 162.19655,-1.92047 22.37737,2.28681 130.4892,-12.89612 155.17335,-14.0262 24.68417,-1.13008 22.16272,-0.90685 88.47116,6.22665 66.30842,7.1335 89.16091,12.63293 116.53152,13.85847 27.37059,1.22555 74.93389,4.01856 74.93389,4.01856 l 10.50153,155.74022 -616.073794,-8.03267 z"
     id="path1503" />
  <g
     id="g42816"
     transform="translate(7.3008463,3.3031579)">
    <path
       style="font-variation-settings:normal;opacity:1;vector-effect:none;fill:#f0c3cf;fill-opacity:1;stroke:#892953;stroke-width:3.96875;stroke-linecap:round;stroke-linejoin:round;stroke-miterlimit:4;stroke-dasharray:none;stroke-dashoffset:0;stroke-opacity:1;-inkscape-stroke:none;stop-color:#000000;stop-opacity:1"
       d="m 238.19901,115.49723 1.06284,-32.253941 17.36956,10.96587 -17.43864,2.24969"
       id="path3017" />
    <path
       style="font-variation-settings:normal;opacity:1;vector-effect:none;fill:#f0c3cf;fill-opacity:1;stroke:#892953;stroke-width:3.96875;stroke-linecap:round;stroke-linejoin:round;stroke-miterlimit:4;stroke-dasharray:none;stroke-dashoffset:0;stroke-opacity:1;-inkscape-stroke:none;stop-color:#000000;stop-opacity:1"
       d="m 276.94921,166.62275 -1.69387,-28.12422 c 0,0 -3.00911,-24.42959 -4.85245,-26.72927 -1.84333,-2.29968 -7.0186,-1.8234 -11.01713,-1.31325 -3.99853,0.51015 -1.20663,3.02406 -3.57307,3.868 -2.36644,0.84395 -7.56163,0.62972 -9.84039,0.62972 -2.27875,0 -0.65762,-1.95094 -2.59062,-3.92679 -1.93301,-1.97584 -8.57397,-1.19866 -10.63153,-0.47428 -2.05755,0.72438 -1.83038,4.19183 -5.83588,4.01447 -4.0055,-0.17735 -4.79764,0.60183 -6.33507,-2.2927 -1.53744,-2.89452 -9.07915,-2.31263 -11.5243,0.50717 -2.44515,2.81979 -4.95108,27.57521 -4.95108,27.57521 l -0.6905,31.3067"
       id="path1866" />
    <path
       style="font-variation-settings:normal;opacity:1;vector-effect:none;fill:#f0c3cf;fill-opacity:1;stroke:#892953;stroke-width:3.96875;stroke-linecap:round;stroke-linejoin:round;stroke-miterlimit:4;stroke-dasharray:none;stroke-dashoffset:0;stroke-opacity:1;-inkscape-stroke:none;stop-color:#000000;stop-opacity:1"
       d="m 161.80318,178.01465 c 0,0 5.38545,-34.58229 6.62793,-36.66603 1.24247,-2.08374 7.1988,-2.04897 7.95037,-0.24333 0.75158,1.80564 0.55388,2.18504 4.20955,2.37524 3.65567,0.1902 2.26969,-2.9955 4.50377,-3.47621 2.23408,-0.48071 6.0859,-1.42822 8.59614,0.68183 2.51024,2.11006 -0.0413,3.10625 3.19677,3.36051 3.23808,0.25425 2.84525,-3.8432 4.47229,-4.09746 1.62704,-0.25426 4.94821,-0.0869 6.13649,1.96852 1.18827,2.05544 5.82677,30.58617 5.82677,30.58617"
       id="path1326" />
    <path
       style="font-variation-settings:normal;opacity:1;vector-effect:none;fill:#f0c3cf;fill-opacity:1;stroke:#892953;stroke-width:3.96875;stroke-linecap:round;stroke-linejoin:round;stroke-miterlimit:4;stroke-dasharray:none;stroke-dashoffset:0;stroke-opacity:1;-inkscape-stroke:none;stop-color:#000000;stop-opacity:1"
       d="m 269.93359,169.62543 c 0,0 2.66961,-28.2217 5.11635,-30.30688 2.44673,-2.08519 6.92182,-1.54815 7.69406,0.0736 0.77225,1.62171 3.91303,3.36968 6.05672,2.05314 2.14371,-1.31651 0.79667,-2.60475 2.84166,-2.70545 2.04497,-0.10071 7.54743,-0.0967 8.78107,1.99006 1.23362,2.08679 0.13685,2.64769 2.5308,2.69553 2.39395,0.0478 2.96187,-3.90136 5.03814,-3.58647 2.07625,0.31488 4.92865,-0.11527 6.98732,1.52057 2.05865,1.63585 5.78693,32.25143 5.78693,32.25143"
       id="path2473" />
    <path
       style="font-variation-settings:normal;opacity:1;vector-effect:none;fill:#f0c3cf;fill-opacity:1;stroke:#892953;stroke-width:3.96875;stroke-linecap:round;stroke-linejoin:round;stroke-miterlimit:4;stroke-dasharray:none;stroke-dashoffset:0;stroke-opacity:1;-inkscape-stroke:none;stop-color:#000000;stop-opacity:1"
       d="m 233.48311,158.36621 c 0,0 -2.74806,-22.68191 6.66289,-22.50556 9.41094,0.17637 8.46038,22.09903 8.46038,22.09903 z"
       id="path2816" />
  </g>
  <g
     id="g5629"
     transform="matrix(0.95830637,0.09666649,-0.09675003,0.95913457,53.865227,-62.296945)"
     style="stroke-width:1.03779">
    <path
       style="font-variation-settings:normal;opacity:1;vector-effect:none;fill:#f0c3cf;fill-opacity:1;stroke:#892953;stroke-width:4.11873;stroke-linecap:round;stroke-linejoin:round;stroke-miterlimit:4;stroke-dasharray:none;stroke-dashoffset:0;stroke-opacity:1;-inkscape-stroke:none;stop-color:#000000;stop-opacity:1"
       d="m 359.28616,182.58669 3.35909,44.5406 c 0,0 4.91867,2.70628 20.55443,4.40486 15.63574,1.6986 22.0008,-2.5164 22.0008,-2.5164 l 7.59713,-42.37655"
       id="path3275" />
    <ellipse
       style="font-variation-settings:normal;opacity:1;fill:#f0c3cf;fill-opacity:1;stroke:#892953;stroke-width:4.1188;stroke-linecap:round;stroke-linejoin:round;stroke-miterlimit:4;stroke-dasharray:none;stroke-dashoffset:0;stroke-opacity:1;stop-color:#000000;stop-opacity:1"
       id="path3240"
       cx="396.18524"
       cy="157.62152"
       rx="25.47019"
       ry="7.9382606"
       transform="matrix(0.99775743,0.06693368,-0.0587653,0.99827183,0,0)" />
    <path
       style="font-variation-settings:normal;opacity:1;vector-effect:none;fill:none;fill-opacity:1;stroke:#892953;stroke-width:4.11873;stroke-linecap:round;stroke-linejoin:round;stroke-miterlimit:4;stroke-dasharray:none;stroke-dashoffset:0;stroke-opacity:1;-inkscape-stroke:none;stop-color:#000000;stop-opacity:1"
       d="m 412.79761,186.6392 c 5.82972,-43.08009 -51.60414,-49.31906 -53.51145,-4.05251"
       id="path3428" />
    <path
       style="font-variation-settings:normal;opacity:1;vector-effect:none;fill:#f0c3cf;fill-opacity:1;stroke:#892953;stroke-width:4.11873;stroke-linecap:round;stroke-linejoin:round;stroke-miterlimit:4;stroke-dasharray:none;stroke-dashoffset:0;stroke-opacity:1;-inkscape-stroke:none;stop-color:#000000;stop-opacity:1"
       d="m 366.41326,187.57291 c 22.82543,-6.35607 40.33297,-0.53618 40.84737,0.47322"
       id="path45944" />
  </g>
  <path
     style="font-variation-settings:normal;opacity:1;vector-effect:none;fill:#f0c3cf;fill-opacity:1;stroke:#892953;stroke-width:3.96875;stroke-linecap:round;stroke-linejoin:round;stroke-miterlimit:4;stroke-dasharray:none;stroke-dashoffset:0;stroke-opacity:1;-inkscape-stroke:none;stop-color:#000000;stop-opacity:1"
     d="m 420.01415,196.52933 c 9.75757,-2.93494 16.76318,1.4448 16.73611,1.38497"
     id="path5744" />
  <path
     style="font-variation-settings:normal;opacity:1;vector-effect:none;fill:#f0c3cf;fill-opacity:1;stroke:#892953;stroke-width:3.96875;stroke-linecap:round;stroke-linejoin:round;stroke-miterlimit:4;stroke-dasharray:none;stroke-dashoffset:0;stroke-opacity:1;-inkscape-stroke:none;stop-color:#000000;stop-opacity:1"
     d="m 379.4159,190.60438 c 0,0 -8.24363,-1.98605 -12.25661,-1.37216"
     id="path6337" />
  <path
     style="font-variation-settings:normal;opacity:1;vector-effect:none;fill:#f0c3cf;fill-opacity:1;stroke:#892953;stroke-width:3.96875;stroke-linecap:round;stroke-linejoin:round;stroke-miterlimit:4;stroke-dasharray:none;stroke-dashoffset:0;stroke-opacity:1;-inkscape-stroke:none;stop-color:#000000;stop-opacity:1"
     d="m 421.01906,55.904496 c 10.05358,-1.4445 12.17719,5.738565 12.17719,5.738565 0,0 6.98604,-3.572896 13.84637,0.707699"
     id="path23419" />
  <path
     style="font-variation-settings:normal;opacity:1;vector-effect:none;fill:#f0c3cf;fill-opacity:1;stroke:#892953;stroke-width:3.96875;stroke-linecap:round;stroke-linejoin:round;stroke-miterlimit:4;stroke-dasharray:none;stroke-dashoffset:0;stroke-opacity:1;-inkscape-stroke:none;stop-color:#000000;stop-opacity:1"
     d="m 136.4301,195.72212 c 18.85776,-4.46599 31.29318,-3.05592 48.10662,2.72973 16.81345,5.78565 44.28257,2.76407 44.28257,2.76407"
     id="path30527" />
  <path
     style="font-variation-settings:normal;opacity:1;vector-effect:none;fill:#f0c3cf;fill-opacity:1;stroke:#892953;stroke-width:3.96875;stroke-linecap:round;stroke-linejoin:round;stroke-miterlimit:4;stroke-dasharray:none;stroke-dashoffset:0;stroke-opacity:1;-inkscape-stroke:none;stop-color:#000000;stop-opacity:1"
     d="m 31.036121,204.22152 c 22.832713,-11.11687 47.213654,-0.33184 47.213654,-0.33184"
     id="path32762" />
  <path
     style="font-variation-settings:normal;opacity:1;vector-effect:none;fill:#f0c3cf;fill-opacity:1;stroke:#892953;stroke-width:3.96875;stroke-linecap:round;stroke-linejoin:round;stroke-miterlimit:4;stroke-dasharray:none;stroke-dashoffset:0;stroke-opacity:1;-inkscape-stroke:none;stop-color:#000000;stop-opacity:1"
     d="m 282.21765,226.34126 c 24.08121,-6.34459 48.97892,-5.6453 62.60496,-1.2296"
     id="path32918" />
  <path
     style="font-variation-settings:normal;opacity:1;vector-effect:none;fill:#f0c3cf;fill-opacity:1;stroke:#892953;stroke-width:3.96875;stroke-linecap:round;stroke-linejoin:round;stroke-miterlimit:4;stroke-dasharray:none;stroke-dashoffset:0;stroke-opacity:1;-inkscape-stroke:none;stop-color:#000000;stop-opacity:1"
     d="m 86.978777,232.47838 c 37.126353,-9.33622 40.236293,0.78635 51.928953,0.29176"
     id="path33119" />
  <path
     style="font-variation-settings:normal;opacity:1;vector-effect:none;fill:#f0c3cf;fill-opacity:1;stroke:#892953;stroke-width:3.96875;stroke-linecap:round;stroke-linejoin:round;stroke-miterlimit:4;stroke-dasharray:none;stroke-dashoffset:0;stroke-opacity:1;-inkscape-stroke:none;stop-color:#000000;stop-opacity:1"
     d="m 432.63223,235.64914 c 24.53182,-6.16448 35.99987,-3.35498 48.93344,-0.11809"
     id="path33781" />
  <path
     style="font-variation-settings:normal;opacity:1;vector-effect:none;fill:#f0c3cf;fill-opacity:1;stroke:#892953;stroke-width:3.96875;stroke-linecap:round;stroke-linejoin:round;stroke-miterlimit:4;stroke-dasharray:none;stroke-dashoffset:0;stroke-opacity:1;-inkscape-stroke:none;stop-color:#000000;stop-opacity:1"
     d="m 324.29747,35.339109 c 8.65841,-2.971619 12.28417,1.701775 12.28417,1.701775 0,0 6.65386,-3.58733 10.54448,-2.657011"
     id="path22884" />
</svg>
