<?xml version="1.0" encoding="UTF-8" standalone="no"?>
<!-- Created with Inkscape (http://www.inkscape.org/) -->

<svg
   width="1000"
   height="1000"
   viewBox="0 0 264.58333 264.58334"
   version="1.1"
   id="svg890"
   xmlns="http://www.w3.org/2000/svg">
  <defs
     id="defs887">
    <rect
       x="852.22266"
       y="364.35156"
       width="177.28125"
       height="172.19141"
       id="rect55058" />
  </defs>
  <g
     id="layer3"
     style="display:inline">
    <path
       style="font-variation-settings:normal;display:inline;opacity:1;vector-effect:none;fill:none;fill-opacity:1;stroke:currentColor;stroke-width:1.05833;stroke-linecap:round;stroke-linejoin:round;stroke-miterlimit:4;stroke-dasharray:none;stroke-dashoffset:0;stroke-opacity:1;-inkscape-stroke:none;stop-color:#000000;stop-opacity:1"
       d="M 4.3086335,203.09781 C 14.794735,192.66799 18.090711,191.35544 21.632241,188.47786 c 3.54153,-2.87759 2.47052,-3.27369 3.595975,-4.32131 1.125456,-1.04763 4.459069,-1.63484 5.146766,-1.63484 0.687697,0 0.874421,0.13594 1.568328,-0.18379 0.69391,-0.31974 0.94129,-0.42899 0.999757,-0.99318 0.05846,-0.56419 0.489281,-3.89854 1.947987,-5.09415 1.458706,-1.19561 2.165771,-2.35688 2.727767,-3.0095 0.561996,-0.65261 5.704377,-2.73653 8.777819,-3.85505 3.073445,-1.11851 4.683429,-2.53264 7.958577,-3.53751 3.27515,-1.00487 21.022995,-5.56552 24.286448,-5.93933 3.263455,-0.37381 9.419476,-1.85189 11.621058,-2.85676 2.201579,-1.00487 4.999871,-0.76808 6.076362,-0.67454 1.076489,0.0935 2.754442,0.43703 2.754442,0.43703"
       id="path42560" />
    <path
       style="font-variation-settings:normal;display:inline;opacity:1;vector-effect:none;fill:none;fill-opacity:1;stroke:currentColor;stroke-width:1.05833;stroke-linecap:round;stroke-linejoin:round;stroke-miterlimit:4;stroke-dasharray:none;stroke-dashoffset:0;stroke-opacity:1;-inkscape-stroke:none;stop-color:#000000;stop-opacity:1"
       d="m 178.48673,160.26437 c 1.15249,0.47102 1.24787,1.24349 1.76821,1.33265 0.52034,0.0892 1.99987,0.42533 3.35809,1.19013 1.35822,0.7648 5.96309,2.65615 14.69377,5.10693 8.73068,2.45079 23.80703,8.37807 29.01994,11.30974 5.2129,2.93166 14.95247,8.55967 19.30338,17.0722 4.35091,8.51253 13.14079,23.22494 13.6498,28.8281"
       id="path42675" />
    <path
       style="font-variation-settings:normal;display:inline;opacity:1;vector-effect:none;fill:none;fill-opacity:1;stroke:currentColor;stroke-width:1.05833;stroke-linecap:round;stroke-linejoin:round;stroke-miterlimit:4;stroke-dasharray:none;stroke-dashoffset:0;stroke-opacity:1;-inkscape-stroke:none;stop-color:#000000;stop-opacity:1"
       d="m 145.86753,200.9251 c 0,0 -4.14921,-3.87222 -6.53897,-6.30401 -2.38977,-2.43179 -3.7553,-7.06515 -4.76492,-8.06564 -1.00962,-1.00049 -14.12592,-7.1302 -16.66733,-9.51412 -2.54141,-2.38392 -15.547,-20.78401 -16.47257,-25.93297 0,0 -1.768947,4.68051 -1.810967,5.94847 -0.042,1.26797 0.439587,9.54006 2.292207,13.94103 1.85262,4.40097 10.31509,24.47317 11.26223,24.76221 0.94713,0.28904 -0.34312,-8.71863 0.39464,-11.0755 0.73775,-2.35688 1.87125,-3.39026 1.87125,-3.39026"
       id="path42677" />
    <path
       style="font-variation-settings:normal;display:inline;opacity:1;vector-effect:none;fill:none;fill-opacity:1;stroke:currentColor;stroke-width:1.05833;stroke-linecap:round;stroke-linejoin:round;stroke-miterlimit:4;stroke-dasharray:none;stroke-dashoffset:0;stroke-opacity:1;-inkscape-stroke:none;stop-color:#000000;stop-opacity:1"
       d="m 167.61037,186.88578 c -1.14263,4.61546 1.46163,6.45748 2.1961,6.22216 0.73447,-0.23532 1.99805,-7.0827 5.21802,-12.26345 3.21993,-5.18074 3.5693,-11.20705 3.25213,-15.87111 -0.31717,-4.66406 -2.36127,-8.70547 -6.44944,-13.97062 0,0 -4.49488,7.05163 -4.69183,9.05772 -0.19696,2.00609 1.46564,9.81302 1.87856,11.13543 0.61315,3.47576 -4.99622,10.55918 -7.83252,12.85321 -2.83629,2.29403 -4.92861,6.02119 -8.11789,9.12934 -3.18928,3.10816 -10.12142,10.98598 -10.92459,12.19658 0,0 -3.78197,3.33361 -4.44993,8.99451 -0.66797,5.66089 -0.29014,20.81471 -0.29014,20.81471"
       id="path42679" />
    <path
       style="font-variation-settings:normal;opacity:1;vector-effect:none;fill:none;fill-opacity:1;stroke:currentColor;stroke-width:1.05833;stroke-linecap:round;stroke-linejoin:round;stroke-miterlimit:4;stroke-dasharray:none;stroke-dashoffset:0;stroke-opacity:1;-inkscape-stroke:none;stop-color:#000000;stop-opacity:1"
       d="m 143.72715,206.27012 c -1.21816,3.78605 1.02694,5.16906 2.33384,4.42699 1.30689,-0.74208 1.21453,-2.6268 1.07939,-3.75042 -0.17968,-1.49401 -2.75475,-2.72313 -3.41323,-0.67657 z"
       id="path43203" />
    <path
       style="font-variation-settings:normal;opacity:1;vector-effect:none;fill:none;fill-opacity:1;stroke:currentColor;stroke-width:1.05833;stroke-linecap:round;stroke-linejoin:round;stroke-miterlimit:4;stroke-dasharray:none;stroke-dashoffset:0;stroke-opacity:1;-inkscape-stroke:none;stop-color:#000000;stop-opacity:1"
       d="m 96.09298,135.40717 -4.663937,3.099 c 0,0 -0.122989,3.68142 0.734322,6.22236 0.857314,2.54093 1.954403,4.75268 1.954403,4.75268 l 5.120103,-2.53473"
       id="path43819" />
    <path
       style="font-variation-settings:normal;opacity:1;vector-effect:none;fill:none;fill-opacity:1;stroke:currentColor;stroke-width:1.05833;stroke-linecap:round;stroke-linejoin:round;stroke-miterlimit:4;stroke-dasharray:none;stroke-dashoffset:0;stroke-opacity:1;-inkscape-stroke:none;stop-color:#000000;stop-opacity:1"
       d="m 95.061161,121.0448 c 0,0 0.377973,10.71087 0.801203,13.90034 0,0 2.594259,10.13473 4.241516,12.66664"
       id="path43964" />
    <path
       style="font-variation-settings:normal;opacity:1;vector-effect:none;fill:none;fill-opacity:1;stroke:currentColor;stroke-width:1.05833;stroke-linecap:round;stroke-linejoin:round;stroke-miterlimit:4;stroke-dasharray:none;stroke-dashoffset:0;stroke-opacity:1;-inkscape-stroke:none;stop-color:#000000;stop-opacity:1"
       d="m 99.941703,147.38418 c 6.168107,15.57424 24.271397,28.6737 37.994067,28.34762 13.72268,-0.32608 27.22108,-14.07821 31.92467,-21.60385 4.70359,-7.52564 8.02535,-18.39681 7.89357,-23.86521 -0.13177,-5.4684 -0.36763,-15.43727 -0.36763,-15.43727"
       id="path44011" />
    <path
       style="font-variation-settings:normal;opacity:1;vector-effect:none;fill:none;fill-opacity:1;stroke:currentColor;stroke-width:1.05833;stroke-linecap:round;stroke-linejoin:round;stroke-miterlimit:4;stroke-dasharray:none;stroke-dashoffset:0;stroke-opacity:1;-inkscape-stroke:none;stop-color:#000000;stop-opacity:1"
       d="m 99.461669,117.9639 c -0.912191,-0.0165 -1.548253,-0.12765 -1.770476,-0.33966 -0.562242,-0.5364 -2.733682,-13.67359 -3.667476,-13.94282 -0.933792,-0.26924 -2.392617,1.72341 -1.296043,7.08897 0.480993,2.35351 1.032494,9.62164 3.115053,11.20138 2.082562,1.57975 7.560783,1.54461 13.045203,-0.40824 5.48442,-1.95285 17.47957,-8.32004 18.78387,-9.71879 11.30004,-12.118377 12.72231,-2.4707 21.85396,0.63666 7.0657,1.11114 21.82939,8.58939 27.76316,2.37143 0.71159,-0.86196 1.52495,-4.22816 1.51102,-4.87877 -0.0139,-0.65061 0.61237,-9.62887 -0.32556,-9.94668 -0.93792,-0.317807 -2.35438,7.50032 -3.18533,8.98446 -0.83096,1.48415 -1.99901,2.56708 -3.24477,2.57711"
       id="path44283" />
    <path
       style="font-variation-settings:normal;opacity:1;vector-effect:none;fill:none;fill-opacity:1;stroke:currentColor;stroke-width:1.05833;stroke-linecap:round;stroke-linejoin:round;stroke-miterlimit:4;stroke-dasharray:none;stroke-dashoffset:0;stroke-opacity:1;-inkscape-stroke:none;stop-color:#000000;stop-opacity:1"
       d="m 93.122998,102.94968 c 0,0 -2.712681,-20.759386 -0.360305,-32.58452 0.349683,-1.757822 1.006886,-4.178891 1.605965,-5.444327 m 81.268172,0.880821 c 2.13992,8.627896 2.23867,34.568526 2.23867,34.568526"
       id="path45032" />
    <path
       style="font-variation-settings:normal;opacity:1;vector-effect:none;fill:none;fill-opacity:1;stroke:currentColor;stroke-width:1.05833;stroke-linecap:round;stroke-linejoin:round;stroke-miterlimit:4;stroke-dasharray:none;stroke-dashoffset:0;stroke-opacity:1;-inkscape-stroke:none;stop-color:#000000;stop-opacity:1"
       d="m 178.02214,95.803654 c 1.96551,-0.514827 3.7194,0.898907 1.21026,5.208706"
       id="path45079" />
    <path
       style="font-variation-settings:normal;opacity:1;vector-effect:none;fill:none;fill-opacity:1;stroke:currentColor;stroke-width:1.05833;stroke-linecap:round;stroke-linejoin:round;stroke-miterlimit:4;stroke-dasharray:none;stroke-dashoffset:0;stroke-opacity:1;-inkscape-stroke:none;stop-color:#000000;stop-opacity:1"
       d="m 93.245269,103.88632 c -5.989815,1.06518 -0.738714,7.30872 -0.738714,7.30872"
       id="path45126" />
    <path
       style="font-variation-settings:normal;opacity:1;vector-effect:none;fill:none;fill-opacity:1;stroke:currentColor;stroke-width:1.05833;stroke-linecap:round;stroke-linejoin:round;stroke-miterlimit:4;stroke-dasharray:none;stroke-dashoffset:0;stroke-opacity:1;-inkscape-stroke:none;stop-color:#000000;stop-opacity:1"
       d="m 134.39409,106.69855 c 0.21194,4.6151 1.08015,20.20046 1.08015,20.20046"
       id="path48444" />
    <path
       style="font-variation-settings:normal;opacity:1;vector-effect:none;fill:none;fill-opacity:1;stroke:currentColor;stroke-width:1.05833;stroke-linecap:round;stroke-linejoin:round;stroke-miterlimit:4;stroke-dasharray:none;stroke-dashoffset:0;stroke-opacity:1;-inkscape-stroke:none;stop-color:#000000;stop-opacity:1"
       d="m 94.774059,103.06027 c 0,0 -0.846976,-22.076594 0.809255,-28.260713 1.656228,-6.18412 8.867166,-21.560957 13.627596,-23.829037 4.76043,-2.268077 23.69416,-7.333919 29.1176,-6.179468 3.2579,0.693487 6.94795,2.051412 14.01161,9.253031 l 8.46516,14.801107 -2.04758,-8.419066 7.70398,10.126664 c 0,0 -0.53361,-4.64678 -2.06666,-9.195268 -0.31966,-0.948402 5.92611,7.028631 5.6402,6.13179 -0.98689,-3.095647 -1.07246,-4.482476 -0.73858,-4.682304 0.89452,-0.535373 3.483,3.443718 3.61529,5.318539 0.13229,1.874822 3.69538,30.897251 3.69538,30.897251"
       id="path50516" />
    <path
       style="font-variation-settings:normal;opacity:1;vector-effect:none;fill:none;fill-opacity:1;stroke:currentColor;stroke-width:1.05833;stroke-linecap:round;stroke-linejoin:round;stroke-miterlimit:4;stroke-dasharray:none;stroke-dashoffset:0;stroke-opacity:1;-inkscape-stroke:none;stop-color:#000000;stop-opacity:1"
       d="m 94.32056,64.949692 c 4.166441,-14.999866 14.5086,-29.366308 30.92469,-33.223289 17.3669,-4.080375 30.23984,2.722129 35.07055,6.755991 4.83071,4.033863 14.2751,17.9896 14.95981,21.00182 0.68471,3.012218 1.68478,6.913982 1.68478,6.913982 l -1.30321,-0.691752"
       id="path50659" />
    <text
       xml:space="preserve"
       transform="matrix(0.26458333,0,0,0.26458333,1.0583333,-6.3500003)"
       id="text55056"
       style="font-size:40px;line-height:1.25;font-family:'Roboto Flex';-inkscape-font-specification:'Roboto Flex, @opsz=8';font-variation-settings:'opsz' 8;white-space:pre;shape-inside:url(#rect55058)" />
    <path
       style="font-variation-settings:normal;opacity:1;vector-effect:none;fill:none;fill-opacity:1;stroke:currentColor;stroke-width:1.05833;stroke-linecap:round;stroke-linejoin:round;stroke-miterlimit:4;stroke-dasharray:none;stroke-dashoffset:0;stroke-opacity:1;-inkscape-stroke:none;stop-color:#000000;stop-opacity:1"
       d="m 108.58485,104.39223 c 0,0 4.22506,-4.21292 8.41292,-4.09045 4.18786,0.12247 9.02943,3.8933 9.02943,3.8933"
       id="path56197" />
    <path
       style="font-variation-settings:normal;opacity:1;vector-effect:none;fill:none;fill-opacity:1;stroke:currentColor;stroke-width:1.05833;stroke-linecap:round;stroke-linejoin:round;stroke-miterlimit:4;stroke-dasharray:none;stroke-dashoffset:0;stroke-opacity:1;-inkscape-stroke:none;stop-color:#000000;stop-opacity:1"
       d="m 146.46884,102.88457 c 5.27694,-3.243727 7.96773,-4.020421 11.48018,-3.209107 3.51245,0.811317 6.74171,2.886127 6.74171,2.886127"
       id="path56199" />
  </g>
</svg>
