<?xml version="1.0" encoding="UTF-8" standalone="no"?>
<!-- Created with Inkscape (http://www.inkscape.org/) -->

<svg
   width="1000"
   height="1000"
   viewBox="0 0 264.58333 264.58334"
   version="1.1"
   id="svg890"
   xmlns="http://www.w3.org/2000/svg">
  <g
     id="layer3"
     style="display:inline">
    <text
       xml:space="preserve"
       transform="matrix(0.25311984,0,0,0.25311984,6.8175498,-1.593231)"
       id="text55056"
       style="font-size:40px;line-height:1.25;font-family:'Roboto Flex';-inkscape-font-specification:'Roboto Flex, @opsz=8';font-variation-settings:'opsz' 8;white-space:pre;shape-inside:url(#rect55058);stroke-width:1.04528" />
    <path
       style="font-variation-settings:normal;opacity:1;vector-effect:none;fill:none;fill-opacity:1;stroke:currentColor;stroke-width:1.00013;stroke-linecap:round;stroke-linejoin:round;stroke-miterlimit:4;stroke-dasharray:none;stroke-dashoffset:0;stroke-opacity:1;-inkscape-stroke:none;stop-color:#000000;stop-opacity:1"
       d="m 65.193788,242.8448 c 3.195386,-57.64647 5.559761,-115.29293 7.664257,-172.939362 m 0.139502,-3.831555 C 73.6038,49.378254 74.189315,32.682625 74.767967,15.986996"
       id="path97597" />
    <path
       style="font-variation-settings:normal;opacity:1;vector-effect:none;fill:none;fill-opacity:1;stroke:currentColor;stroke-width:1.00013;stroke-linecap:round;stroke-linejoin:round;stroke-miterlimit:4;stroke-dasharray:none;stroke-dashoffset:0;stroke-opacity:1;-inkscape-stroke:none;stop-color:#000000;stop-opacity:1"
       d="m 80.415711,15.552123 c 0.126498,16.418893 0.255022,32.837738 0.376705,49.256741 m 0.02913,3.948536 c 0.438672,59.75794 0.777304,119.5182 0.588361,179.29048"
       id="path97599" />
    <path
       style="font-variation-settings:normal;opacity:1;vector-effect:none;fill:none;fill-opacity:1;stroke:currentColor;stroke-width:1.00013;stroke-linecap:round;stroke-linejoin:round;stroke-miterlimit:4;stroke-dasharray:none;stroke-dashoffset:0;stroke-opacity:1;-inkscape-stroke:none;stop-color:#000000;stop-opacity:1"
       d="m 66.138311,214.98493 -2.767015,-3.86428 -2.427626,0.46891 -0.919043,16.01255 2.51167,3.13508 2.945733,-0.31888"
       id="path97601" />
    <path
       style="font-variation-settings:normal;opacity:1;vector-effect:none;fill:none;fill-opacity:1;stroke:currentColor;stroke-width:1.00013;stroke-linecap:round;stroke-linejoin:round;stroke-miterlimit:4;stroke-dasharray:none;stroke-dashoffset:0;stroke-opacity:1;-inkscape-stroke:none;stop-color:#000000;stop-opacity:1"
       d="m 81.636218,196.53659 c 0,0 5.148909,12.91949 6.010112,14.59839 0.8612,1.6789 -1.819793,3.43245 -2.716094,3.64601 -0.896303,0.21357 -2.223203,-0.14781 -2.223203,-0.14781 l -1.507843,-3.58027"
       id="path97716" />
    <path
       style="font-variation-settings:normal;opacity:1;vector-effect:none;fill:none;fill-opacity:1;stroke:currentColor;stroke-width:1.00013;stroke-linecap:round;stroke-linejoin:round;stroke-miterlimit:4;stroke-dasharray:none;stroke-dashoffset:0;stroke-opacity:1;-inkscape-stroke:none;stop-color:#000000;stop-opacity:1"
       d="M 81.288177,211.29961 97.695484,249.6448"
       id="path97718" />
    <path
       style="font-variation-settings:normal;opacity:1;vector-effect:none;fill:none;fill-opacity:1;stroke:currentColor;stroke-width:1.00013;stroke-linecap:round;stroke-linejoin:round;stroke-miterlimit:4;stroke-dasharray:none;stroke-dashoffset:0;stroke-opacity:1;-inkscape-stroke:none;stop-color:#000000;stop-opacity:1"
       d="m 81.547231,196.97065 21.344139,52.2381"
       id="path97720" />
    <path
       style="font-variation-settings:normal;opacity:1;vector-effect:none;fill:none;fill-opacity:1;stroke:currentColor;stroke-width:1.00013;stroke-linecap:round;stroke-linejoin:round;stroke-miterlimit:4;stroke-dasharray:none;stroke-dashoffset:0;stroke-opacity:1;-inkscape-stroke:none;stop-color:#000000;stop-opacity:1"
       d="m 81.314874,167.16183 29.157736,82.43551"
       id="path97722" />
    <path
       style="font-variation-settings:normal;opacity:1;vector-effect:none;fill:none;fill-opacity:1;stroke:currentColor;stroke-width:1.00013;stroke-linecap:round;stroke-linejoin:round;stroke-miterlimit:4;stroke-dasharray:none;stroke-dashoffset:0;stroke-opacity:1;-inkscape-stroke:none;stop-color:#000000;stop-opacity:1"
       d="m 81.382108,150.43367 c 0,0 10.210816,30.48463 10.937545,33.39847 0.726731,2.91386 0.216041,4.97737 0.573474,7.16152 0.357433,2.18414 3.693474,4.85723 4.301555,6.84808 0.608081,1.99084 14.895028,50.86918 14.895028,50.86918"
       id="path98228" />
    <path
       style="font-variation-settings:normal;opacity:1;vector-effect:none;fill:none;fill-opacity:1;stroke:currentColor;stroke-width:1.00013;stroke-linecap:round;stroke-linejoin:round;stroke-miterlimit:4;stroke-dasharray:none;stroke-dashoffset:0;stroke-opacity:1;-inkscape-stroke:none;stop-color:#000000;stop-opacity:1"
       d="m 81.48395,148.16055 c 0,0 12.270873,38.21912 13.343172,40.64699 1.072299,2.42787 1.569146,5.63883 2.051159,6.83967 0.482016,1.20084 17.624469,53.90414 17.624469,53.90414"
       id="path98230" />
    <path
       style="font-variation-settings:normal;opacity:1;vector-effect:none;fill:none;fill-opacity:1;stroke:currentColor;stroke-width:1.00013;stroke-linecap:round;stroke-linejoin:round;stroke-miterlimit:4;stroke-dasharray:none;stroke-dashoffset:0;stroke-opacity:1;-inkscape-stroke:none;stop-color:#000000;stop-opacity:1"
       d="m 96.959855,195.32537 c 3.461615,1.91718 20.459705,7.95202 38.061925,12.16755 17.6022,4.21553 112.45491,25.91759 112.45491,25.91759"
       id="path98232" />
    <path
       style="font-variation-settings:normal;opacity:1;vector-effect:none;fill:none;fill-opacity:1;stroke:currentColor;stroke-width:1.00013;stroke-linecap:round;stroke-linejoin:round;stroke-miterlimit:4;stroke-dasharray:none;stroke-dashoffset:0;stroke-opacity:1;-inkscape-stroke:none;stop-color:#000000;stop-opacity:1"
       d="m 93.620847,192.9766 c -0.08158,4.03458 0.01038,4.63179 1.120255,5.8791 1.10987,1.24731 1.714985,1.79013 3.181794,1.41045 1.46681,-0.37969 4.823124,-2.11197 5.547884,-1.83116 0.72475,0.28081 73.0488,20.23376 80.5984,22.38182 7.54959,2.14807 41.2966,8.58432 41.2966,8.58432"
       id="path98234" />
    <path
       style="font-variation-settings:normal;opacity:1;vector-effect:none;fill:none;fill-opacity:1;stroke:currentColor;stroke-width:1.00013;stroke-linecap:round;stroke-linejoin:round;stroke-miterlimit:4;stroke-dasharray:none;stroke-dashoffset:0;stroke-opacity:1;-inkscape-stroke:none;stop-color:#000000;stop-opacity:1"
       d="m 88.860513,214.92633 c 1.616606,-0.58385 2.619198,-2.46841 4.070187,-2.35025 1.450989,0.11815 43.32652,4.31885 53.5838,4.98824 10.25728,0.66938 101.52923,6.79864 101.52923,6.79864"
       id="path98236" />
    <path
       style="font-variation-settings:normal;opacity:1;vector-effect:none;fill:none;fill-opacity:1;stroke:currentColor;stroke-width:1.00013;stroke-linecap:round;stroke-linejoin:round;stroke-miterlimit:4;stroke-dasharray:none;stroke-dashoffset:0;stroke-opacity:1;-inkscape-stroke:none;stop-color:#000000;stop-opacity:1"
       d="m 81.316851,176.03388 c 6.271637,1.70164 56.698859,13.05793 69.026589,15.89514 12.32771,2.83722 86.51902,17.93838 86.51902,17.93838"
       id="path98238" />
    <path
       style="font-variation-settings:normal;opacity:1;vector-effect:none;fill:none;fill-opacity:1;stroke:currentColor;stroke-width:1.00013;stroke-linecap:round;stroke-linejoin:round;stroke-miterlimit:4;stroke-dasharray:none;stroke-dashoffset:0;stroke-opacity:1;-inkscape-stroke:none;stop-color:#000000;stop-opacity:1"
       d="M 81.334648,119.23468 115.87612,240.46721"
       id="path98240" />
    <path
       style="font-variation-settings:normal;opacity:1;vector-effect:none;fill:none;fill-opacity:1;stroke:currentColor;stroke-width:1.00013;stroke-linecap:round;stroke-linejoin:round;stroke-miterlimit:4;stroke-dasharray:none;stroke-dashoffset:0;stroke-opacity:1;-inkscape-stroke:none;stop-color:#000000;stop-opacity:1"
       d="m 67.941451,188.41098 c 2.184151,-9.24139 5.081435,-12.01632 7.508886,-13.45238 C 77.877792,173.52255 244.7983,75.340328 244.7983,75.340328"
       id="path98266" />
    <path
       style="font-variation-settings:normal;opacity:1;vector-effect:none;fill:none;fill-opacity:1;stroke:currentColor;stroke-width:1.00013;stroke-linecap:round;stroke-linejoin:round;stroke-miterlimit:4;stroke-dasharray:none;stroke-dashoffset:0;stroke-opacity:1;-inkscape-stroke:none;stop-color:#000000;stop-opacity:1"
       d="m 65.719551,213.78527 c 1.224211,-24.03402 0.989997,-21.97223 4.24105,-28.81971 3.251053,-6.84749 4.32635,-10.02444 10.731974,-12.45329 L 258.90348,71.008115"
       id="path98268" />
    <path
       style="font-variation-settings:normal;opacity:1;vector-effect:none;fill:none;fill-opacity:1;stroke:currentColor;stroke-width:1.00013;stroke-linecap:round;stroke-linejoin:round;stroke-miterlimit:4;stroke-dasharray:none;stroke-dashoffset:0;stroke-opacity:1;-inkscape-stroke:none;stop-color:#000000;stop-opacity:1"
       d="m 80.753577,59.521493 1.186876,5.228543 m 0.930467,3.782892 0.48274,1.96262 m 0.478641,1.945951 38.185729,155.247101"
       id="path98270" />
    <path
       style="font-variation-settings:normal;opacity:1;vector-effect:none;fill:none;fill-opacity:1;stroke:currentColor;stroke-width:1.00013;stroke-linecap:round;stroke-linejoin:round;stroke-miterlimit:4;stroke-dasharray:none;stroke-dashoffset:0;stroke-opacity:1;-inkscape-stroke:none;stop-color:#000000;stop-opacity:1"
       d="m 94.121176,12.308061 8.154914,46.967593"
       id="path98272" />
    <path
       style="font-variation-settings:normal;opacity:1;vector-effect:none;fill:none;fill-opacity:1;stroke:currentColor;stroke-width:1.00013;stroke-linecap:round;stroke-linejoin:round;stroke-miterlimit:4;stroke-dasharray:none;stroke-dashoffset:0;stroke-opacity:1;-inkscape-stroke:none;stop-color:#000000;stop-opacity:1"
       d="M 103.43039,65.741404 135.91297,246.73768"
       id="path98274" />
    <path
       style="font-variation-settings:normal;opacity:1;vector-effect:none;fill:none;fill-opacity:1;stroke:currentColor;stroke-width:1.00013;stroke-linecap:round;stroke-linejoin:round;stroke-miterlimit:4;stroke-dasharray:none;stroke-dashoffset:0;stroke-opacity:1;-inkscape-stroke:none;stop-color:#000000;stop-opacity:1"
       d="m 87.312141,13.999309 11.020935,48.102157 m 0.94471,4.123289 40.518264,176.846575"
       id="path98276" />
    <path
       style="font-variation-settings:normal;opacity:1;vector-effect:none;fill:none;fill-opacity:1;stroke:currentColor;stroke-width:1.00013;stroke-linecap:round;stroke-linejoin:round;stroke-miterlimit:4;stroke-dasharray:none;stroke-dashoffset:0;stroke-opacity:1;-inkscape-stroke:none;stop-color:#000000;stop-opacity:1"
       d="M 98.284623,17.574769 139.99601,247.58506"
       id="path98278" />
    <path
       style="font-variation-settings:normal;opacity:1;vector-effect:none;fill:none;fill-opacity:1;stroke:currentColor;stroke-width:1.00013;stroke-linecap:round;stroke-linejoin:round;stroke-miterlimit:4;stroke-dasharray:none;stroke-dashoffset:0;stroke-opacity:1;-inkscape-stroke:none;stop-color:#000000;stop-opacity:1"
       d="M 47.989769,9.1122406 65.1632,64.800522"
       id="path98280" />
    <path
       style="font-variation-settings:normal;opacity:1;vector-effect:none;fill:none;fill-opacity:1;stroke:currentColor;stroke-width:1.00013;stroke-linecap:round;stroke-linejoin:round;stroke-miterlimit:4;stroke-dasharray:none;stroke-dashoffset:0;stroke-opacity:1;-inkscape-stroke:none;stop-color:#000000;stop-opacity:1"
       d="m 67.117852,71.033282 5.023294,16.974499"
       id="path98282" />
    <path
       style="font-variation-settings:normal;opacity:1;vector-effect:none;fill:none;fill-opacity:1;stroke:currentColor;stroke-width:1.00013;stroke-linecap:round;stroke-linejoin:round;stroke-miterlimit:4;stroke-dasharray:none;stroke-dashoffset:0;stroke-opacity:1;-inkscape-stroke:none;stop-color:#000000;stop-opacity:1"
       d="M 68.885307,166.22201 11.188536,48.985544"
       id="path98284" />
    <path
       style="font-variation-settings:normal;opacity:1;vector-effect:none;fill:none;fill-opacity:1;stroke:currentColor;stroke-width:1.00013;stroke-linecap:round;stroke-linejoin:round;stroke-miterlimit:4;stroke-dasharray:none;stroke-dashoffset:0;stroke-opacity:1;-inkscape-stroke:none;stop-color:#000000;stop-opacity:1"
       d="M 9.8528075,79.117919 48.167353,148.24543"
       id="path98286" />
    <path
       style="font-variation-settings:normal;opacity:1;vector-effect:none;fill:none;fill-opacity:1;stroke:currentColor;stroke-width:1.00013;stroke-linecap:round;stroke-linejoin:round;stroke-miterlimit:4;stroke-dasharray:none;stroke-dashoffset:0;stroke-opacity:1;-inkscape-stroke:none;stop-color:#000000;stop-opacity:1"
       d="m 47.430447,149.48222 c -0.393621,4.32006 -0.318113,4.64797 1.158494,6.99851 1.476607,2.35055 8.431766,13.61807 9.355345,14.22074 0.923578,0.60267 2.014955,1.09836 2.347051,1.99957 0.332098,0.90121 1.190656,0.99 2.423959,0.33769 1.233301,-0.65231 -0.07971,-4.26482 -0.822202,-6.47624 -0.742499,-2.21141 -7.83539,-14.84928 -8.723312,-15.34567 -0.887923,-0.4964 -1.832476,-0.71034 -2.448427,-1.93456 -0.615955,-1.2242 -2.965103,-1.27035 -3.290908,0.19996 z"
       id="path98288" />
    <path
       style="font-variation-settings:normal;opacity:1;vector-effect:none;fill:none;fill-opacity:1;stroke:currentColor;stroke-width:1.00013;stroke-linecap:round;stroke-linejoin:round;stroke-miterlimit:4;stroke-dasharray:none;stroke-dashoffset:0;stroke-opacity:1;-inkscape-stroke:none;stop-color:#000000;stop-opacity:1"
       d="m 61.97909,174.01265 c 0,0 5.020607,7.48442 5.101007,9.35674 0.0804,1.87233 -0.793535,22.04564 -0.793535,22.04564"
       id="path98290" />
    <path
       style="font-variation-settings:normal;opacity:1;vector-effect:none;fill:none;fill-opacity:1;stroke:currentColor;stroke-width:1.00013;stroke-linecap:round;stroke-linejoin:round;stroke-miterlimit:4;stroke-dasharray:none;stroke-dashoffset:0;stroke-opacity:1;-inkscape-stroke:none;stop-color:#000000;stop-opacity:1"
       d="M 10.927054,205.14516 64.606499,177.50841"
       id="path98292" />
    <path
       style="font-variation-settings:normal;opacity:1;vector-effect:none;fill:none;fill-opacity:1;stroke:currentColor;stroke-width:1.00013;stroke-linecap:round;stroke-linejoin:round;stroke-miterlimit:4;stroke-dasharray:none;stroke-dashoffset:0;stroke-opacity:1;-inkscape-stroke:none;stop-color:#000000;stop-opacity:1"
       d="M 13.268512,199.68479 64.28629,177.95307"
       id="path98294" />
    <path
       style="font-variation-settings:normal;opacity:1;vector-effect:none;fill:none;fill-opacity:1;stroke:currentColor;stroke-width:1.00013;stroke-linecap:round;stroke-linejoin:round;stroke-miterlimit:4;stroke-dasharray:none;stroke-dashoffset:0;stroke-opacity:1;-inkscape-stroke:none;stop-color:#000000;stop-opacity:1"
       d="M 16.048338,207.38664 68.374927,180.8965"
       id="path98296" />
    <path
       style="font-variation-settings:normal;opacity:1;vector-effect:none;fill:none;fill-opacity:1;stroke:currentColor;stroke-width:1.00013;stroke-linecap:round;stroke-linejoin:round;stroke-miterlimit:4;stroke-dasharray:none;stroke-dashoffset:0;stroke-opacity:1;-inkscape-stroke:none;stop-color:#000000;stop-opacity:1"
       d="m 10.409681,201.9836 c 0,0 16.992177,-7.38374 18.232472,-7.47813 1.240295,-0.0944 7.578801,-0.2461 12.084131,-2.4715 4.505334,-2.22538 26.088137,-12.29876 26.088137,-12.29876"
       id="path98298" />
    <path
       style="font-variation-settings:normal;opacity:1;vector-effect:none;fill:none;fill-opacity:1;stroke:currentColor;stroke-width:1.00013;stroke-linecap:round;stroke-linejoin:round;stroke-miterlimit:4;stroke-dasharray:none;stroke-dashoffset:0;stroke-opacity:1;-inkscape-stroke:none;stop-color:#000000;stop-opacity:1"
       d="M 9.2602766,70.223665 68.793017,169.21508"
       id="path98524" />
    <path
       style="font-variation-settings:normal;opacity:1;vector-effect:none;fill:none;fill-opacity:1;stroke:currentColor;stroke-width:1.00013;stroke-linecap:round;stroke-linejoin:round;stroke-miterlimit:4;stroke-dasharray:none;stroke-dashoffset:0;stroke-opacity:1;-inkscape-stroke:none;stop-color:#000000;stop-opacity:1"
       d="M 8.4884134,73.777102 68.617531,169.65974"
       id="path98526" />
    <path
       style="font-variation-settings:normal;opacity:1;vector-effect:none;fill:none;fill-opacity:1;stroke:currentColor;stroke-width:1.00013;stroke-linecap:round;stroke-linejoin:round;stroke-miterlimit:4;stroke-dasharray:none;stroke-dashoffset:0;stroke-opacity:1;-inkscape-stroke:none;stop-color:#000000;stop-opacity:1"
       d="M 36.387352,16.730893 54.393179,68.68206 m 1.392393,4.042839 15.237042,43.982511"
       id="path98528" />
    <path
       style="font-variation-settings:normal;opacity:1;vector-effect:none;fill:none;fill-opacity:1;stroke:currentColor;stroke-width:1.00013;stroke-linecap:round;stroke-linejoin:round;stroke-miterlimit:4;stroke-dasharray:none;stroke-dashoffset:0;stroke-opacity:1;-inkscape-stroke:none;stop-color:#000000;stop-opacity:1"
       d="M 29.611176,23.138615 44.538584,61.457181"
       id="path98530" />
    <path
       style="font-variation-settings:normal;opacity:1;vector-effect:none;fill:none;fill-opacity:1;stroke:currentColor;stroke-width:1.00013;stroke-linecap:round;stroke-linejoin:round;stroke-miterlimit:4;stroke-dasharray:none;stroke-dashoffset:0;stroke-opacity:1;-inkscape-stroke:none;stop-color:#000000;stop-opacity:1"
       d="M 48.984661,74.231201 69.843143,132.97386"
       id="path98532" />
    <path
       style="font-variation-settings:normal;opacity:1;vector-effect:none;fill:none;fill-opacity:1;stroke:currentColor;stroke-width:1.00013;stroke-linecap:round;stroke-linejoin:round;stroke-miterlimit:4;stroke-dasharray:none;stroke-dashoffset:0;stroke-opacity:1;-inkscape-stroke:none;stop-color:#000000;stop-opacity:1"
       d="m 40.004063,20.607687 16.017558,47.80216 m 1.398824,4.159852 13.964328,41.824921"
       id="path98534" />
    <path
       style="font-variation-settings:normal;opacity:1;vector-effect:none;fill:none;fill-opacity:1;stroke:currentColor;stroke-width:1.00013;stroke-linecap:round;stroke-linejoin:round;stroke-miterlimit:4;stroke-dasharray:none;stroke-dashoffset:0;stroke-opacity:1;-inkscape-stroke:none;stop-color:#000000;stop-opacity:1"
       d="m 63.410252,173.25687 5.009419,8.17867"
       id="path98536" />
    <path
       style="font-variation-settings:normal;opacity:1;vector-effect:none;fill:none;fill-opacity:1;stroke:currentColor;stroke-width:1.00013;stroke-linecap:round;stroke-linejoin:round;stroke-miterlimit:4;stroke-dasharray:none;stroke-dashoffset:0;stroke-opacity:1;-inkscape-stroke:none;stop-color:#000000;stop-opacity:1"
       d="m 81.232846,73.709111 12.138491,-6.70399 12.389843,-1.823562 -0.83741,-3.880813 -0.53624,0.04351 c 0,0 -0.25764,-1.936123 -2.07317,-1.676912 -1.81553,0.259208 -1.35199,2.238506 -1.35199,2.238506 l -20.153466,3.008148 m -7.99571,1.193453 -5.18496,0.773916 c 0,0 -0.634307,-2.157407 -2.3911,-1.833702 -1.756793,0.323708 -1.466121,2.236063 -1.466121,2.236063 l -13.013129,2.132586 -0.232642,-0.68604 -1.178594,0.21691 c 0,0 -0.468958,-0.479793 -0.397294,-0.717504 0.07166,-0.237712 0.685869,-0.228972 0.809444,-0.456547 0.123574,-0.227572 -0.203455,-6.341827 -0.511431,-6.592997 -0.307976,-0.251171 -4.668058,0.192089 -4.85718,0.303957 -0.18912,0.111864 0.413374,1.847157 0.0881,1.993979 -0.325282,0.146822 -0.596028,1.128606 -0.781826,2.156533 -0.185801,1.027927 -0.52489,3.453284 -0.441689,3.714941 0.0832,0.261658 0.622943,1.396204 0.622943,1.396204 l -0.314617,1.226837 1.038064,2.280981 12.329885,-1.963742 15.254435,3.717914"
       id="path98538" />
    <path
       style="font-variation-settings:normal;opacity:1;vector-effect:none;fill:none;fill-opacity:1;stroke:currentColor;stroke-width:1.00013;stroke-linecap:round;stroke-linejoin:round;stroke-miterlimit:4;stroke-dasharray:none;stroke-dashoffset:0;stroke-opacity:1;-inkscape-stroke:none;stop-color:#000000;stop-opacity:1"
       d="M 72.645866,74.38309 61.040303,71.682971 72.737282,69.859757"
       id="path98540" />
    <path
       style="font-variation-settings:normal;opacity:1;vector-effect:none;fill:none;fill-opacity:1;stroke:currentColor;stroke-width:1.00013;stroke-linecap:round;stroke-linejoin:round;stroke-miterlimit:4;stroke-dasharray:none;stroke-dashoffset:0;stroke-opacity:1;-inkscape-stroke:none;stop-color:#000000;stop-opacity:1"
       d="m 81.093887,71.659546 7.453479,-3.959118 -7.571111,1.024781"
       id="path98542" />
    <path
       style="font-variation-settings:normal;opacity:1;vector-effect:none;fill:none;fill-opacity:1;stroke:currentColor;stroke-width:1.00013;stroke-linecap:round;stroke-linejoin:round;stroke-miterlimit:4;stroke-dasharray:none;stroke-dashoffset:0;stroke-opacity:1;-inkscape-stroke:none;stop-color:#000000;stop-opacity:1"
       d="m 167.37017,92.730776 c -16.80582,18.361844 -13.36969,39.411974 -8.1307,46.042724 5.23898,6.63076 -9.23679,13.7916 -9.01159,22.98426 0.22518,9.19266 0.11792,15.94063 -5.01247,19.56273 -5.13035,3.62209 1.67568,14.14195 10.4528,11.0786 8.77712,-3.06335 16.25212,-16.96956 23.14294,-18.03497 6.89082,-1.06538 25.98298,-8.53752 30.03773,-13.49593 4.05474,-4.95841 1.81344,-9.11973 11.69133,-12.12057 9.87792,-3.00083 12.83849,-8.20931 13.51672,-15.41835 0.67823,-7.20903 -2.9831,-22.96211 1.38559,-26.45005 4.36869,-3.48797 10.90848,-13.770734 4.22826,-22.706813 -6.68019,-8.93608 -17.30784,-11.629528 -10.81177,-17.058125 6.49608,-5.428597 8.45127,-11.3417 4.83762,-15.714016 -3.61365,-4.372304 -21.25134,-2.974778 -38.93803,4.664063 -17.68672,7.638849 -26.35521,26.403175 -27.38843,36.666447 z"
       id="path101793" />
    <path
       style="font-variation-settings:normal;opacity:1;vector-effect:none;fill:none;fill-opacity:1;stroke:currentColor;stroke-width:1.00013;stroke-linecap:round;stroke-linejoin:round;stroke-miterlimit:4;stroke-dasharray:none;stroke-dashoffset:0;stroke-opacity:1;-inkscape-stroke:none;stop-color:#000000;stop-opacity:1"
       d="m 152.00955,208.96881 c -12.3603,7.00977 -11.19328,7.37966 -11.19328,11.99422 0,4.61457 6.07748,4.93888 6.07748,8.78891 0,3.85003 5.68275,5.37258 8.21946,1.20476 2.53669,-4.16783 -0.80142,-5.5875 2.19758,-8.59614 2.99901,-3.00865 7.29484,-5.72686 7.62733,-8.99338 0.33248,-3.26654 -7.59289,-7.75216 -12.92857,-4.39837 z"
       id="path101838" />
    <path
       style="font-variation-settings:normal;opacity:1;vector-effect:none;fill:none;fill-opacity:1;stroke:currentColor;stroke-width:1.00013;stroke-linecap:round;stroke-linejoin:round;stroke-miterlimit:4;stroke-dasharray:none;stroke-dashoffset:0;stroke-opacity:1;-inkscape-stroke:none;stop-color:#000000;stop-opacity:1"
       d="m 154.58786,38.791849 c -4.85895,0.820969 -10.25572,6.178745 -9.68241,10.993392 0.26953,2.26347 4.33306,2.114541 5.643,3.994597 1.66935,2.395893 -0.43625,7.183782 2.23071,8.43204 4.52094,2.116015 12.15089,-1.43493 13.66772,-6.126705 1.87948,-5.813535 8.13116,-6.675281 6.52344,-10.441838 -1.357,-3.179141 -6.98595,-1.060037 -10.25394,-2.309966 -2.90439,-1.110859 -5.05714,-5.060461 -8.12852,-4.54152 z"
       id="path103111" />
  </g>
</svg>
