<?xml version="1.0" encoding="UTF-8" standalone="no"?>
<!-- Created with Inkscape (http://www.inkscape.org/) -->

<svg
   width="1000"
   height="1000"
   viewBox="0 0 264.58333 264.58334"
   version="1.1"
   id="svg890"
   xmlns="http://www.w3.org/2000/svg">
  <defs
     id="defs887">
    <rect
       x="852.22266"
       y="364.35156"
       width="177.28125"
       height="172.19141"
       id="rect55058" />
  </defs>
  <g
     id="layer3"
     style="display:inline">
    <text
       xml:space="preserve"
       transform="matrix(0.25311984,0,0,0.25311984,6.8175498,-1.593231)"
       id="text55056"
       style="font-size:40px;line-height:1.25;font-family:'Roboto Flex';-inkscape-font-specification:'Roboto Flex, @opsz=8';font-variation-settings:'opsz' 8;white-space:pre;shape-inside:url(#rect55058);stroke-width:1.04528" />
    <g
       id="g14357"
       transform="matrix(0.99599697,0,0,0.99599697,-0.5855664,0.55891935)"
       style="stroke-width:1.00402">
      <path
         style="font-variation-settings:normal;opacity:1;vector-effect:none;fill:none;fill-opacity:1;stroke:currentColor;stroke-width:1.00415;stroke-linecap:round;stroke-linejoin:round;stroke-miterlimit:4;stroke-dasharray:none;stroke-dashoffset:0;stroke-opacity:1;-inkscape-stroke:none;stop-color:#000000;stop-opacity:1"
         d="m 261.66458,146.63352 c 0,0 3.27391,1.55868 3.4197,2.28199 0.14579,0.72332 -0.93091,8.81804 -1.24962,9.45779 -0.31873,0.63974 -3.58712,2.05099 -5.40097,6.73483 -1.81385,4.68384 -6.74989,19.59297 -17.61892,26.49221 -10.86903,6.89924 -18.42527,9.75459 -33.15785,8.41533 -14.73256,-1.33926 -17.09318,-14.87502 -18.1579,-19.02312 -1.0647,-4.14809 -1.65466,-8.12867 -2.85973,-9.47838 -1.31761,-1.47576 -7.63641,-1.55449 -9.51895,0.86208 -1.85871,2.38599 -6.97287,19.35489 -12.95384,23.11901 -5.98097,3.76413 -16.21298,8.95551 -32.6923,5.07475 -16.47932,-3.88074 -24.4622,-15.59644 -27.29722,-25.47481 -2.83501,-9.87837 -4.327423,-10.8663 -6.017989,-11.92811 -1.690578,-1.06181 -2.224933,-1.56745 -2.42942,-3.83527 -0.204475,-2.26783 -0.109158,-6.98619 -0.109158,-6.98619"
         id="path1462" />
      <path
         style="font-variation-settings:normal;opacity:1;vector-effect:none;fill:none;fill-opacity:1;stroke:currentColor;stroke-width:1.00415;stroke-linecap:round;stroke-linejoin:round;stroke-miterlimit:4;stroke-dasharray:none;stroke-dashoffset:0;stroke-opacity:1;-inkscape-stroke:none;stop-color:#000000;stop-opacity:1"
         d="m 237.9393,148.68208 c 0.59944,-0.16002 -18.88822,-6.5901 -21.4089,-7.28782 -1.82169,-0.50424 -3.97688,-3.63767 -7.69345,-5.94698 -3.71656,-2.3093 -9.15009,-2.39921 -10.78166,-2.18902 -1.63157,0.21018 -5.42549,3.77074 -7.12103,5.62693 -1.69554,1.85619 -6.41413,7.01811 -7.48906,7.95201 -1.07492,0.9339 -2.72584,1.40904 -4.69568,0.54064 -1.96985,-0.86841 -3.44017,-2.21791 -3.17479,-4.31525 0.26539,-2.09733 14.88866,-11.21576 14.88866,-11.21576 0,0 3.01319,-2.2956 6.0323,-3.06249 3.01909,-0.76688 5.3654,-0.43702 10.99398,-0.0276 5.62859,0.40944 17.11949,2.61811 21.16732,4.20852 4.04782,1.59039 32.46109,12.56276 32.46109,12.56276 0,0 0.59463,0.19288 0.6408,0.364 l 0.0179,0.5981"
         id="path1151" />
      <path
         style="font-variation-settings:normal;opacity:1;vector-effect:none;fill:none;fill-opacity:1;stroke:currentColor;stroke-width:1.00415;stroke-linecap:round;stroke-linejoin:round;stroke-miterlimit:4;stroke-dasharray:none;stroke-dashoffset:0;stroke-opacity:1;-inkscape-stroke:none;stop-color:#000000;stop-opacity:1"
         d="m 259.19925,146.65471 c 0,0 -21.20455,1.73334 -38.00511,4.0982 -16.80056,2.36488 -34.6147,6.68789 -38.79401,6.86261 -4.17932,0.17473 -8.58667,-1.66471 -22.78741,-3.18458 -14.20075,-1.51988 -53.90317,-4.73646 -53.90317,-4.73646 l 0.4014,-1.26938"
         id="path2657" />
      <path
         style="font-variation-settings:normal;opacity:1;vector-effect:none;fill:none;fill-opacity:1;stroke:currentColor;stroke-width:1.00415;stroke-linecap:round;stroke-linejoin:round;stroke-miterlimit:4;stroke-dasharray:none;stroke-dashoffset:0;stroke-opacity:1;-inkscape-stroke:none;stop-color:#000000;stop-opacity:1"
         d="m 193.48311,177.21228 c 3.07442,17.44958 12.23794,22.88577 33.08359,16.92708 20.84565,-5.95868 26.81273,-29.09537 26.37978,-33.42345 -0.43295,-4.32808 -0.29537,-6.8323 -8.37209,-6.31529 -8.07672,0.51701 -40.80099,3.50794 -46.62628,9.01487 -5.82529,5.50693 -4.465,13.79679 -4.465,13.79679 z"
         id="path2659" />
      <path
         style="font-variation-settings:normal;opacity:1;vector-effect:none;fill:none;fill-opacity:1;stroke:currentColor;stroke-width:1.00415;stroke-linecap:round;stroke-linejoin:round;stroke-miterlimit:4;stroke-dasharray:none;stroke-dashoffset:0;stroke-opacity:1;-inkscape-stroke:none;stop-color:#000000;stop-opacity:1"
         d="m 109.51777,174.87142 c 0,0 -1.84373,-13.17495 0.93533,-16.42354 2.77905,-3.24858 16.10127,-3.10164 33.15932,-1.15527 17.05806,1.94637 25.83281,4.21988 26.30742,10.80672 0.4746,6.58684 -3.01379,23.03007 -12.81605,27.61422 -8.86943,4.14789 -16.77785,4.57312 -29.80637,0.78605 -13.02854,-3.78707 -16.99789,-17.27989 -17.77965,-21.62818 z"
         id="path2661" />
      <path
         style="font-variation-settings:normal;opacity:1;vector-effect:none;fill:none;fill-opacity:1;stroke:currentColor;stroke-width:1.00415;stroke-linecap:round;stroke-linejoin:round;stroke-miterlimit:4;stroke-dasharray:none;stroke-dashoffset:0;stroke-opacity:1;-inkscape-stroke:none;stop-color:#000000;stop-opacity:1"
         d="m 99.324677,146.0636 c 0,0 5.449133,-11.01712 8.915913,-13.23715 3.46676,-2.22004 5.33373,-2.95735 5.33373,-2.95735"
         id="path3251" />
      <path
         style="font-variation-settings:normal;opacity:1;vector-effect:none;fill:none;fill-opacity:1;stroke:currentColor;stroke-width:1.00415;stroke-linecap:round;stroke-linejoin:round;stroke-miterlimit:4;stroke-dasharray:none;stroke-dashoffset:0;stroke-opacity:1;-inkscape-stroke:none;stop-color:#000000;stop-opacity:1"
         d="m 112.20563,137.88816 c 0,0 1.46348,-2.44738 2.65799,-2.97861 1.19452,-0.53122 2.0095,-1.1519 2.0095,-1.1519"
         id="path3288" />
      <path
         style="font-variation-settings:normal;opacity:1;vector-effect:none;fill:none;fill-opacity:1;stroke:currentColor;stroke-width:1.00415;stroke-linecap:round;stroke-linejoin:round;stroke-miterlimit:4;stroke-dasharray:none;stroke-dashoffset:0;stroke-opacity:1;-inkscape-stroke:none;stop-color:#000000;stop-opacity:1"
         d="m 119.94386,137.32998 c 0,0 4.78034,9.11928 5.89071,9.71859 1.11036,0.59933 2.05862,0.68111 3.68777,-0.47364 1.62914,-1.15475 1.59875,-2.93692 1.5044,-3.45405 -0.0944,-0.51711 -0.93281,-2.05814 -2.51746,-3.9542 -1.58465,-1.89607 -5.07035,-5.47957 -5.07035,-5.47957"
         id="path3290" />
      <path
         style="font-variation-settings:normal;opacity:1;vector-effect:none;fill:none;fill-opacity:1;stroke:currentColor;stroke-width:1.00415;stroke-linecap:round;stroke-linejoin:round;stroke-miterlimit:4;stroke-dasharray:none;stroke-dashoffset:0;stroke-opacity:1;-inkscape-stroke:none;stop-color:#000000;stop-opacity:1"
         d="m 64.964946,132.16912 c 5.02827,6.76492 17.766791,16.87476 28.662349,15.5794 9.221095,-1.09629 28.920265,-15.65054 29.198375,-23.84105 0.27812,-8.19051 -4.24284,-14.67547 -8.49115,-21.1537 -4.01973,-6.129674 -9.64191,-11.611702 -16.973913,-9.067484 -7.331991,2.544221 -17.339955,8.687724 -24.467885,15.677494 -8.494891,8.33022 -12.956048,16.04043 -7.927776,22.80534 z"
         id="path3320" />
      <path
         style="font-variation-settings:normal;opacity:1;vector-effect:none;fill:none;fill-opacity:1;stroke:currentColor;stroke-width:1.00415;stroke-linecap:round;stroke-linejoin:round;stroke-miterlimit:4;stroke-dasharray:none;stroke-dashoffset:0;stroke-opacity:1;-inkscape-stroke:none;stop-color:#000000;stop-opacity:1"
         d="m 51.398275,159.34044 c -2.463071,-4.99413 -5.939731,-15.9781 -14.068624,-14.12015 -8.128898,1.85796 -15.802542,8.33914 -20.772863,14.37782 -5.035878,6.11834 -6.6011502,10.5659 -3.110184,15.94483 3.490965,5.37895 12.874937,16.46899 19.05073,18.30803 6.674782,1.98763 9.745672,-1.08941 14.61644,-4.8392 5.397003,-4.15493 7.404372,-9.66544 7.986261,-14.42033 0.564013,-4.60882 -1.238689,-10.25687 -3.70176,-15.251 z"
         id="path4209" />
      <path
         style="font-variation-settings:normal;opacity:1;vector-effect:none;fill:none;fill-opacity:1;stroke:currentColor;stroke-width:1.00415;stroke-linecap:round;stroke-linejoin:round;stroke-miterlimit:4;stroke-dasharray:none;stroke-dashoffset:0;stroke-opacity:1;-inkscape-stroke:none;stop-color:#000000;stop-opacity:1"
         d="m 57.9178,155.4658 c 6.158101,20.60637 1.518487,24.90286 -1.235321,29.35935 -2.753811,4.45649 -12.700768,13.468 -20.482123,13.61871 -7.781355,0.15073 -13.991628,-6.69799 -17.169556,-9.54113 -3.177927,-2.84314 -6.779128,-7.07691 -8.407852,-7.83095 -1.6287242,-0.75405 -3.1038747,-0.71616 -3.5999387,-0.97341 -0.4960651,-0.25724 -5.3094474,-6.28624 -5.3043983,-6.93881 0.00507,-0.65258 7.2956976,-12.07177 16.172378,-21.42651 8.876681,-9.35474 25.737713,-12.95855 33.459742,-21.97425 0,0 6.262868,-7.39942 10.130404,-13.27053 3.867536,-5.87112 8.774665,-13.17089 23.192515,-23.338927 14.417846,-10.168036 25.32083,-15.937117 26.5347,-15.835652 1.21386,0.101462 5.92626,7.265108 6.01798,8.148827 0.0918,0.88372 -1.90347,6.108569 -0.30546,9.258216 1.59802,3.14964 13.55614,23.559056 9.59984,32.925386 -3.75057,8.87929 -19.92926,23.81284 -32.586266,24.35638 -11.674284,0.50134 -17.371845,-2.69269 -24.808697,-7.02134 -7.437129,-4.3288 -10.425657,-7.91652 -13.882654,-5.55155 -3.121131,2.13518 -0.703117,5.66411 2.674707,16.03619 z"
         id="path6498" />
      <path
         style="font-variation-settings:normal;opacity:1;vector-effect:none;fill:none;fill-opacity:1;stroke:currentColor;stroke-width:1.00415;stroke-linecap:round;stroke-linejoin:round;stroke-miterlimit:4;stroke-dasharray:none;stroke-dashoffset:0;stroke-opacity:1;-inkscape-stroke:none;stop-color:#000000;stop-opacity:1"
         d="m 13.97254,166.71543 c 0,0 10.754798,-6.73335 16.99158,-10.3158 6.236781,-3.58246 14.529768,-7.74339 14.529768,-7.74339"
         id="path8993" />
      <path
         style="font-variation-settings:normal;opacity:1;vector-effect:none;fill:none;fill-opacity:1;stroke:currentColor;stroke-width:1.00415;stroke-linecap:round;stroke-linejoin:round;stroke-miterlimit:4;stroke-dasharray:none;stroke-dashoffset:0;stroke-opacity:1;-inkscape-stroke:none;stop-color:#000000;stop-opacity:1"
         d="m 16.547113,176.85273 c 0,0 11.701485,-6.5081 18.275705,-9.79121 6.574224,-3.28311 16.179111,-7.73329 16.179111,-7.73329"
         id="path9108" />
      <path
         style="font-variation-settings:normal;opacity:1;vector-effect:none;fill:none;fill-opacity:1;stroke:currentColor;stroke-width:1.00415;stroke-linecap:round;stroke-linejoin:round;stroke-miterlimit:4;stroke-dasharray:none;stroke-dashoffset:0;stroke-opacity:1;-inkscape-stroke:none;stop-color:#000000;stop-opacity:1"
         d="m 54.346894,144.0806 6.947427,-3.63634"
         id="path9223" />
      <path
         style="font-variation-settings:normal;opacity:1;vector-effect:none;fill:none;fill-opacity:1;stroke:currentColor;stroke-width:1.00415;stroke-linecap:round;stroke-linejoin:round;stroke-miterlimit:4;stroke-dasharray:none;stroke-dashoffset:0;stroke-opacity:1;-inkscape-stroke:none;stop-color:#000000;stop-opacity:1"
         d="m 58.269546,155.81104 15.593846,-7.4912"
         id="path9338" />
      <path
         style="font-variation-settings:normal;opacity:1;vector-effect:none;fill:none;fill-opacity:1;stroke:currentColor;stroke-width:1.00415;stroke-linecap:round;stroke-linejoin:round;stroke-miterlimit:4;stroke-dasharray:none;stroke-dashoffset:0;stroke-opacity:1;-inkscape-stroke:none;stop-color:#000000;stop-opacity:1"
         d="m 69.729521,136.65634 c 0,0 15.532839,-7.2672 19.374288,-8.75256 3.84145,-1.48536 9.527048,-3.2789 14.029911,-3.94453 4.50287,-0.66564 19.29645,-1.83986 19.29645,-1.83986"
         id="path9453" />
      <path
         style="font-variation-settings:normal;opacity:1;vector-effect:none;fill:none;fill-opacity:1;stroke:currentColor;stroke-width:1.00415;stroke-linecap:round;stroke-linejoin:round;stroke-miterlimit:4;stroke-dasharray:none;stroke-dashoffset:0;stroke-opacity:1;-inkscape-stroke:none;stop-color:#000000;stop-opacity:1"
         d="m 79.785451,143.92062 c 0,0 7.848255,-8.7652 12.811425,-11.38016 4.963174,-2.61495 9.940644,-3.39636 15.614464,-3.31889 5.67382,0.0774 11.38592,1.38852 11.38592,1.38852"
         id="path9568" />
      <path
         style="font-variation-settings:normal;opacity:1;vector-effect:none;fill:none;fill-opacity:1;stroke:currentColor;stroke-width:1.00415;stroke-linecap:round;stroke-linejoin:round;stroke-miterlimit:4;stroke-dasharray:none;stroke-dashoffset:0;stroke-opacity:1;-inkscape-stroke:none;stop-color:#000000;stop-opacity:1"
         d="m 127.57595,121.93436 c 0,0 3.60456,-0.18125 5.88114,-0.0213 2.27657,0.15999 3.79654,0.36197 3.88289,1.29717 0.0864,0.93519 -1.25089,3.47562 -1.91136,4.64121 -0.66047,1.16559 -1.51796,2.30728 -2.92222,2.88451 -1.40424,0.57721 -1.77167,0.4949 -3.42711,0.49732 -1.65544,0.002 -3.92256,-0.16704 -3.92256,-0.16704"
         id="path9991" />
      <path
         style="font-variation-settings:normal;opacity:1;vector-effect:none;fill:none;fill-opacity:1;stroke:currentColor;stroke-width:1.00415;stroke-linecap:round;stroke-linejoin:round;stroke-miterlimit:4;stroke-dasharray:none;stroke-dashoffset:0;stroke-opacity:1;-inkscape-stroke:none;stop-color:#000000;stop-opacity:1"
         d="m 101.49638,93.33743 c 0,0 -4.377786,6.88102 -8.531102,13.62137 -4.153314,6.74035 -9.595763,16.57639 -11.342326,19.61924 -1.746564,3.04284 -2.261563,5.28323 -2.261563,5.28323"
         id="path10499" />
      <path
         style="font-variation-settings:normal;opacity:1;vector-effect:none;fill:none;fill-opacity:1;stroke:currentColor;stroke-width:1.00415;stroke-linecap:round;stroke-linejoin:round;stroke-miterlimit:4;stroke-dasharray:none;stroke-dashoffset:0;stroke-opacity:1;-inkscape-stroke:none;stop-color:#000000;stop-opacity:1"
         d="m 91.1827,127.12834 c 1.592906,-0.63999 3.065393,-1.19783 4.547689,-2.5354 1.662067,-1.4998 5.589711,-7.43192 7.503191,-10.81282 1.91346,-3.38089 8.34961,-13.1111 8.34961,-13.1111"
         id="path10614" />
      <path
         style="font-variation-settings:normal;opacity:1;vector-effect:none;fill:none;fill-opacity:1;stroke:currentColor;stroke-width:1.00415;stroke-linecap:round;stroke-linejoin:round;stroke-miterlimit:4;stroke-dasharray:none;stroke-dashoffset:0;stroke-opacity:1;-inkscape-stroke:none;stop-color:#000000;stop-opacity:1"
         d="m 74.602258,148.81947 c 0,0 -0.822482,4.27937 -1.159715,6.47562 -0.337232,2.19625 -0.284722,3.70948 0.254599,4.48531 0.539323,0.77581 2.069815,1.15696 3.334626,0.84117 1.264812,-0.3158 2.219426,-0.96589 2.669902,-1.93368 0.422817,-0.90838 1.358235,-7.87058 1.358235,-7.87058"
         id="path10811" />
    </g>
  </g>
</svg>
