<?xml version="1.0" encoding="UTF-8" standalone="no"?>
<svg
   width="512"
   height="512"
   viewBox="0 0 512 512"
   version="1.1"
   xmlns="http://www.w3.org/2000/svg"
   >
  <g
     id="layer1">
    <g
       id="g3566">
      <rect
         style="fill:#ffffff;fill-opacity:0;stroke-width:6;stroke-linejoin:round;stop-color:#000000;stroke:none"
         id="rect3278"
         width="512"
         height="512"
         x="0"
         y="0"
         rx="8"
         ry="8" />
      <g
         id="g2870"
         transform="matrix(0.22446046,0,0,0.22446046,262.69021,81.966556)">
        <g
           id="g16634-0-48-4-2-3-6-9-2-7-1-6-8-9-1-1-1-9"
           style="stroke:#892953;stroke-width:25.4515;stroke-miterlimit:4;stroke-dasharray:none;stroke-opacity:1"
           transform="matrix(-2.6022432,4.1815048,4.1815048,2.6022432,-2013.3076,-54.213498)">
          <circle
             style="font-variation-settings:normal;fill:#f0c3cf;fill-opacity:1;stroke:none;stroke-width:37.2177;stroke-linecap:round;stroke-linejoin:round;stroke-miterlimit:4;stroke-dasharray:none;stroke-dashoffset:0;stroke-opacity:1;stop-color:#000000"
             id="path5877-3-3-7-3-1-62-8-3-5-1-5-8-1-4-5-8-7-7-8-6"
             cx="99.573532"
             cy="412.37564"
             r="174.56456"
             transform="scale(-1,1)" />
          <path
             id="path944-4-5-1-8-6-0-2-5-4-7-2-5-7-2-9-7-6-4-5-8-5-4"
             style="fill:none;fill-opacity:0.0799159;stroke:#862851;stroke-width:37.2177;stroke-linecap:round;stroke-linejoin:round;stroke-miterlimit:4;stroke-dasharray:none;stroke-opacity:1;stop-color:#000000"
             d="m -90.378704,323.95647 -9.194842,88.41917 -158.584914,76.59918" />
          <path
             style="font-variation-settings:normal;opacity:1;fill:none;fill-opacity:0.0799159;stroke:#862851;stroke-width:37.2177;stroke-linecap:round;stroke-linejoin:round;stroke-miterlimit:4;stroke-dasharray:none;stroke-dashoffset:0;stroke-opacity:1;stop-color:#000000;stop-opacity:1"
             id="path944-6-4-7-89-6-4-9-8-8-7-3-6-4-4-5-0-4-1-8-9-5-9-3"
             transform="scale(-1,1)"
             d="M 258.15838,488.97481 A 176.11525,176.11533 0 0 1 41.931326,578.79073 176.11525,176.11533 0 0 1 -72.414571,374.47215 176.11525,176.11533 0 0 1 117.22419,237.14704 176.11525,176.11533 0 0 1 275.66586,409.53409" />
          <path
             style="font-variation-settings:normal;opacity:1;fill:none;fill-opacity:0.0799159;stroke:#862851;stroke-width:37.2177;stroke-linecap:round;stroke-linejoin:round;stroke-miterlimit:4;stroke-dasharray:none;stroke-dashoffset:0;stroke-opacity:1;stop-color:#000000;stop-opacity:1"
             id="path944-6-6-4-4-6-0-3-2-9-6-2-2-5-9-9-3-5-8-15-1-6-7-7-3"
             transform="scale(-1,1)"
             d="M 127.48141,501.10842 A 93.018036,93.018036 0 0 1 32.363505,476.68091 93.018036,93.018036 0 0 1 12.159481,380.57723 93.018036,93.018036 0 0 1 89.389216,319.91681" />
        </g>
        <path
           id="rect6045-3"
           style="vector-effect:none;fill:#f0c3cf;stroke:#862851;stroke-width:183.301;stroke-linecap:round;stroke-linejoin:round;stop-color:#000000"
           d="m -623.45864,1253.0419 593.652,194.6123 593.652,-194.6123 v 367.6394 l -593.652,194.6123 -593.652,-194.6123 z" />
      </g>
    </g>
  </g>
</svg>
